<?xml version="1.0" encoding="utf-8"?>
<!-- Generator: Adobe Illustrator 19.2.1, SVG Export Plug-In . SVG Version: 6.00 Build 0)  -->
<svg version="1.1" xmlns="http://www.w3.org/2000/svg" xmlns:xlink="http://www.w3.org/1999/xlink" x="0px" y="0px" width="135.1px"
	 height="147.7px" viewBox="0 0 135.1 147.7" enable-background="new 0 0 135.1 147.7" xml:space="preserve">
<g id="Layer_7" display="none">
	
		<image display="inline" overflow="visible" width="250" height="250" xlink:href="E0016C74FA963453.png"  transform="matrix(1 0 0 1 447.5721 561.3378)">
	</image>
</g>
<g id="Layer_9">
	<g>
		<path fill="#A9A9A9" d="M72.1,141.7c0,1.3-0.5,2.4-1.4,3.3s-2,1.4-3.3,1.4s-2.4-0.5-3.3-1.4c-0.9-0.9-1.4-2-1.4-3.3
			s0.5-2.4,1.4-3.3c0.9-0.9,2-1.4,3.3-1.4s2.4,0.5,3.3,1.4S72.1,140.4,72.1,141.7z"/>
	</g>
	<g>
		<path fill="#A9A9A9" d="M134.7,30.9c-0.3-1.3-0.9-2.4-1.7-3.3c-0.9-0.9-1.9-1.5-3.2-1.9c-3.3-1-6.5-0.6-9.8,0.1
			c-7.3,1.7-13.4,5.5-18.6,10.9c-3.7,3.8-6.3,8.3-6.9,13.6c-0.2,1.6,0.1,3.2,0.2,4.7c0,0.8-0.1,1.6,0,2.3c0,0.5,0.2,1,0.3,1.6
			c-0.3-0.3-0.8-0.5-1.2-0.9c0.3,1.4-0.1,2.3-1,3.1c-0.1,0.1,0,0.4,0.1,0.7c0,0.1,0,0.2,0.1,0.3l0,0l0,0c-0.2,0.2-0.4,0.3-0.7,0.5
			c-1.1,0.7-0.9,1.6-0.6,2.6c-0.2-0.3-0.5-0.5-0.9-0.9c-0.4,0.7-0.6,1.5-1.1,1.7c-1.8,0.9-1.9,3-3.3,4.2c-1.9,1.7-28.3,26-30.1,27.7
			c-2.2,2.1-4.3,4.2-6.5,6.2c-3.4,3.1-7,5.9-10.6,8.7c-2.1,1.7-4.5,3.2-6.4,5.1c-1.3,1.3-2.8,2.4-4.3,3.5c-0.4,0.3-0.4,0.9-0.7,1.5
			c-0.8-0.3-1.1,0.2-1.3,1c-0.4,1.4-1.5,2.2-2.7,2.7c-1.9,0.8-3.8,1.3-5.6,2.3c-3,1.5-6.4,2.7-8.2,5.8c-0.8,1.5-1.9,3-1.8,4.9
			c0,0.6-0.1,1.2-0.4,1.7c-1,1.6-0.8,3.1,0.1,4.5c0.1,0.1,0.2,0.2,0.3,0.4c0.1,0.1,0.2,0.2,0.3,0.3c1.4,0.9,2.9,1.2,4.5,0.3
			c0.5-0.3,1.2-0.4,1.7-0.3c1.9,0.2,3.5-0.8,5-1.6c3.2-1.6,4.5-5,6.1-7.9c1-1.7,1.6-3.7,2.5-5.5c0.6-1.2,1.4-2.2,2.8-2.6
			c0.8-0.2,1.4-0.5,1.1-1.3c0.6-0.2,1.2-0.3,1.5-0.6c1.2-1.4,2.3-2.8,3.7-4.1c2-1.9,3.6-4.1,5.4-6.2c3-3.4,6-6.9,9.2-10.2
			c2.1-2.1,4.2-4.2,6.4-6.2c1.9-1.8,27.9-26.6,29.7-28.4c1.3-1.3,3.4-1.3,4.4-3c0.3-0.5,1.1-0.6,1.8-1c-0.4-0.4-0.6-0.6-0.9-0.9
			c1,0.3,1.9,0.5,2.6-0.5c0.2-0.2,0.3-0.4,0.5-0.6v0l0,0c0.1,0,0.2,0.1,0.3,0.1c0.3,0.1,0.6,0.2,0.7,0.1c0.8-0.9,1.8-1.3,3.1-0.9
			c-0.4-0.5-0.6-0.9-0.9-1.2c0.5,0.1,1,0.3,1.5,0.3c0.8,0.1,1.5,0,2.3,0.1c1.6,0.1,3.2,0.5,4.7,0.4c5.4-0.4,9.9-2.8,13.9-6.3
			c5.6-4.9,9.7-10.8,11.7-18.1C135,37.4,135.5,34.2,134.7,30.9z"/>
	</g>
	<g>
		<path fill="#A9A9A9" d="M127.2,141.6c-0.3-0.5-0.4-1.1-0.4-1.7c0.2-1.9-0.9-3.4-1.8-4.9c-1.8-3.1-5.2-4.2-8.2-5.8
			c-1.8-0.9-3.8-1.5-5.6-2.3c-1.2-0.5-2.3-1.3-2.7-2.7c-0.2-0.8-0.5-1.4-1.3-1c-0.3-0.6-0.3-1.2-0.7-1.5c-1.5-1.1-2.9-2.2-4.3-3.5
			c-2-1.9-4.3-3.4-6.4-5.1c-3.6-2.9-7.2-5.7-10.6-8.7c-2.2-2-4.4-4.1-6.5-6.2c-1.8-1.8-28.2-26-30.1-27.7c-1.3-1.2-1.5-3.4-3.3-4.2
			c-0.5-0.2-0.7-1.1-1.1-1.7c-0.4,0.4-0.6,0.6-0.9,0.9c0.2-1,0.4-2-0.6-2.6c-0.2-0.1-0.4-0.3-0.7-0.5l0,0l0,0c0-0.1,0-0.2,0.1-0.3
			c0.1-0.3,0.2-0.6,0.1-0.7c-0.9-0.8-1.4-1.7-1-3.1c-0.5,0.4-0.9,0.6-1.2,0.9c0.1-0.5,0.2-1,0.3-1.6c0-0.8,0-1.5,0-2.3
			c0-1.6,0.3-3.2,0.2-4.7c-0.6-5.4-3.2-9.8-6.9-13.6c-5.2-5.4-11.2-9.2-18.6-10.9c-3.3-0.8-6.5-1.1-9.8-0.1c-1.3,0.4-2.4,1-3.2,1.9
			c-0.9,0.9-1.4,2-1.7,3.3c-0.8,3.3-0.3,6.5,0.6,9.8c2,7.3,6.1,13.2,11.7,18.1c4,3.5,8.5,5.9,13.9,6.3c1.6,0.1,3.2-0.2,4.7-0.4
			c0.8-0.1,1.6,0,2.3-0.1c0.5-0.1,1-0.2,1.5-0.3c-0.3,0.4-0.5,0.8-0.9,1.2c1.3-0.4,2.3,0,3.1,0.9c0.1,0.1,0.4,0,0.7-0.1
			c0.1,0,0.2,0,0.3-0.1l0,0l0,0c0.2,0.2,0.3,0.4,0.5,0.6c0.7,1,1.6,0.8,2.6,0.5c-0.2,0.3-0.5,0.5-0.9,0.9c0.7,0.4,1.5,0.5,1.8,1
			c1,1.7,3.1,1.7,4.4,3c1.8,1.8,27.8,26.6,29.7,28.4c2.2,2,4.3,4.1,6.4,6.2c3.2,3.3,6.2,6.8,9.2,10.2c1.8,2.1,3.4,4.3,5.4,6.2
			c1.4,1.3,2.5,2.7,3.7,4.1c0.3,0.4,0.9,0.4,1.5,0.6c-0.3,0.8,0.3,1.1,1.1,1.3c1.4,0.3,2.2,1.4,2.8,2.6c0.9,1.8,1.5,3.8,2.5,5.5
			c1.7,2.9,2.9,6.3,6.1,7.9c1.5,0.8,3.1,1.8,5,1.6c0.6-0.1,1.2,0,1.7,0.3c1.6,0.9,3.2,0.6,4.5-0.3c0.1-0.1,0.2-0.2,0.3-0.3
			c0.1-0.1,0.2-0.2,0.3-0.4C128,144.7,128.2,143.1,127.2,141.6z"/>
	</g>
</g>
<g id="Layer_3">
	<g>
		<path fill="#A9A9A9" d="M70.4,33.2c5.8-0.2,9.5-1.6,10-1.9c0.6-0.4,0.7-2.2,0.3-2.7c-0.4-0.5-0.3-1-0.3-1s0-3.7,0.1-8.2
			c0-4.4-1.1-8.6-4.3-11.6c-3.2-3-6.3-3.1-6.8-3.2c-0.3-0.1-0.2-0.5-0.1-0.7c0.3-0.4,0.4-0.9,0.4-1.4c0-1.4-1.1-2.5-2.5-2.6
			c-1.4,0-2.5,1.1-2.5,2.5c0,0.5,0.1,1,0.4,1.4c0.1,0.3,0.2,0.7-0.1,0.7c-0.5,0.1-3.6,0.2-6.8,3.1c-3.2,2.9-4.4,7.1-4.4,11.5
			c0,4.4,0,8.2,0,8.2s0.1,0.5-0.3,1c-0.4,0.5-0.3,2.3,0.3,2.7c0.5,0.3,3.9,1.8,9.5,2C64.9,33.2,68.4,33.3,70.4,33.2z M67.2,0.8
			c0.9,0,1.7,0.8,1.7,1.7c0,1-0.8,1.7-1.7,1.7c-0.9,0-1.7-0.8-1.7-1.7C65.5,1.6,66.3,0.8,67.2,0.8z M68.8,6.2
			c1.1,0.2,3.2,0.7,5.3,2.7c0.1,0.1,0.2,0.2,0.3,0.2c-0.9,0.3-1.9,0.5-2.9,0.7C70.8,8.4,69.9,7.2,68.8,6.2z M72,11
			c1.2-0.2,2.3-0.5,3.2-0.9c0.9,1.2,1.5,2.5,2,3.9c-1.1,0.4-2.5,0.8-3.9,1C72.9,13.6,72.5,12.3,72,11z M77.8,26.2l0,1.1
			c-0.4-0.1-1.7-0.5-3.5-0.8c0-1,0-2.4,0-4.1c1.4-0.3,2.7-0.6,3.6-1.1C77.8,24.1,77.8,26.2,77.8,26.2z M77.8,19.8
			c-1,0.4-2.3,0.8-3.7,1c-0.1-1.4-0.3-2.9-0.6-4.4c1.6-0.3,3-0.7,3.9-1.3c0.3,1.2,0.4,2.5,0.4,3.9C77.8,19.3,77.8,19.6,77.8,19.8z"
			/>
	</g>
</g>
</svg>
