<?xml version="1.0" encoding="utf-8"?>
<!-- Generator: Adobe Illustrator 19.2.1, SVG Export Plug-In . SVG Version: 6.00 Build 0)  -->
<svg version="1.1" id="Layer_1" xmlns="http://www.w3.org/2000/svg" xmlns:xlink="http://www.w3.org/1999/xlink" x="0px" y="0px"
	 width="65.9px" height="74.8px" viewBox="0 0 65.9 74.8" enable-background="new 0 0 65.9 74.8" xml:space="preserve">
<g>
	<path fill="#A3ABB0" d="M32.9,0L0,19v38l30.7,17.7c-0.3-0.8-0.5-1.6-0.2-2.4c0.2-0.6-0.4-1.4-0.6-2.3c0.6,0,1,0,1.4,0
		c-1-0.6-2-1.2-1.7-2.6c0.1-0.3,0.1-0.6,0.1-0.9h0l0,0c-0.1-0.1-0.2-0.1-0.3-0.2c-0.3-0.2-0.7-0.3-0.7-0.5c0-1.4-0.4-2.5-1.8-3.3
		c0.7-0.1,1.1-0.2,1.6-0.3c-0.5-0.3-1.1-0.6-1.5-1c-0.7-0.6-1.3-1.3-1.9-1.9c-1.3-1.2-2.9-2.3-4.1-3.6c-0.1-0.1-0.1-0.2-0.2-0.3
		c2,0.6,4.8,1.1,8.7,1.4l6.2,0c3.8-0.3,6.6-0.8,8.6-1.3c0,0-0.1,0.1-0.1,0.1c-1.2,1.4-2.7,2.4-4.1,3.6c-0.7,0.6-1.2,1.3-1.9,1.9
		c-0.5,0.4-1,0.7-1.5,1c0.5,0.1,1,0.2,1.7,0.3c-1.3,0.8-1.6,1.9-1.6,3.2c0,0.1-0.3,0.3-0.7,0.5c-0.1,0-0.2,0.1-0.3,0.2l0,0h0
		c0,0.3,0.1,0.6,0.1,0.9c0.3,1.4-0.6,2-1.7,2.6c0.4,0,0.8,0,1.4,0c-0.2,0.8-0.8,1.7-0.6,2.3c0.3,0.9,0.1,1.7-0.2,2.4L65.9,57V19
		L32.9,0z M32.9,16.2c-1.1,0-2-1.1-2-2.4s0.9-2.4,2-2.4c1.1,0,2,1.1,2,2.4S34,16.2,32.9,16.2z M34.7,18.9c1.2,0.2,3.7,1,6.2,3.8
		c0.1,0.1,0.2,0.2,0.3,0.3c-1,0.4-2.2,0.7-3.3,1C37,22,36,20.3,34.7,18.9z M38.5,25.7c1.4-0.3,2.7-0.8,3.7-1.3
		c1.1,1.6,1.8,3.5,2.3,5.4c-1.3,0.6-2.8,1.1-4.5,1.5C39.6,29.4,39.1,27.5,38.5,25.7z M45.3,47l0,1.5c-0.5-0.2-2-0.6-4.1-1.1
		c0-1.4,0-3.4-0.1-5.8c1.6-0.4,3.1-0.9,4.2-1.6C45.3,44,45.3,47,45.3,47z M45.3,38.1c-1.2,0.6-2.7,1.1-4.3,1.5
		c-0.1-2-0.3-4.1-0.7-6.2c1.8-0.4,3.5-1,4.6-1.8c0.3,1.8,0.5,3.6,0.4,5.5C45.3,37.3,45.3,37.7,45.3,38.1z M50.2,39.4
		c-0.1,3.3-0.7,6.4-1.8,9.4c0-1,0-5.8,0-11.3c0-6.2-1.3-12.1-5-16.3c-3.7-4.2-7.4-4.3-7.9-4.4c-0.4-0.1-0.2-0.6-0.1-1
		c0.3-0.6,0.5-1.2,0.5-1.9c0-2-1.3-3.6-2.9-3.6c-1.6,0-2.9,1.6-2.9,3.6c0,0.7,0.2,1.4,0.5,1.9c0.1,0.4,0.2,0.9-0.1,1
		c-0.6,0.1-4.2,0.3-7.9,4.4c-3.7,4.2-5.1,10.1-5,16.3s0,11.5,0,11.5s0,0.2,0,0.5c-1.3-3.2-1.9-6.6-2-10.1c-0.4-8.5,1.3-16.6,5.7-24
		c2-3.3,4.2-6.3,7.6-8.2c1.4-0.8,2.7-1.2,4.1-1.2c1.4,0,2.7,0.4,4.1,1.2c3.4,1.9,5.7,4.9,7.6,8.2C48.8,22.8,50.5,30.8,50.2,39.4z"/>
</g>
</svg>
