<?xml version="1.0" encoding="utf-8"?>
<!-- Generator: Adobe Illustrator 19.2.1, SVG Export Plug-In . SVG Version: 6.00 Build 0)  -->
<svg version="1.1" id="Layer_1" xmlns="http://www.w3.org/2000/svg" xmlns:xlink="http://www.w3.org/1999/xlink" x="0px" y="0px"
	 width="855px" height="402.5px" viewBox="0 0 855 402.5" style="enable-background:new 0 0 855 402.5;" xml:space="preserve">
<style type="text/css">
	.st0{fill:#FEFEFF;}
</style>
<g>
	<path class="st0" d="M40.7,107.4c-2.8-2.5-6-5.2-9.8-8.4c-3.4-2.9-6.4-5.9-8.7-9.2c-2.1-2.9-3.2-5.9-3.4-8.9
		c-0.2-2.5,1.3-5.2,4.2-8.1c1.4-1.1,3.3-2.1,5.6-2.8c2.5-0.8,5.2-1.3,8.1-1.4c4.8-0.2,8.4,0.7,10.5,2.6c2.5,2.2,4.1,4.5,5,7.1
		l0.1,0.2c1.2,2.9,1.7,6.6,1.4,11l-0.3,4.2l4.2-0.2c2.3-0.1,4.6-0.2,6.8-0.4l3.5-0.2V57l-4,0.2c-2.3,0.1-4.5,0.3-6.8,0.4l-3.1,0.2
		l-0.4,3c0,0.1,0,0.2,0,0.3c-0.3-0.1-0.7-0.2-1.2-0.4c-1.9-0.7-4-1.5-6.5-2.4c-3-1.1-6.3-1.6-9.8-1.5c-10.1,0.3-17.5,2.1-22.7,5.4
		c-5.3,3.4-9.2,8-11.5,13.9l-0.1,0.2C0.6,80.2,0,84.3,0,88.5c0,4.3,0.9,8.8,2.7,13.3c1.7,4.4,4.4,9,7.9,13.6
		c3.5,4.6,8.3,9.3,14.1,13.8c3.1,2.7,6.7,5.7,10.7,9c4,3.3,7.5,6.8,10.4,10.4c2.7,3.4,4.3,6.7,4.8,10.3c0.5,2.9-0.9,5.8-3.9,8.7
		c-1.4,1.3-3.4,2.4-5.9,3.3c-2.5,0.9-4.7,1.4-6.7,1.3c-3.1,0-5.8-0.3-7.8-1c-2-0.7-3.7-1.5-5-2.5c-1.3-1-2.3-2.1-3-3.3
		c-0.8-1.3-1.5-2.7-2.1-4.1c-0.5-1.6-0.9-3.4-1.1-5.2c-0.2-1.7-0.1-3.6,0.3-5.6l0.9-4.5l-4.6,0.1c-2.2,0-4.4,0-6.5,0.1l-3.7,0v36.3
		l3.8,0c2.1,0,4.2,0,6.3-0.1l3.4,0l0.2-3.3c0.5,0.1,1.3,0.3,2.2,0.6c2.1,0.7,4.5,1.4,7.2,2.3c2.5,0.8,5.2,1.2,8.1,1.2
		c0.7,0,1.4,0,2.1-0.1c5.3-0.3,10-1.2,14-2.6c3.9-1.4,7.3-3.3,10.1-5.5c2.7-2.2,5-4.7,6.8-7.5c1.7-2.6,3.1-5.3,4.1-8.1l0.1-0.4
		c2.4-8.8,0.8-17.6-4.7-26.2C60,125.1,52,116.7,40.7,107.4z"/>
	<path class="st0" d="M117.8,176.2v-13l-5.1,1.9c-0.3,0.1-0.7,0.2-1,0.2l0,0c0-0.1,0-0.3,0-0.6v-38.9c3-0.3,6-0.6,9-0.9
		c6.3-0.6,12-1.9,16.9-3.8c5-1.9,9.2-4.4,12.6-7.3c3.4-2.9,6.1-6.2,7.8-9.7c1.8-3.5,2.7-7.1,2.7-10.5c0.2-2.6,0.2-5.5,0.2-8.8
		c0-3.3-0.1-6.3-0.2-8.9c0-3.6-1-7.1-2.8-10.2c-1.8-3.1-4.6-5.9-8.2-8.1c-3.5-2.1-7.8-3.7-12.9-4.6c-4.9-0.8-10.6-0.9-16.9-0.3
		C108,53.8,96,54.9,84.4,55.7L80.9,56v12.1l4.6-1.1c0.8-0.2,1.1-0.2,1.2-0.2l0.1,0c0.1,0,0.3,0.1,0.6,0.3c0,0.1,0,0.3,0,0.6v98.4
		c0,0.5-0.1,0.7-0.1,0.7h0c-0.4,0.4-0.6,0.4-0.6,0.4l-0.6,0.1l-0.3,0.1c-0.1,0-0.3,0-0.7-0.1l-4.4-0.8v12.7l4-0.3
		c9.6-0.7,19.5-1.5,29.5-2.5L117.8,176.2z M126.2,64.4c1.7,0.4,3.4,1.1,5,1.9c1.4,0.7,2.5,1.8,3.6,3.2c0.9,1.3,1.4,2.9,1.4,4.9v24.5
		c0,2.2-0.5,4-1.5,5.5c-1.2,1.8-2.6,3.3-4.1,4.7c-1.5,1.3-3.1,2.2-4.7,2.8c-1.7,0.6-3.2,1-4.3,1.1c-3.2,0.3-6.5,0.6-9.7,0.9V65
		c3.5-0.3,7-0.7,10.5-1C123.3,63.9,124.6,64,126.2,64.4z"/>
	<path class="st0" d="M244.5,149.4c2.4-2.7,4.2-5.7,5.4-9c1.2-3.1,2-6.8,2.4-11c0.4-4,0.6-8.7,0.6-14V97.1c0-9.4-0.1-17.3-0.4-23.5
		c-0.2-6.3-1-11.6-2.1-15.8c-0.7-4.2-2.7-7.7-6-10.5c-3.1-2.5-6.8-4.4-11-5.6c-3-0.8-6.3-1.3-9.8-1.5c-3.5-0.2-6.9,0-10.2,0.5
		c-6.7,1-13.4,3.3-19.8,6.9c-4.1,2.4-7.6,5.2-10.4,8.5c-3,3.4-4.9,7.3-5.7,11.4c-1.4,4.5-2.1,10.1-2.3,16.6
		c-0.2,6.2-0.2,14.1-0.2,23.5V126c0,5.3,0.2,10,0.6,13.8c0.4,4.1,1.3,7.7,2.5,10.5c1.3,3.1,3.2,5.7,5.7,7.8
		c3.7,3.2,8.6,5.4,14.3,6.5c3,0.6,6.1,0.8,9.1,0.8c2.4,0,4.9-0.2,7.3-0.5c5.5-0.8,11.1-2.6,16.4-5.2
		C236.4,157,241,153.5,244.5,149.4z M229,99.8c-0.2,6.7-0.2,13.4-0.2,19.8V136c0,5.8-1.2,10.1-3.5,12.7c-2.4,2.7-6.3,4.4-11.5,5.2
		c-5.1,0.8-8.8,0.3-11.2-1.5c-2.7-2.1-3.3-7-3.3-10.8v-72c0-5.7,1.4-9.8,4.1-12.3c3-2.7,6.7-4.4,11.2-5.1c1.2-0.2,2.4-0.3,3.5-0.3
		c2.8,0,5.2,0.6,7.2,1.8c2.3,1.4,3.5,4.9,3.5,10.2v16.3C228.7,86.7,228.8,93.2,229,99.8z"/>
	<path class="st0" d="M335,133.7c2.4-2.8,4.2-5.8,5.4-9.1c1.2-3.1,2-6.8,2.4-11c0.4-4,0.6-8.8,0.6-14V81.2c0-9.4-0.1-17.3-0.4-23.5
		c-0.2-6.3-1-11.6-2.1-15.7c-0.7-4.2-2.7-7.7-6.1-10.4c-3.1-2.5-6.8-4.3-11-5.4c-3-0.8-6.3-1.2-9.8-1.2c-3.5-0.1-6.9,0.2-10.2,0.8
		c-6.7,1.2-13.4,3.7-19.8,7.5c-4.1,2.5-7.6,5.4-10.4,8.8c-3,3.5-4.9,7.4-5.6,11.5c-1.4,4.6-2.1,10.2-2.3,16.6
		c-0.2,6.2-0.2,14.1-0.2,23.6v18.3c0,5.3,0.2,10,0.6,13.8c0.4,4.1,1.3,7.6,2.5,10.4c1.3,3,3.3,5.6,5.8,7.6c3.8,3.1,8.6,5.1,14.3,6
		c2.5,0.4,5.1,0.6,7.6,0.6c2.9,0,5.9-0.3,8.8-0.8c5.5-1,11-2.9,16.4-5.6C326.9,141.4,331.4,137.8,335,133.7z M315.6,133.3
		c-2.4,2.7-6.3,4.6-11.6,5.6c-5.1,0.9-8.8,0.5-11.1-1.2c-2.6-1.9-3.2-6.9-3.2-10.7v-72c0-5.7,1.4-9.9,4.2-12.5
		c3.1-2.9,6.7-4.6,11.2-5.4c1.4-0.3,2.7-0.4,4-0.4c2.6,0,4.7,0.5,6.6,1.6c2.3,1.3,3.5,4.7,3.5,10.1v16.3c0,6.3,0.1,12.9,0.2,19.5
		c-0.2,6.8-0.2,13.4-0.2,19.8v16.4C319.2,126.3,318,130.6,315.6,133.3z"/>
	<path class="st0" d="M434.4,125.2l3.1-0.6V14.5c0-0.8,0.2-1.1,0.2-1.1c0.3-0.4,0.7-0.7,1-0.8c0.4-0.1,1.1-0.3,2.3-0.4l3.6-0.1V0
		l-4.4,0.8c-7.1,1.3-14.3,2.6-21.4,3.9l-3.1,0.6v12.4l5-1.7c1-0.3,1.6-0.4,1.9-0.4c0,0,0.1,0,0.2,0c0,0.1,0,0.1,0,0.2V89
		c-12-25.2-23.9-50.4-35.9-75.6l-1.2-2.6l-2.8,0.5c-8.3,1.5-16.5,3.1-24.8,4.6l-3.1,0.6V29l5-1.8c1-0.3,1.6-0.4,1.9-0.4
		c0,0,0.1,0,0.1,0c0,0.1,0,0.1,0,0.2v98.2c0,0.6-0.1,0.8-0.1,0.8c-0.6,0.6-1,0.8-1.3,1c-0.5,0.2-1.2,0.3-2,0.3l-3.7,0.1v12.4
		l4.4-0.8c7.1-1.3,14.3-2.7,21.4-4l3.1-0.6V122l-4.9,1.7c-1.1,0.4-1.8,0.5-2.1,0.5c0,0,0-0.1,0-0.2V56.4
		c11.1,23.5,22.2,46.9,33.2,70.4l1.2,2.6l2.8-0.5C420.8,127.7,427.6,126.4,434.4,125.2z"/>
	<path class="st0" d="M531.1,84.5c4-0.6,8-1.3,12-1.9l-3.2,8.6c-1.8,5-1.9,8.9-0.1,11c1.2,1.5,3.3,2.1,6.1,1.7
		c1.4-0.2,2.9-0.7,4.4-1.5c3.1-0.5,6.2-0.9,9.3-1.4l0.3,0l0.2-0.3c5-8.6,10.1-17.2,15.1-25.7c10.5-13.3,16.3-15.9,17.5-15
		c0.4,0.3,0.4,1.5-0.9,3.8c-4.3,7.2-8.6,14.5-12.8,21.8c-2.3,3.8-2.6,7.5-1,9.9c1.5,2.3,4.5,3.2,8.3,2.7c3.6-0.5,7.6-2.4,12-5.9
		c0.1,0.1,0.1,0.3,0.2,0.5c1.3,1.9,3.5,2.9,6.5,2.9c0.6,0,1.2,0,1.8-0.1c3.7-0.4,8.3-2.9,13.2-6.9c1,3.2,4.3,4.8,9,4.3
		c6.9-0.7,15.5-7,26.2-19.2l0.3-0.3l-0.2-0.4c-0.7-1.2-2.5-2.6-4.1-3l-0.4-0.1l-0.9,1c-8.4,9.5-14.5,14.6-18.1,14.9
		c-0.8,0.1-1.3-0.1-1.5-0.4c-0.2-0.3-0.4-1.1,1-3.4c11.3-18.7,22.5-37.2,33.5-55.1l0.6-1l-1.2,0.1c-3.3,0.3-6.6,0.6-9.9,0.9l-0.3,0
		l-0.2,0.3c-4.7,7.7-9.4,15.4-14.1,23.2c-1.8-1.9-5-3.7-9-3.2c-5.3,0.6-13,5-17.4,12.4c-4.6,7.7-9.3,15.4-13.9,23.2
		c-0.4,0.7-0.7,1.3-1,2c-4.1,3.9-7.3,6-9.5,6.3c-0.8,0.1-1.3,0-1.5-0.3c-0.1-0.2-0.4-1,1-3.5c4.8-8.1,9.5-16.2,14.3-24.3
		c2.9-4.9,1.8-7.9,0.9-9.2c-1.3-2-3.9-3-6.9-2.6c-3.5,0.4-7.1,2.2-10.8,5.4l2-3.4l-1.3,0.2c-3.3,0.4-6.6,0.9-9.9,1.3l-0.3,0
		l-0.2,0.3c-7,11.7-14.2,24-21.5,36.4c-3,3-5.2,4.7-6,4.9c-0.1,0-0.2,0-0.3,0c-0.1,0-0.1,0-0.1,0c-0.1-0.1-0.2-0.8,0.8-3.5
		c6.5-18,13.1-36.1,19.6-54l0.3-0.7l-0.8-0.1c-11.5-1.7-23.5,14.2-36.1,31.1c-11.8,15.7-23.9,31.9-36,34c-5.9,1-10.5-0.3-12.9-3.7
		c-2.9-4.2-2.2-11.3,2-18.3c4.8-8.2,12.2-13.3,18.9-13.1c3.7,0.1,6.6,1.9,8.1,5.1l0.3,0.6l0.6-0.3c2.6-1.3,5.3-2.7,7.9-4l0.6-0.3
		l-0.3-0.6c-2.9-5.5-8.2-8.6-15.1-8.8c-11-0.2-23.1,7.2-29.5,18.1c-5.9,10.2-6.7,20.4-2,27.1c3.4,4.8,9.1,7.4,16.1,7.4
		c1.7,0,3.6-0.2,5.5-0.5C510.8,109.4,522,96.7,531.1,84.5z M535.6,78.3c1.5-2.1,3-4.2,4.4-6.3c4.7-6.7,9.2-13.1,13.8-18.4
		c-2.9,7.7-5.8,15.5-8.6,23.2C542,77.3,538.8,77.8,535.6,78.3z M622.9,61.5c2.5-4.1,6-5.9,8.4-5.9c0.7,0,1.2,0.1,1.7,0.4
		c1.4,0.8,1.4,2.9-0.1,5.6l-0.4,0.7c-2.4,3.9-4.7,7.8-7.1,11.6C619,84,613.1,88,609.6,88.4c-0.8,0.1-1.3,0-1.5-0.3
		c-0.1-0.2-0.4-1,1-3.4l0,0C613.7,76.9,618.3,69.2,622.9,61.5z"/>
	<path class="st0" d="M649.1,85.4c0,1.4,0.6,2.7,1.6,3.6c1,0.9,2.4,1.4,3.9,1.4c0.2,0,0.4,0,0.6,0c3.4-0.3,6.1-2.9,6.1-6
		c0-1.4-0.6-2.7-1.6-3.6c-1.2-1.1-2.8-1.6-4.6-1.4C651.7,79.6,649.1,82.3,649.1,85.4z"/>
	<path class="st0" d="M154.8,193.7c-3-1.9-6.8-3.3-11.3-4.2c-4.4-0.8-9.5-0.9-15.6-0.2c-12.7,1.3-25.2,2.5-37.3,3.4L87,193v12.4
		l4.7-1.3c0.9-0.2,1.2-0.2,1.3-0.2c0,0,0,0,0.1,0c0,0.1,0.1,0.4,0.1,0.7v97.9c0,0.7-0.1,1-0.1,1c-0.1,0.2-0.4,0.4-0.6,0.4l-0.4,0.1
		c0,0-0.2,0-0.6,0l-4.5-0.9v12.6l4-0.3c6.9-0.4,13.8-1,20.3-1.6c7.6-0.7,15.4-1.5,23.1-2.3c3.4-0.4,6.8-1.5,10.3-3.3
		c3.4-1.7,6.5-3.9,9.3-6.5c2.9-2.6,5.2-5.5,7.1-8.7c1.9-3.4,2.9-6.9,2.9-10.5v-13.8c0-4.4-0.9-8.2-2.7-11.4c-1.7-3-3.9-5.5-6.4-7.3
		c-1-0.7-2-1.4-3.1-1.9c1.3-0.9,2.5-2,3.6-3.1c2.3-2.3,4.3-5.1,5.9-8.2c1.7-3.3,2.6-7.1,2.6-11.3v-15.4c0-3.2-0.8-6.3-2.2-9.1
		C160.3,198.2,157.9,195.7,154.8,193.7z M140.2,204.3c0.8,1.1,1.3,2.5,1.3,4.5v18.3c0,1.4-0.1,2.8-0.2,3.9c-0.1,1-0.3,2-0.5,2.9
		c-0.2,0.3-0.3,0.7-0.4,1.1c-0.3,0.7-0.6,1.5-0.7,2.2c0,0,0,0.2-0.2,0.4c-1.4,2.5-3.2,4.2-5.5,5.3c-2.7,1.2-5.7,2-8.8,2.3
		c-2.6,0.3-5.2,0.5-7.8,0.8v-44.5c3.2-0.3,6.4-0.6,9.6-1c2.2,0,4.1,0,5.9,0.1c1.5,0.1,2.9,0.3,4.1,0.8
		C138.2,202.2,139.2,203.1,140.2,204.3z M140.6,264.4l0.2,0.9l0.3,1.4c0.2,1.2,0.3,2.5,0.3,3.8v14.6c0,1-0.1,1.9-0.2,2.8
		c-0.1,0.8-0.3,1.7-0.6,2.6c-1,3.3-3,5.8-6.1,7.4c-3.5,1.9-7.3,3.1-11.1,3.5c-2,0.2-4.1,0.4-6.1,0.6v-44.3c2.9-0.3,5.7-0.6,8.6-0.9
		c2.9-0.3,5.6,0,8.3,1c2.4,0.9,4.2,2.4,5.6,4.7l0.1,0.1L140.6,264.4z"/>
	<path class="st0" d="M177.3,183.1l-3.2,0.4v12.2l4.8-1.4c0.6-0.2,1.1-0.3,1.4-0.3c0,0,0,0,0,0c0,0.1,0,0.4,0,0.7V293
		c0,0.6-0.1,0.9-0.1,1c-0.3,0.3-0.5,0.5-0.6,0.5l-0.1,0c-0.3,0.2-0.8,0.2-1.4,0.1l-4.2-0.5v12.7l4.2-0.6c9.5-1.3,19.5-2.7,29.5-4.1
		l3.2-0.5v-12.9l-5.1,2c-0.6,0.2-0.9,0.3-1,0.3l-0.2-0.1c0-0.1,0-0.2,0-0.4v-98.4c0-0.8,0.1-1.1,0.1-1.1c0,0,0,0,0,0
		c0.4-0.5,0.7-0.7,0.8-0.8c0.2-0.1,0.7-0.2,1.6-0.1l3.8,0.1v-12l-4.3,0.6C196.7,180.4,186.8,181.8,177.3,183.1z"/>
	<path class="st0" d="M295.5,277c-0.7,0.1-1.1,0.1-1.4,0.1c-0.4-1.5-0.6-3.3-0.6-5.5v-25.9c0-3.8-1.2-9.7-7.9-13.1
		c3.4-2.4,6.3-5.1,8.4-8.1c3.7-5.2,5.6-10.4,5.6-15.3v-17.7c0-3.7-1-7.2-2.9-10.3c-1.9-3.1-4.7-5.7-8.4-7.6
		c-3.5-1.8-7.8-3.1-12.8-3.7c-4.9-0.6-10.7-0.4-17,0.7c-12.2,2-23.5,3.9-34.7,5.6l-3.2,0.5v11.9l4.6-1.2c0.7-0.2,1.3-0.3,1.6-0.3
		c0,0.1,0,0.3,0,0.6v98.5c0,0.8-0.1,1-0.1,1c-0.3,0.3-0.5,0.5-0.6,0.5l-0.4,0.1l-0.4,0.2c0,0-0.2,0.1-0.6,0l-4.2-0.6v12.8l4.3-0.7
		c9.4-1.5,19.2-3,29.2-4.7l3.1-0.5v-13.2l-5.3,2.4c-0.3,0.1-0.6,0.2-0.8,0.2c0-0.1,0-0.2,0-0.4v-39.3c2.2-0.4,4.5-0.7,6.7-1.1
		c1.3-0.1,2.8-0.2,4.4-0.2c1.4,0,2.6,0.2,3.8,0.5c0.8,0.3,1.4,0.7,1.9,1.4c0.5,0.6,0.7,1.8,0.7,3.3v26.6l0,0.2
		c0.2,3.5,1.1,6.4,2.8,8.7c1.6,2.2,3.5,3.9,5.9,5c2.2,1.1,4.6,1.7,7.2,2c2.4,0.2,4.9,0.1,7.3-0.3c2.8-0.5,5.1-1.2,6.9-2.1
		c1.7-0.8,3-1.7,4.2-2.5l1.5-1.1v-11.6l-7.4,3.8C297,276.6,296.6,276.8,295.5,277z M265.3,181.9c1.6,0.2,3.2,0.8,4.7,1.5
		c1.4,0.7,2.6,1.8,3.7,3.1c0.9,1.1,1.3,2.5,1.3,4.4v24.6c0,2.1-0.5,4-1.5,5.6c-1.2,1.9-2.5,3.5-4.1,4.8c-1.6,1.3-3.3,2.4-5,3.2
		c-1.7,0.8-3.1,1.3-4.3,1.5c-2.9,0.5-5.8,1-8.8,1.5v-48.7c3.3-0.5,6.7-1.1,10-1.7C262.3,181.6,263.7,181.6,265.3,181.9z"/>
	<path class="st0" d="M388.1,155.9c-3.5-1.9-7.8-3.1-12.9-3.6c-5-0.5-10.8-0.2-17.2,1c-12.4,2.3-24.8,4.6-37.2,6.8l-3.1,0.6v12.6
		l5-1.9c0.5-0.2,0.9-0.3,1.3-0.3c0,0.1,0,0.2,0,0.4v98.2c0,0.7-0.1,1-0.1,1c-0.3,0.3-0.5,0.5-0.8,0.7c-0.5,0.2-1,0.3-1.6,0.3l-3.8,0
		V284l4.4-0.8c6-1.1,12-2.2,18-3.3l6.7-1.2c2.2-0.4,4.2-0.8,6.1-1.2c1.7-0.4,3.2-0.7,4.4-0.9l2.1-0.4c6.5-1.2,12.2-3,17.1-5.3
		c4.9-2.4,9.1-5.1,12.4-8.1c3.4-3.1,6-6.4,7.8-9.9c1.8-3.6,2.7-7.2,2.7-10.7v-68.5c0-3.6-1-7-2.9-10.1
		C394.6,160.4,391.8,157.9,388.1,155.9z M348.3,166.9l5-0.9c1.9-0.3,4-0.7,6.5-1c2.2-0.3,4.4-0.3,6.6-0.1c2,0.2,3.8,0.7,5.4,1.5
		c1.3,0.6,2.3,1.6,3,2.9c0.5,1.2,0.8,2.4,0.8,3.7v75.4c-0.1,3.4-1.2,6.2-3.2,8.5c-1.8,1.8-3.9,3.4-6.3,4.5c-2.7,1.2-5.3,2.2-7.8,2.9
		c-3.3,0.6-6.7,1.2-10,1.9V166.9z M324.3,171L324.3,171C324.3,171.1,324.3,171.1,324.3,171C324.3,171,324.3,171,324.3,171z"/>
	<path class="st0" d="M456.1,134.9c-1.5,0.2-4.5,0.6-6,0.9c-1.3,0.3-3.8,1.1-5.1,1.5c-4.6,1.4-9.1,3.4-13.5,6.1
		c-4,2.5-7.6,5.5-10.5,8.9c-3.1,3.6-5,7.5-5.8,11.7c-1.2,4.6-1.9,10.1-2,16.6c-0.2,6.2-0.2,14.1-0.2,23.6v18.3
		c0,5.3,0.2,10,0.6,13.8c0.4,4.1,1.3,7.6,2.5,10.4c1.3,3,3.3,5.6,5.8,7.6c3.8,3.1,8.6,5,14.3,5.9c2.5,0.4,4.9,0.5,7.4,0.5
		c3,0,6-0.3,8.9-0.8c11.2-1.9,20-5.5,26.2-10.9c6.6-5.6,9.9-12.6,9.9-20.7v-12.7l-13.1,2.3v7.5c0,3.7-0.6,6.9-1.7,9.5
		c-1.1,2.6-2.6,4.7-4.6,6.5c-2.1,1.9-4.7,3.4-7.7,4.6c-3.1,1.3-6.7,2.3-10.7,3c-4.3,0.8-7.6,0.3-10.3-1.4c-2.3-1.5-3.5-5-3.5-10.4
		c0-4.5,0-9.9-0.1-16.4c-0.1-6.2-0.1-12.6-0.1-19.7c0-6.9,0-13.4,0.1-19.5c0.1-6.4,0.1-11.9,0.1-16.4c0-2.9,0.4-5.3,1.2-7.3
		c0.8-2,1.9-3.6,3.2-5c1.4-1.4,3-2.5,4.8-3.4c2-0.9,4.2-1.7,6.5-2.4l0,0c3.1-0.8,5.9-1.2,8.2-1c2.4,0.2,4.4,0.6,5.9,1.1
		c1.8,0.7,2.8,1.3,3.3,1.7c1.3,1.1,1.6,1.5,1.7,1.5c1,1.1,1.7,2.3,2.1,3.6c0.5,1.6,0.9,3.1,1.2,4.4c0.3,1.7,0.5,3.3,0.7,4.8l0.4,4
		l12.4-2.2v-35.9l-8.7,1.5c-0.5,0-1,0-1.5,0.1l-3.1,0.5v3.1c0,0.5-0.1,0.9-0.9,1.4c-0.3,0.1-0.7,0.2-1.2,0.2l-5.7-0.9
		c-2.5-0.4-5.7-0.6-9.7-0.4C457.5,134.8,456.6,134.8,456.1,134.9z"/>
	<path class="st0" d="M585.5,226.1c-0.7,0-1.4-0.2-1.9-0.4c0-0.1-0.1-0.2-0.1-0.4c-0.1-0.6-0.4-1.8-1.3-5c-0.8-2.9-1.8-6.7-3-11.8
		c-1.2-4.7-2.5-10.3-4-16.5c-1.4-6-2.9-12.2-4.6-19c-3.7-15-7.9-32.1-12.6-51.1l-0.8-3.3l-3.4,0.5c-4.1,0.6-8.3,1.2-12.4,1.9
		l-2.4,0.4l-0.6,2.4c-4.9,18.5-9.7,36.9-14.6,55.5c-1.8,7.1-3.6,13.9-5.3,20.4c-1.8,6.7-3.4,12.6-4.7,17.9
		c-1.4,5.3-2.5,9.5-3.3,12.7c-0.8,3-1.1,4.3-1.2,5c-0.2,0.7-0.6,1.3-1,1.6c-0.7,0.6-1.5,1-2.4,1.3c-1.1,0.4-2.2,0.5-3.3,0.6
		l-3.7,0.1v12.1l4.4-0.7c7.9-1.3,15.8-2.6,23.3-3.8l3.1-0.5v-12.2l-4.8,1.4c-0.5,0.2-0.9,0.3-1.3,0.3v0c0.1-0.4,0.4-1.7,1.2-5.4
		c0.8-3.2,1.8-7.3,3.1-12.5c8.6-1.4,17.1-2.7,25.2-3.9c1,4.2,1.8,7.8,2.5,10.6c0.8,3.3,1.1,4.5,1.2,5l0.1,0.5c0,0.1,0,0.3,0.1,0.3
		c-0.1,0.1-0.3,0.2-0.4,0.3c-0.7,0.2-1.6,0.3-2.5,0.3c0,0,0,0,0,0l-3.7,0v12.1l4.3-0.6c12.2-1.8,24.2-3.5,35.7-5l3.3-0.4v-12.2
		l-4.7,1.2C587.6,226,586.5,226.1,585.5,226.1z M533.1,195.8c1.3-5.3,2.6-10.6,4-15.9l4-15.6c0-0.1,0.1-0.3,0.1-0.4
		c1.2,4.5,2.3,9.1,3.5,13.7c1.2,5,2.4,9.9,3.6,14.8c0.8,3.4,1.6,6.6,2.4,9.8c-6.5,1-13.1,2-19.9,3.1L533.1,195.8z"/>
	<path class="st0" d="M640.7,106.9c-1.7,0.1-5.1,0.3-6.8,0.6c-2.6,0.5-7.2,1.8-10.4,2.8c-2.5,0.8-4.7,1.9-7,3.1c0,0-0.1,0.1-0.1,0.1
		c-4,2.3-7.6,5.1-10.6,8.3c-3.2,3.4-5.2,7.3-6,11.5c-1.4,4.5-2.1,10.1-2.3,16.7c-0.2,6.3-0.2,14.3-0.2,23.9v18.6
		c0,5.4,0.3,10.1,0.8,14c0.5,4.1,1.4,7.6,2.6,10.5c1.3,3.1,3.2,5.8,5.7,7.9c3.7,3.3,8.5,5.5,14.3,6.7c3.7,0.8,7.5,1.2,11.2,1.2
		c1.8,0,3.6-0.1,5.4-0.3c7.5-0.7,14.2-2.3,20-5c2.5-0.8,4-1.1,4.9-1.2v2.7l4.1-0.3c1.9-0.2,3.9-0.3,5.8-0.5l3.4-0.3v-52.7
		c0-0.5,0-0.8,0.1-0.9c0.1,0,0.4,0,0.9,0l4.2,0.5v-12.4l-4,0.3c-12.3,0.9-25,1.9-37.8,3.2l-3.4,0.3v11.9l4.1-0.4
		c3.2-0.3,6.3-0.6,9.5-0.9c1.8-0.2,2.4,0.1,2.4,0.1c0.1,0,0.2,0.1,0.3,0.1v25.4c0,3-0.1,5.6-0.2,7.9c-0.1,1.9-0.5,3.5-1.1,4.9
		c-0.5,1.1-1.2,2.1-2.2,2.8c-1.2,0.9-2.9,1.7-5.2,2.5c-2.1,0.5-4.3,0.9-6.6,1.1c-4.3,0.4-7.8-0.3-10.7-2.3c-2.6-1.8-3.8-5.5-3.8-11
		v-72.4c0-3,0.4-5.4,1.2-7.3c0.8-1.9,1.8-3.5,3.2-4.8c1.4-1.3,2.9-2.3,4.8-3c2.1-0.8,4.4-1.5,6.8-1.9c3.1-0.6,5.9-0.7,8.2-0.4
		c2.4,0.4,4.4,0.9,6,1.6c1.5,0.7,2.6,1.4,3.4,2.1c1.2,1.1,1.6,1.5,1.7,1.7c1,1.4,1.8,2.8,2.3,4.3c0.6,1.7,1,3.2,1.3,4.5l0,0.2
		c0.4,1.5,0.6,2.9,0.6,4.3v4.1l4.1-0.3c1.9-0.2,3.7-0.3,5.6-0.5l3.4-0.3v-35.7l-4,0.3c-2,0.2-4.1,0.3-6.1,0.5l-3.4,0.4v3.3
		c-0.2,0.2-0.4,0.3-0.7,0.5c-0.4,0.2-0.8,0.2-1,0.1l-0.4-0.1c-1.5-0.3-3.3-0.7-5.5-1.3c-2.6-0.7-5.8-1.2-9.8-1.3
		C642.6,106.9,641.3,106.9,640.7,106.9z"/>
	<path class="st0" d="M740.3,112.5c2.3-0.1,4.1,0.4,5.3,1.3c1.4,1,2.3,2.1,2.9,3.2c0.6,1.5,1,3.3,1.1,5.3l0.2,3.5l3.5,0
		c2.1,0,4.2,0,6.3,0l3.7,0v-24.5l-3.8,0c-21.8,0.1-44.7,0.9-68,2.3l-3.5,0.2v12.1l4.6-1c0.7-0.2,1.1-0.2,1.2-0.2l0.1,0
		c0.1,0,0.2,0.1,0.4,0.2c0,0.1,0.1,0.4,0.1,0.8V214c0,0.5-0.1,0.7-0.1,0.8c-0.2,0.2-0.3,0.2-0.3,0.2l-0.6,0.1l-0.3,0.1
		c-0.1,0-0.3,0-0.7-0.1l-4.4-0.8v12.7l4-0.3c23.2-1.5,45.9-2.3,67.6-2.3l3.7,0V200l-3.8,0c-2.1,0-4.2,0-6.3,0l-3.5,0l-0.2,3.5
		c-0.1,2-0.5,3.8-1.1,5.4c-0.5,1.1-1.4,2.1-2.8,3.1c-1.2,0.9-3.1,1.3-5.6,1.4c-7.1,0.2-14.3,0.4-21.5,0.7v-44.2
		c4.5-0.2,9-0.3,13.4-0.5c1.8-0.1,2.5,0.3,2.6,0.4c0.6,0.4,1,0.8,1.2,1.3l0.2,0.4c0.3,0.5,0.4,1.1,0.4,1.9v3.8l3.8-0.1
		c1.9,0,3.7-0.1,5.6-0.1l3.7-0.1v-27.4l-3.8,0.1c-1.9,0-3.7,0.1-5.6,0.1l-3.7,0.1v3.7c0,0.9-0.2,1.6-0.5,2.3l-0.1,0.1
		c-0.2,0.4-0.6,0.8-1.2,1.2c-0.2,0.2-1,0.5-2.8,0.6c-4.3,0.1-8.7,0.3-13.2,0.5v-45C726,112.9,733.2,112.6,740.3,112.5z"/>
</g>
<g>
	<path class="st0" d="M632.6,340.4l-0.1,0l-0.1,0c-0.5,0-0.6,0.4-0.7,0.6c0,0.1,0,0.1-0.1,0.1c-0.2,0.2-0.4,0.4-0.6,0.6
		c-0.3,0.3-0.6,0.7-0.9,1c-0.2,0.2-0.4,0.4-0.6,0.6c-0.3,0.3-0.6,0.6-0.9,0.9c-0.3,0.3-0.6,0.5-1,0.7c-0.3,0.2-0.6,0.4-0.8,0.6
		c-0.6,0.5-1.2,0.9-1.8,1.3c-0.3,0.2-0.5,0.4-0.8,0.6c-0.3,0.3-0.6,0.5-0.9,0.7c-0.4,0.2-0.8,0.4-1.3,0.5c-0.3,0.1-0.5,0.2-0.7,0.3
		l-0.4,0.2c-0.6,0.2-1.1,0.5-1.6,0.6c-0.7,0.2-1.3,0.2-2.1,0.2h-0.2c-0.6,0-1.2,0-1.7-0.1c-0.6-0.2-1-0.5-1.5-1
		c-0.5-0.5-0.7-1-0.7-1.5c0-0.5,0.1-1.1,0.4-1.9c0.2-0.6,0.6-1.2,0.9-1.8c0.2-0.3,0.2-0.5,0.2-0.6c0,0,0-0.1,0-0.1
		c0.7,0.2,1.4,0.4,2.2,0.5c0.9,0.1,1.7,0.2,2.5,0.1c0.8-0.1,1.7-0.2,2.5-0.4l0.2,0c0.7-0.2,1.5-0.4,2.2-0.7c0.7-0.3,1.5-0.7,2.2-1.2
		c0.5-0.3,0.9-0.7,1.3-1.2c0.2-0.2,0.4-0.4,0.5-0.5c0.5-0.4,0.8-0.9,1.2-1.4c0.1-0.2,0.3-0.3,0.4-0.5l0.2-0.3
		c0.4-0.5,0.9-1.1,1.3-1.7c0.2-0.4,0.3-0.6,0.4-0.8c0.1-0.2,0.2-0.4,0.4-0.8c0.1-0.2,0.3-0.4,0.4-0.6c0.3-0.5,0.6-0.9,0.8-1.5
		c0.2-0.7,0.2-1.4,0.2-2c0-0.2,0-0.3,0-0.4c0-1-0.2-1.8-0.5-2.5c-0.4-0.8-0.9-1.4-1.6-1.9c-0.6-0.5-1.3-1-2.2-1.2
		c-0.7-0.2-1.5-0.2-2.2-0.2l-0.3,0c-0.8,0-1.6,0.1-2.5,0.3c-0.2,0-0.5,0.1-0.7,0.1c-0.6,0.1-1.2,0.2-1.7,0.4
		c-0.9,0.3-1.6,0.7-2.3,1.1c-0.5,0.3-1,0.7-1.4,1.2c-0.2,0.1-0.3,0.3-0.5,0.4c-0.2,0.1-0.3,0.3-0.5,0.4c-0.5,0.4-0.9,0.8-1.4,1.3
		c-0.4,0.5-0.8,1.1-1.1,1.7l-0.3,0.4c-0.3,0.5-0.5,0.8-0.7,1.1c-0.2,0.3-0.3,0.5-0.7,1.1c-0.3,0.5-0.5,0.8-0.7,1.1
		c-0.2,0.3-0.4,0.5-0.7,1.1c-0.3,0.6-0.5,0.9-0.6,1.2c-0.1,0.3-0.3,0.5-0.6,1.1c-0.3,0.5-0.5,0.8-0.7,1c-0.2,0.3-0.4,0.5-0.7,1.1
		c-0.2,0.4-0.4,0.6-0.5,0.8c-0.1,0-0.2,0.1-0.3,0.2c-0.1,0.2-0.1,0.3-0.1,0.5c-0.1,0.2-0.2,0.4-0.4,0.6c-0.1,0.1-0.1,0.2-0.2,0.4
		c-0.1,0.1-0.2,0.2-0.3,0.3c-0.3,0.3-0.6,0.6-0.9,0.8c-0.5,0.5-0.9,0.9-1.4,1.4l-0.4,0.4c-0.3,0.3-0.6,0.7-0.8,1
		c-0.3,0.3-0.5,0.7-0.8,0.9c-0.4,0.3-0.8,0.6-1.2,0.9c-0.3,0.2-0.6,0.4-0.8,0.6c-0.5,0.3-1,0.6-1.4,0.8c-0.3,0.1-0.5,0.2-0.7,0.3
		c-0.8,0.4-1.4,0.4-2.1,0.4c-0.2,0-0.8,0-0.9-0.1c0,0-0.1-0.2-0.1-0.3c0-0.5,0-1.1,0.5-1.9c0.2-0.4,0.4-0.6,0.6-0.7
		c0.2-0.2,0.5-0.4,0.8-1c0.3-0.6,0.4-0.9,0.4-1.3c0-0.3,0.1-0.5,0.3-0.9c0.3-0.5,0.4-0.7,0.6-0.9c0.2-0.2,0.3-0.5,0.6-1
		c0.3-0.4,0.4-0.7,0.6-0.9c0.2-0.2,0.4-0.5,0.7-1c0.3-0.5,0.4-0.7,0.6-0.9c0.2-0.2,0.3-0.5,0.6-1c0.3-0.4,0.4-0.6,0.6-0.8
		c0.2-0.2,0.4-0.5,0.7-1c0.3-0.5,0.4-0.8,0.5-1c0.1-0.2,0.2-0.5,0.5-0.9c0.3-0.5,0.4-0.7,0.6-0.9c0.2-0.2,0.3-0.5,0.6-1
		c0.3-0.5,0.4-1.1,0.4-1.6c0-0.2,0.1-0.5,0.1-0.7c0.1-0.2,0.1-0.4,0.2-0.5c0.2-0.6,0.4-1.1,0.3-1.7c-0.1-0.8-0.5-1.4-0.9-1.9
		l-0.1-0.2c-0.4-0.6-0.9-1.2-1.7-1.6c-0.6-0.3-1.1-0.2-1.7-0.2c-0.4,0-0.8,0-1.2,0c-0.6,0-1.1-0.1-1.8,0.1c-0.7,0.2-1.4,0.4-2.2,0.8
		c-0.4,0.2-0.8,0.6-1.1,0.9c-0.2,0.2-0.5,0.4-0.7,0.6c-0.2,0.2-0.5,0.3-0.8,0.4c-0.4,0.2-0.9,0.4-1.3,0.8c-0.2,0.2-0.5,0.4-0.7,0.6
		c-0.2,0.1-0.3,0.2-0.5,0.4c0-1-0.4-2-0.6-2.3c-0.5-1-1.4-1.6-2.1-2c-0.8-0.5-1.8-0.5-2.7-0.5c0,0,0,0,0,0c-0.6,0-1.1,0.2-1.6,0.3
		c-0.2,0.1-0.4,0.1-0.6,0.2c-0.2,0.1-0.5,0-0.8,0c-0.5,0-1.1-0.1-1.6,0.2c-0.4,0.2-0.7,0.6-1,1c-0.2,0.3-0.4,0.5-0.6,0.7
		c-0.2,0.1-0.5,0.2-0.8,0.3c-0.1,0-0.2,0.1-0.3,0.1c0.1-0.1,0.2-0.2,0.3-0.2c0.5-0.4,1.1-0.9,0.7-2c-0.4-1.1-1.4-0.7-1.9-0.6
		c-0.3,0.1-0.6,0.2-0.9,0.2c-0.5,0-0.8,0-1.1,0c-0.3,0-0.5,0-1,0c-0.3,0-0.6-0.1-0.8-0.1c-0.4-0.1-0.9-0.3-1.7,0.2
		c-0.7,0.4-0.8,0.9-0.9,1.4c0,0.3-0.1,0.5-0.3,0.8c-0.2,0.4-0.4,0.6-0.6,0.8c-0.2,0.2-0.4,0.4-0.7,0.9c-0.3,0.5-0.4,0.8-0.5,1.1
		c-0.1,0.2-0.1,0.5-0.4,0.9c-0.3,0.5-0.4,0.7-0.5,0.9c-0.1,0.2-0.3,0.5-0.5,0.9c-0.3,0.4-0.4,0.7-0.5,0.9c-0.1,0.2-0.2,0.5-0.5,0.9
		c-0.1,0.1-0.1,0.2-0.1,0.3c-0.4,0.5-0.9,0.9-1.6,1.4c-0.7,0.5-1.2,0.9-1.8,1.2c-0.3,0.2-0.7,0.2-1.1,0.3c-0.3,0.1-0.7,0.1-1,0.3
		c-0.4,0.2-0.9,0.3-1.4,0.3c-0.2,0-0.5,0.1-0.7,0.1l-0.3,0.1c-0.4,0.1-0.7,0.2-1,0.2c0.3-0.5,0.5-1.1,0.8-1.7
		c0.1-0.3,0.3-0.5,0.5-0.8c0.3-0.4,0.5-0.8,0.6-1.3c0.1-0.3,0.2-0.6,0.3-0.8c0.2-0.5,0.4-1,0.4-1.5c0.1-1,0-1.8-0.1-2.5
		c-0.1-0.7-0.5-1.3-0.8-1.8c-0.1-0.2-0.2-0.3-0.3-0.5c-0.1-0.2-0.2-0.3-0.2-0.5c-0.3-0.6-0.6-1.2-1.1-1.7c-0.6-0.6-1.4-1.1-2.2-1.4
		c-0.5-0.2-1-0.2-1.5-0.1c-0.4,0-0.7,0.1-1,0c-0.8-0.1-1.5-0.2-2.3-0.2c-0.3,0-0.5,0-0.8,0c-0.6,0-1.2-0.1-1.7,0.1
		c-0.2,0.1-0.4,0.1-0.7,0.2c-0.6,0.1-1.3,0.3-1.8,0.6c-0.6,0.3-1,0.8-1.3,1.2c-0.2,0.2-0.3,0.4-0.5,0.6c-0.6,0.5-1.1,1.2-1.6,2
		c-0.4,0.7-0.9,1.4-1.2,2.2c-0.1,0.2-0.1,0.4-0.2,0.5c-0.2,0.7-0.5,1.3-0.5,2c0,0.3,0.1,0.7,0.2,0.9c0,0-0.1,0-0.1-0.1
		c-0.3-0.1-0.8-0.3-1.5,0.1c-0.8,0.5-0.8,1.1-0.8,1.5c0,0.3,0,0.5-0.2,0.8c-0.2,0.3-0.4,0.4-0.7,0.6c-0.3,0.2-0.7,0.4-1.1,0.9
		c-0.3,0.5-0.4,0.7-0.6,0.9c-0.2,0.2-0.3,0.5-0.6,0.9c-0.3,0.5-0.4,0.8-0.5,1.1c0,0.2-0.1,0.3-0.2,0.5c-0.1,0.1-0.2,0.2-0.2,0.4
		c0,0,0,0,0,0.1c-0.1,0.1-0.1,0.2-0.1,0.3c-0.3,0.3-0.6,0.5-0.9,0.8c-0.3,0.2-0.6,0.5-0.8,0.7c-0.6,0.6-1.2,1.1-1.8,1.7
		c-0.5,0.4-1,0.8-1.5,1.1l-0.5,0.4c-0.2,0.2-0.4,0.3-0.6,0.5c0.1-0.2,0.1-0.4,0.2-0.6c0.1-0.4,0.1-0.9,0.1-1.3c0-0.4,0-0.7,0.1-1
		c0.1-0.3,0.2-0.6,0.3-1c0.1-0.4,0.3-0.8,0.3-1.3l0.4-2.3c0.1-0.4,0.1-0.7,0.1-1.1c0-0.4,0-0.8,0.1-1.2c0.1-0.4,0.2-0.9,0.3-1.3
		c0.1-0.3,0.1-0.6,0.2-0.9c0.1-0.3,0.1-0.6,0.2-0.9c0.1-0.4,0.1-0.9,0.2-1.3c0.1-0.5,0.3-1,0.5-1.5c0.1-0.2,0.2-0.5,0.2-0.7
		c0.1-0.4,0.3-0.8,0.5-1.2c0.1-0.3,0.3-0.6,0.4-0.8c0.1-0.3,0.2-0.5,0.3-0.8c0.1-0.4,0.3-0.8,0.5-1.2l0.2-0.3l-0.3-0.3
		c-0.7-0.7-1.1-0.8-1.5-1c-0.2-0.1-0.5-0.2-0.9-0.4c-0.3-0.2-0.6-0.3-0.8-0.4c-0.5-0.3-0.8-0.4-1.7-0.7l-0.3-0.1l-0.2,0.3
		c-0.2,0.2-0.4,0.4-0.6,0.6c-0.3,0.3-0.6,0.6-0.9,1c-0.2,0.3-0.4,0.6-0.6,0.9c-0.2,0.3-0.4,0.7-0.6,1c-0.2,0.3-0.4,0.5-0.7,0.8
		c-0.3,0.3-0.5,0.6-0.8,0.9c-0.2,0.3-0.4,0.6-0.6,0.8c-0.2,0.3-0.5,0.6-0.7,1c-0.2,0.3-0.5,0.5-0.7,0.8c-0.3,0.3-0.5,0.6-0.8,0.9
		c-0.2,0.3-0.4,0.6-0.6,1c-0.2,0.3-0.4,0.6-0.6,0.9c-0.2,0.3-0.5,0.5-0.7,0.8c-0.3,0.3-0.5,0.5-0.8,0.8c-0.3,0.3-0.5,0.7-0.7,1
		c-0.2,0.3-0.4,0.6-0.6,0.9c-0.2,0.3-0.5,0.5-0.8,0.8c-0.3,0.3-0.5,0.5-0.8,0.8c-0.3,0.3-0.6,0.6-0.9,1c-0.2,0.2-0.5,0.5-0.7,0.7
		l-0.3,0.3l0.1,0.1c0,0.1,0,0.1-0.1,0.2c-0.2,0.3-0.5,0.5-0.9,0.7c-0.3,0.2-0.6,0.4-0.8,0.7c-0.5,0.5-0.9,0.9-1.4,1.3l-0.2,0.2
		c-0.2,0.2-0.5,0.4-0.7,0.6c-0.3,0.3-0.6,0.6-0.9,0.8c-0.3,0.3-0.7,0.5-1.1,0.7c-0.3,0.2-0.5,0.3-0.8,0.5c-0.3,0.2-0.6,0.4-0.8,0.6
		c-0.3,0.3-0.6,0.5-0.9,0.7c-0.5,0.3-1.1,0.5-1.6,0.7l-0.4,0.1c-0.2,0.1-0.4,0.2-0.6,0.3c-0.5,0.2-0.9,0.4-1.4,0.5
		c-0.6,0.1-1.1,0.1-1.7,0.1l-0.4,0c-0.7,0-1.3-0.2-1.9-0.3c-0.7-0.2-1.1-0.5-1.5-0.9c-0.5-0.5-0.7-1-0.7-1.5c0-0.6,0.1-1.2,0.3-1.9
		c0.2-0.5,0.5-1.1,0.9-1.8c0.1-0.2,0.2-0.4,0.2-0.5c0-0.1,0-0.1,0.1-0.1c0.6,0.2,1.4,0.4,2.2,0.5c0.7,0.1,1.3,0,2,0l0.5,0
		c0.8-0.1,1.6-0.2,2.5-0.4l0.5-0.1c0.6-0.1,1.3-0.3,1.9-0.6c0.7-0.3,1.4-0.8,2.1-1.2l0.1-0.1c0.2-0.1,0.4-0.3,0.6-0.4
		c0.5-0.3,1-0.6,1.4-1c0.4-0.4,0.8-0.8,1.1-1.3c0.2-0.2,0.3-0.4,0.5-0.7c0.6-0.7,1-1.4,1.4-2c0.2-0.4,0.3-0.5,0.5-0.7
		c0.1-0.2,0.3-0.4,0.5-0.8c0.5-0.9,0.9-1.6,1.1-2.2c0.3-0.9,0.3-1.8,0.3-2.5c0-1.1-0.2-1.9-0.5-2.5c-0.4-0.7-1-1.2-1.7-1.7l-0.1-0.1
		c-0.7-0.5-1.4-0.8-2.2-1.1l-0.3-0.1c-0.6-0.2-1.4-0.4-2.2-0.4c-0.7,0-1.4,0.1-2.1,0.2l-0.4,0.1c-0.8,0.1-1.6,0.4-2.4,0.7
		c-0.2,0.1-0.4,0.1-0.6,0.2c-0.6,0.2-1.2,0.4-1.7,0.7c-0.6,0.3-1,0.8-1.5,1.2c-0.1,0.1-0.3,0.3-0.4,0.4c-0.1,0.1-0.3,0.2-0.4,0.4
		c-0.5,0.4-1,0.8-1.4,1.3c-0.3,0.4-0.6,0.9-0.9,1.4c-0.1,0.2-0.3,0.5-0.4,0.7c-0.3,0.5-0.5,0.8-0.7,1c-0.2,0.3-0.4,0.5-0.7,1.1
		c-0.3,0.5-0.5,0.8-0.7,1c-0.2,0.3-0.4,0.5-0.7,1.1c-0.3,0.5-0.5,0.8-0.7,1.1c-0.2,0.3-0.3,0.5-0.7,1.1c-0.4,0.6-0.5,0.9-0.6,1.2
		c-0.1,0.3-0.2,0.6-0.5,1.1c-0.3,0.5-0.5,0.8-0.7,1c0,0.1-0.1,0.1-0.1,0.2c-0.2,0.1-0.3,0.2-0.4,0.4c-0.3,0.3-0.7,0.6-1,0.8
		c-0.2,0.2-0.4,0.3-0.6,0.5c-0.2,0.1-0.3,0.3-0.5,0.4c-0.4,0.3-0.8,0.6-1.2,0.9c-0.2,0.1-0.5,0.3-0.7,0.4c-0.4,0.3-0.8,0.5-1.1,0.6
		c-0.6,0.2-1.2,0.3-1.8,0.4l-0.3,0.1c-0.4,0.1-0.8,0.1-1.2,0.1c0.1-0.1,0.2-0.3,0.3-0.4c0.2-0.3,0.3-0.5,0.5-0.8
		c0.4-0.5,0.7-1.1,1-1.6l0.3-0.4c0.4-0.7,0.8-1.4,1.2-2.1c0.3-0.5,0.6-1,0.8-1.6l0.3-0.5c0.2-0.3,0.4-0.6,0.6-0.9
		c0.3-0.4,0.5-0.7,0.7-1.1c0.2-0.4,0.4-0.9,0.6-1.3c0.1-0.3,0.2-0.6,0.4-0.9c0.2-0.4,0.3-0.8,0.5-1.3c0.1-0.3,0.2-0.7,0.4-1
		c0.2-0.4,0.3-0.8,0.5-1.3c0.1-0.3,0.2-0.6,0.4-1c0.1-0.3,0.3-0.6,0.5-0.9c0.2-0.4,0.5-0.7,0.6-1.2c0.2-0.4,0.2-0.8,0.3-1.2
		c0.1-0.3,0.1-0.6,0.3-1l0.2-0.4l-0.4-0.2c-0.9-0.4-1.1-0.4-1.9-0.4l-0.3,0c-0.9,0-1.1,0.1-1.7,0.3l-0.7,0.2l-0.3,0.7
		c-0.2,0.6-0.4,1.1-0.6,1.6c-0.3,0.8-0.6,1.5-0.9,2.2c-0.2,0.5-0.4,0.9-0.6,1.4c-0.1,0.3-0.3,0.5-0.4,0.8c-0.1,0.3-0.3,0.6-0.4,1
		c-0.2,0.4-0.4,0.8-0.6,1.2c-0.2,0.3-0.4,0.7-0.7,1c-0.2,0.3-0.5,0.6-0.7,1c-0.2,0.3-0.3,0.7-0.5,1c-0.2,0.4-0.4,0.8-0.6,1.1
		c-0.2,0.3-0.3,0.6-0.5,0.9c-0.2,0.4-0.4,0.8-0.7,1.2c-0.2,0.4-0.5,0.7-0.8,1c-0.1,0.2-0.3,0.3-0.4,0.5c-0.4-0.1-0.8-0.2-1.3-0.2
		c-1.3,0-2.3,0.4-3,1c-0.8,0.8-0.9,1.9-0.9,3c0,0.7,0,1.4,0.4,2.1c-0.1,0.1-0.3,0.3-0.4,0.4c-0.3,0.3-0.6,0.7-0.9,0.9
		c-0.7,0.5-1.3,0.9-1.9,1.1c-0.6,0.3-1.2,0.3-1.7,0.3l-0.3,0c-0.4,0-0.7-0.1-0.8-0.2c-0.1-0.1-0.1-0.2-0.1-0.4
		c0-0.6,0.2-1.2,0.6-1.8c0.3-0.5,0.5-0.9,0.6-1.1c0.1-0.3,0.2-0.5,0.5-1c0.3-0.5,0.5-0.6,0.7-0.9c0.2-0.2,0.5-0.5,0.8-1
		c0.3-0.5,0.5-0.7,0.6-1c0.2-0.3,0.4-0.5,0.7-1c0.3-0.5,0.5-0.8,0.6-1c0.2-0.3,0.3-0.5,0.6-1l1.2-2c0.3-0.6,0.4-0.9,0.5-1.2
		c0.1-0.3,0.2-0.5,0.4-1c0.3-0.5,0.5-0.7,0.6-1c0.2-0.3,0.4-0.5,0.7-1c0.3-0.5,0.5-0.7,0.6-0.9c0.2-0.2,0.4-0.5,0.7-1
		c0.3-0.5,0.5-0.8,0.6-1.1c0.1-0.3,0.2-0.5,0.5-1c0.3-0.5,0.5-0.8,0.6-1.1c0.1-0.3,0.3-0.5,0.6-1c0.2-0.3,0.4-0.5,0.6-0.6
		c0.4-0.3,1-0.7,0.5-1.7c-0.1-0.2-0.3-0.5-0.6-0.7c-0.4-0.1-0.7,0-1,0.1c-0.2,0.1-0.5,0.2-0.8,0.2c-0.5,0-0.8,0-1,0
		c-0.3,0-0.5,0-1.1,0c-0.3,0-0.5-0.1-0.8-0.1c-0.4-0.1-0.9-0.2-1.6,0.2c-0.8,0.4-0.9,0.9-1,1.3c-0.1,0.2-0.1,0.5-0.3,0.8
		c-0.3,0.5-0.4,0.7-0.6,1c-0.1,0.2-0.3,0.5-0.6,0.9l-1.1,1.9c-0.3,0.5-0.4,0.8-0.6,1c-0.1,0.2-0.2,0.5-0.5,0.9
		c-0.3,0.4-0.4,0.6-0.6,0.8c-0.2,0.2-0.4,0.5-0.7,1c-0.3,0.5-0.4,0.7-0.6,0.9s-0.3,0.5-0.6,0.9c-0.3,0.5-0.4,0.8-0.5,1
		c-0.1,0.2-0.2,0.5-0.5,0.9c-0.3,0.5-0.4,0.7-0.6,0.9c-0.2,0.2-0.3,0.5-0.6,0.9c-0.3,0.4-0.4,0.6-0.6,0.8c-0.2,0.2-0.4,0.5-0.7,0.9
		c-0.3,0.4-0.6,0.8-0.8,1.1c-0.2,0.2-0.4,0.5-0.6,0.7c-0.3,0.4-0.4,0.7-0.6,1.1c-0.2,0.4-0.3,0.7-0.5,0.9c-0.3,0.3-0.6,0.6-1,0.8
		c-0.3,0.2-0.6,0.4-0.9,0.7c-0.6,0.5-1.1,1.1-1.6,1.4l-0.3,0.2c-0.6,0.4-1,0.8-1.5,1c-0.6,0.3-1.4,0.6-2.1,0.6
		c-0.3,0-0.5-0.1-0.6-0.2c-0.2-0.2-0.2-0.4-0.2-0.7c0-0.5,0.1-1,0.5-1.8c0.3-0.5,0.5-0.7,0.6-0.9c0.2-0.2,0.4-0.5,0.7-1
		c0.3-0.6,0.4-0.9,0.5-1.3c0.1-0.3,0.1-0.5,0.4-1c0.3-0.5,0.5-0.7,0.6-0.9c0.2-0.2,0.4-0.5,0.7-1c0.3-0.5,0.5-0.8,0.6-1.1
		c0.1-0.3,0.2-0.5,0.5-1c0.3-0.5,0.5-0.7,0.6-1c0.2-0.3,0.3-0.5,0.7-1c0.3-0.5,0.5-0.7,0.6-1c0.2-0.3,0.3-0.5,0.6-1
		c0.3-0.5,0.5-0.7,0.6-1c0.2-0.3,0.3-0.5,0.7-1c0.3-0.5,0.4-0.9,0.6-1.1c0.1-0.3,0.2-0.5,0.5-1c0.3-0.5,0.5-0.7,0.7-0.9
		c0.2-0.2,0.4-0.5,0.8-1c0.3-0.5,0.5-0.7,0.6-1c0.2-0.2,0.4-0.5,0.7-1c0.2-0.3,0.4-0.5,0.6-0.7c0.4-0.4,0.9-0.8,0.5-1.8
		c-0.4-1-1.2-0.8-1.7-0.6c-0.2,0.1-0.5,0.2-0.8,0.2c-0.5,0-0.7,0-1-0.1c-0.3,0-0.6-0.1-1.1-0.1c-0.3,0-0.6-0.1-0.8-0.1
		c-0.5-0.1-0.9-0.2-1.7,0.2c-0.8,0.4-0.9,1-1,1.4c-0.1,0.3-0.1,0.5-0.3,0.8c-0.3,0.5-0.4,0.7-0.6,0.9c-0.2,0.2-0.3,0.5-0.6,1
		c-0.3,0.5-0.4,0.7-0.6,0.9c-0.2,0.2-0.3,0.5-0.6,1c-0.3,0.5-0.4,0.9-0.5,1.2c-0.1,0.3-0.1,0.5-0.4,0.9c-0.3,0.4-0.4,0.6-0.6,0.8
		c-0.2,0.2-0.5,0.4-0.8,1c-0.3,0.5-0.4,0.8-0.5,1.1c-0.1,0.3-0.2,0.5-0.4,0.9c-0.3,0.4-0.4,0.7-0.6,0.9c-0.2,0.2-0.4,0.5-0.7,1
		c-0.3,0.5-0.4,0.8-0.6,1c-0.1,0.2-0.2,0.5-0.5,0.9c-0.3,0.4-0.4,0.6-0.6,0.8c-0.4,0.1-0.4,0.4-0.5,0.6c0,0,0,0,0,0
		c0,0,0,0.1-0.1,0.1c-0.2,0.2-0.5,0.4-0.7,0.6c-0.3,0.2-0.6,0.5-0.9,0.7c-0.3,0.3-0.5,0.7-0.7,1.1c-0.2,0.3-0.3,0.6-0.5,0.8
		l-0.4,0.4c-0.4,0.4-0.8,0.8-1.2,1.2c-0.3,0.3-0.6,0.4-0.9,0.6c-0.3,0.2-0.6,0.4-0.9,0.6c-0.7,0.6-1.2,1-1.7,1.4
		c-0.6,0.5-1.3,1-1.6,1c-0.2,0-0.3,0-0.3-0.1c-0.1-0.1-0.1-0.3,0-0.6c0-0.1,0.1-0.3,0.3-0.5c0.2-0.3,0.4-0.6,0.6-1l0.8-2.2
		c0.2-0.6,0.2-1,0.3-1.3c0-0.3,0-0.5,0.2-1c0.2-0.5,0.3-0.7,0.5-0.9c0.2-0.3,0.4-0.5,0.6-1.1c0.2-0.5,0.3-0.8,0.4-1
		c0.1-0.3,0.2-0.5,0.4-1.1l0.8-2.2c0.2-0.6,0.2-1,0.2-1.4c0-0.3,0-0.5,0.1-1c0.2-0.5,0.3-0.8,0.4-1c0.1-0.3,0.3-0.5,0.5-1.1
		c0.2-0.5,0.3-0.7,0.5-0.9c0.2-0.3,0.4-0.5,0.6-1.2c0.2-0.5,0.3-0.8,0.4-1.1c0.1-0.3,0.2-0.5,0.4-1.1c0.2-0.6,0.2-1,0.2-1.3
		c0-0.3,0-0.5,0.2-1c0.2-0.5,0.3-0.8,0.4-1c0.1-0.3,0.3-0.5,0.5-1.1c0.2-0.6,0.3-0.9,0.3-1.2c0-0.3,0.1-0.5,0.2-1l0.8-2.2
		c0.2-0.5,0.3-0.6,0.5-0.9c0.2-0.3,0.4-0.5,0.7-1.2c0.2-0.6,0.2-1,0.2-1.3c0-0.3,0-0.5,0.2-1c0.1-0.4,0.3-0.5,0.5-0.7
		c0.3-0.3,0.6-0.6,0.6-1.5l0-0.4l-0.4-0.1c-0.7-0.2-1.3-0.2-2-0.1c-0.2,0-0.4,0-0.5,0c-0.9,0-1.6,0.1-2.4,0.4
		c-0.7,0.2-1.4,0.6-2.2,1l-0.5,0.2c-0.5,0.3-1.1,0.5-1.6,0.9c-0.4,0.3-0.8,0.7-1.2,1c-0.2,0.2-0.4,0.3-0.6,0.5
		c-0.2,0.2-0.5,0.3-0.8,0.5c-0.4,0.2-0.9,0.4-1.2,0.8c-0.3,0.3-0.6,0.7-0.9,1c-0.2,0.3-0.4,0.5-0.7,0.8l-0.5,0.5
		c-0.4,0.4-0.8,0.8-1.2,1.2c-0.3,0.3-0.5,0.7-0.8,1c-0.2,0.3-0.4,0.6-0.6,0.9c-0.2,0.3-0.5,0.5-0.7,0.8c-0.3,0.3-0.6,0.6-0.9,0.9
		c-0.3,0.3-0.5,0.7-0.7,1c-0.2,0.3-0.4,0.6-0.6,0.9c-0.2,0.3-0.5,0.6-0.7,0.8c-0.3,0.3-0.6,0.6-0.8,0.9c-0.2,0.3-0.5,0.6-0.7,1
		c-0.2,0.3-0.4,0.6-0.7,0.9c-0.2,0.3-0.5,0.6-0.8,0.9c-0.3,0.3-0.5,0.6-0.8,0.9c-0.3,0.3-0.5,0.7-0.7,1c-0.2,0.3-0.4,0.6-0.6,0.9
		c-0.2,0.2-0.5,0.4-0.8,0.7c-0.4,0.2-0.7,0.5-1,0.8c-0.3,0.4-0.5,0.8-0.6,1.2c-0.1,0.4-0.3,0.7-0.5,0.9c-0.3,0.3-0.6,0.6-0.9,1
		c-0.2,0.2-0.5,0.5-0.7,0.7c-0.3,0.3-0.6,0.5-0.9,0.8c-0.3,0.2-0.6,0.5-0.9,0.8c-0.3,0.3-0.6,0.6-0.9,0.8c-0.3,0.2-0.5,0.4-0.8,0.7
		c-0.3,0.3-0.6,0.7-0.8,1c-0.2,0.3-0.4,0.6-0.7,0.8c-0.3,0.2-0.6,0.4-1,0.6c-0.3,0.2-0.7,0.3-1,0.6c-0.3,0.2-0.6,0.5-0.8,0.7
		c-0.3,0.3-0.6,0.6-0.9,0.8c-0.4,0.2-0.8,0.4-1.3,0.5c-0.3,0.1-0.6,0.2-0.8,0.3c-0.3,0.1-0.6,0.3-0.9,0.4c-0.4,0.2-0.8,0.4-1.2,0.5
		c-0.7,0.2-1.5,0.2-2.2,0.2l-0.4,0c-0.7,0-1.3,0-1.8-0.1c-0.5-0.1-0.9-0.3-1.3-0.5c-0.2-0.1-0.5-0.2-0.7-0.3l-0.5-0.2
		c-0.6-0.2-1.1-0.4-1.5-0.7c-0.6-0.5-1.1-1-1.5-1.6c-0.4-0.6-0.9-1.2-1.1-1.9c-0.1-0.4-0.1-0.8-0.1-1.3c0-0.3,0-0.6,0-1
		c0-0.3-0.1-0.5-0.1-0.8c-0.1-0.5-0.2-1-0.1-1.4c0-0.3,0.2-0.7,0.4-1.1c0.2-0.3,0.3-0.7,0.4-1c0.1-0.3,0.1-0.5,0.2-0.8
		c0.1-0.5,0.2-0.9,0.4-1.3c0.2-0.5,0.5-0.9,0.8-1.4l0.3-0.5c0.3-0.6,0.7-1.1,1.3-1.8c0.2-0.3,0.4-0.6,0.6-0.9
		c0.2-0.4,0.4-0.7,0.6-0.9l0.4-0.4c0.4-0.4,0.8-0.8,1.3-1.1c0.3-0.2,0.7-0.4,1.2-0.5c0.3-0.1,0.6-0.2,0.9-0.3
		c0.3-0.1,0.5-0.2,0.7-0.4c0.4-0.2,0.8-0.4,1.2-0.5c0.4-0.1,0.8,0,1.2,0.1c0.3,0.1,0.6,0.1,1,0.1l0.4,0c0.6,0,1.1,0,1.6,0.2
		c0.7,0.2,1.3,0.4,1.9,0.8c0.6,0.4,1.1,0.9,1.5,1.4c0.4,0.5,0.8,1.2,1.1,1.9l0.1,0.3l0.4,0c0.9-0.1,1.3-0.3,1.7-0.6
		c0.2-0.2,0.5-0.4,0.9-0.5c0.5-0.2,0.8-0.2,1.1-0.2c0.5,0,1,0,1.7-0.5l0.3-0.2l-0.2-0.4c-0.2-0.5-0.7-1.1-1-1.6
		c-0.2-0.2-0.3-0.4-0.4-0.6c-0.4-0.6-0.9-1.1-1.3-1.5l-0.2-0.2c-0.2-0.2-0.3-0.4-0.5-0.6c-0.3-0.4-0.7-0.8-1.1-1.1
		c-0.6-0.4-1.2-0.8-2-1.1c-0.3-0.1-0.5-0.3-0.7-0.4c-0.4-0.3-0.9-0.5-1.4-0.7c-0.5-0.1-1-0.1-1.5,0c-0.3,0-0.6,0.1-0.9,0.1
		c-0.3,0-0.5-0.1-0.8-0.1c-0.5-0.1-1-0.2-1.5-0.2c-0.5,0-1,0.1-1.5,0.3c-0.3,0.1-0.5,0.1-0.8,0.2c-0.2,0-0.4,0.1-0.7,0.1
		c-0.5,0.1-1.1,0.2-1.6,0.3c-0.3,0.1-0.6,0.1-0.9,0.2c-0.5,0.1-1,0.1-1.4,0.4c-0.5,0.2-0.8,0.6-1.1,0.9c-0.2,0.2-0.5,0.5-0.7,0.6
		c-0.2,0.1-0.5,0.2-0.9,0.3c-0.4,0.1-0.9,0.3-1.3,0.6c-0.5,0.4-1,0.9-1.5,1.4l-0.2,0.2c-0.6,0.6-1.1,1.2-1.6,1.8
		c-0.3,0.4-0.5,0.8-0.6,1.3c-0.1,0.3-0.2,0.6-0.4,0.9c-0.2,0.3-0.4,0.5-0.5,0.8c-0.3,0.4-0.6,0.7-0.8,1.2c-0.4,0.8-0.7,1.5-0.9,2.2
		c-0.1,0.3-0.2,0.6-0.4,0.8c-0.2,0.4-0.4,0.9-0.5,1.4c-0.1,0.5-0.2,1.1-0.2,1.6c0,0.3,0,0.5-0.1,0.7c-0.1,0.5,0,1,0.1,1.5
		c0.1,0.3,0.1,0.6,0.1,0.9c0,0.7,0.1,1.5,0.2,2.3c0.2,0.9,0.3,1.6,0.6,2.3c0.3,0.8,0.6,1.5,0.9,2.1c0.1,0.2,0.2,0.5,0.3,0.8
		c0.2,0.5,0.3,1,0.7,1.4c0.3,0.4,0.8,0.7,1.2,1c0.2,0.2,0.4,0.3,0.7,0.5c0.2,0.1,0.3,0.3,0.5,0.4c0.4,0.4,0.8,0.8,1.3,1.1
		c0.4,0.3,0.9,0.4,1.4,0.5c0.3,0.1,0.6,0.1,0.9,0.2c0.3,0.1,0.5,0.2,0.7,0.4c0.4,0.2,0.9,0.5,1.4,0.6c0.7,0.2,1.4,0.3,2.1,0.3l0.2,0
		c0.5,0.1,1,0,1.4-0.1c0.6-0.1,1.2-0.1,1.8,0.1c0.4,0.1,0.8,0.2,1.1,0.2c0.1,0,0.2,0,0.3,0c0.6-0.1,1.1-0.2,1.6-0.4
		c0.2-0.1,0.4-0.1,0.7-0.2c0.7-0.2,1.4-0.4,2.2-0.8c0.5-0.2,1-0.5,1.5-0.8c0.2-0.1,0.4-0.2,0.6-0.3c0.2-0.1,0.5-0.2,0.7-0.4
		c0.4-0.2,0.9-0.4,1.3-0.7c0.4-0.3,0.7-0.6,1.1-0.9c0.2-0.2,0.5-0.4,0.7-0.6c0.4-0.3,0.7-0.6,1-0.9c0.2-0.2,0.4-0.5,0.7-0.7
		c0.2-0.2,0.5-0.4,0.7-0.6c0.4-0.3,0.7-0.6,1.1-0.9l0.5-0.5c0.4-0.4,0.8-0.7,1.1-1.1c0.2-0.2,0.5-0.4,0.8-0.6c0.3-0.3,0.7-0.5,1-0.9
		c0.3-0.3,0.5-0.7,0.7-1.1c0.2-0.3,0.3-0.6,0.5-0.9c0.2-0.2,0.4-0.4,0.7-0.6c0.3-0.2,0.5-0.4,0.8-0.7c0.4-0.1,0.5,0,0.8,0
		c0.2,0,0.5,0.1,1,0.1c0.6,0,0.9-0.1,1.2-0.1c0.3-0.1,0.5-0.1,1-0.1c0.5,0,0.7,0,1,0.1c0.3,0.1,0.6,0.1,1.1,0.1c0.6,0,1-0.3,1.4-0.5
		c0.1-0.1,0.4-0.2,0.4-0.2c0,0,0,0,0.1,0.1c0.2,0.3,0.2,0.3-0.2,0.7c-0.2,0.3-0.5,0.6-0.6,1c-0.2,0.4-0.3,0.6-0.5,0.8
		c-0.2,0.2-0.5,0.5-0.7,1.1c-0.2,0.6-0.3,0.9-0.3,1.1c0,0.3-0.1,0.5-0.3,1c-0.2,0.5-0.3,1.1-0.4,1.6c0,0.2-0.1,0.4-0.1,0.7
		c-0.2,0.9-0.2,1.6-0.2,2.3c0,0.2,0,0.5,0,0.7c0,0.6-0.1,1.2,0.2,1.8c0.4,0.7,1.1,1.1,1.7,1.4l0.3,0.1c0.6,0.3,1.3,0.6,2.3,0.6
		c0.7,0,1.4-0.2,2.1-0.5l0.3-0.1c0.2-0.1,0.5-0.1,0.7-0.2c0.5-0.1,1.1-0.2,1.6-0.6c0.4-0.2,0.8-0.6,1.1-0.9c0.2-0.3,0.5-0.5,0.7-0.7
		c0.2-0.2,0.5-0.3,0.7-0.5c0.2-0.1,0.4-0.3,0.7-0.5c0.2,0.8,0.6,1.5,1.1,2.2c0.6,0.6,1.3,1.3,2.2,1.6c0.7,0.3,1.6,0.3,2.5,0.3h0.1
		c0.7,0,1.5-0.1,2.5-0.4c0.8-0.2,1.6-0.5,2.3-0.9c0.6-0.3,1.3-0.7,2.1-1.2c0.2-0.1,0.4-0.3,0.6-0.4c0.2-0.1,0.5-0.3,0.7-0.4
		c0.2,0.5,0.6,0.8,0.9,1.2l0.2,0.2c0.5,0.6,1.1,1.3,2.1,1.6c0.8,0.3,1.7,0.4,2.6,0.4c0.5,0,1-0.1,1.4-0.3c0.3-0.1,0.5-0.2,0.8-0.2
		c0.2,0,0.4-0.1,0.5-0.1c0.5-0.1,1.1-0.2,1.7-0.3l0.5-0.1c0.5-0.2,1.1-0.3,1.7-0.6l0.3-0.1c0.6-0.3,1.1-0.6,1.7-0.9
		c0.4-0.3,0.8-0.6,1.2-0.9c0.2-0.2,0.4-0.3,0.6-0.5c0.2-0.2,0.5-0.3,0.7-0.5c0.3-0.2,0.6-0.4,0.9-0.6c0.4,0,0.8,0,1.2,0
		c0.3,0,0.5,0,0.8,0h0.1c0.7,0,1.5,0,2.4-0.2c0.6-0.1,1.3-0.3,2-0.5l0.4-0.1c0.6-0.2,1.1-0.4,1.7-0.7c0.2-0.1,0.4-0.2,0.6-0.3
		c0.3-0.1,0.5-0.2,0.8-0.4c0,0.4,0,0.8,0.1,1.2c0.2,0.9,0.4,1.7,0.7,2.3c0.4,0.7,1,1.3,1.6,1.8c0.6,0.5,1.3,0.9,2,1.3l0.2,0.1
		c0.6,0.3,1.2,0.6,2,0.7l0.3,0.1c0.6,0.1,1.3,0.2,2,0.2c0.7,0,1.5-0.1,2.4-0.2c0.5-0.1,1-0.3,1.4-0.4c0.3-0.1,0.5-0.2,0.8-0.3
		c0.2-0.1,0.5-0.1,0.7-0.2c0.5-0.1,1-0.3,1.6-0.5c0.7-0.3,1.5-0.6,2.1-1l0.5-0.3c0.5-0.3,1-0.5,1.5-0.8c0.4-0.3,0.8-0.6,1.1-0.9
		c0.2-0.2,0.5-0.4,0.7-0.6c0.3-0.2,0.5-0.4,0.8-0.5c0,0,0.1-0.1,0.1-0.1c-0.2,0.2-0.3,0.5-0.3,0.8c0,0.4,0.4,0.7,0.7,1
		c0.2,0.2,0.5,0.4,0.8,0.7c0.4,0.5,0.9,1.2,1.7,1.8c0.7,0.5,1.5,0.7,2.2,0.9c0.2,0,0.3,0.1,0.5,0.2c0.5,0.2,1.1,0.4,1.8,0.4
		c0.4,0,0.8-0.1,1.1-0.1c0.2,0,0.4-0.1,0.6-0.1c0.2,0,0.3-0.1,0.4-0.1c0.2,0,0.4,0,0.6-0.1c0.5,0,1.1-0.1,1.7-0.2
		c0.6-0.1,1.1-0.4,1.6-0.6c0.2-0.1,0.4-0.2,0.6-0.3c0.3-0.1,0.5-0.2,0.8-0.3c0.5-0.2,1-0.3,1.5-0.6c0.4-0.2,0.8-0.5,1.2-0.8
		c0.2-0.2,0.5-0.4,0.8-0.5l0.4-0.2c0.5-0.3,1.1-0.7,1.6-1.1c0.4-0.3,0.8-0.6,1.1-0.9c0.1-0.1,0.2-0.2,0.3-0.2c0,0.6,0.1,1.2,0.3,1.7
		c0.2,0.7,0.6,1.1,1.1,1.6c0.1,0.1,0.2,0.2,0.3,0.3c0.5,0.5,1,1,1.8,1.4c0.2,0.1,0.4,0.3,0.6,0.5c0.4,0.3,0.8,0.7,1.4,0.9
		c0.7,0.2,1.6,0.2,2.3,0.2c0.5,0,1-0.2,1.4-0.4c0.3-0.1,0.6-0.2,0.8-0.3c0.2,0,0.4-0.1,0.6-0.1c0.5-0.1,1-0.1,1.6-0.3
		c0.2-0.1,0.4-0.2,0.7-0.2c0.5-0.1,1-0.3,1.4-0.6l0.4-0.2c0.5-0.3,1.1-0.6,1.6-1c0.4-0.3,0.7-0.7,1-1c0.2-0.2,0.4-0.4,0.5-0.6
		c0.3-0.3,0.6-0.7,0.8-1.1c0.1-0.3,0.3-0.5,0.5-0.7c0.2-0.2,0.4-0.4,0.6-0.6c0.3-0.3,0.7-0.6,0.9-1.1c0.3-0.5,0.5-0.8,0.8-1
		c0.3-0.3,0.5-0.6,0.9-1.2c0.3-0.5,0.4-0.8,0.5-1.1c0.1-0.3,0.2-0.5,0.6-1c0.5,0,0.9-0.1,1.3-0.2c0.3-0.1,0.6-0.1,1-0.2
		c0.9-0.1,1.7-0.2,2.6-0.4c0.3-0.1,0.6-0.2,0.9-0.3c-0.1,0.1-0.2,0.2-0.3,0.4c-0.3,0.6-0.4,1-0.4,1.3c0,0.3,0,0.5-0.3,0.9l-1.1,1.9
		c-0.3,0.4-0.4,0.6-0.6,0.8c-0.2,0.2-0.4,0.4-0.8,1c-0.2,0.4-0.4,0.6-0.6,0.7c-0.2,0.2-0.5,0.4-0.8,1c-0.3,0.5-0.4,0.8-0.5,1.1
		c-0.1,0.3-0.2,0.5-0.4,0.9c-0.2,0.3-0.4,0.4-0.6,0.6c-0.4,0.3-1.1,0.8-0.6,1.8c0.5,1,1.3,0.6,1.8,0.4c0.3-0.1,0.5-0.2,0.9-0.2
		c0.5,0,0.8,0,1.1,0c0.3,0,0.5,0,1,0c0.3,0,0.5,0.1,0.8,0.1c0.5,0.2,0.9,0.3,1.6-0.2c0.9-0.5,1.1-0.8,1.5-1.5
		c0.1-0.1,0.2-0.3,0.3-0.5c0.4-0.6,0.4-1.1,0.4-1.4c0-0.3,0-0.5,0.2-0.9c0.3-0.5,0.5-0.7,0.6-1c0.2-0.2,0.3-0.5,0.6-1
		c0.3-0.4,0.5-0.6,0.7-0.8c0.3-0.2,0.5-0.5,0.9-1c0.3-0.6,0.4-0.9,0.5-1.2c0.1-0.3,0.2-0.5,0.4-1c0.2-0.4,0.4-0.6,0.5-0.8
		c0.2-0.3,0.3-0.6,0.7-1.2c0.2-0.3,0.5-0.6,0.7-1c0.2-0.3,0.4-0.7,0.7-1c0.2-0.3,0.5-0.4,0.9-0.6c0.4-0.2,0.8-0.4,1.1-0.8
		c0.3-0.4,0.5-0.8,0.7-1.2c0.1-0.3,0.3-0.7,0.5-0.9c0.2-0.3,0.6-0.5,0.9-0.7c0.3-0.2,0.7-0.4,0.9-0.7c0.6-0.6,1.1-1.1,1.6-1.6
		c0.3-0.3,0.6-0.6,0.8-1c0.2-0.3,0.5-0.6,0.7-0.8c0.7-0.6,1.3-1,1.8-1.3c0.5-0.3,1.1-0.4,1.6-0.5c0.2,0,0.4,0,0.5-0.1
		c0.6-0.1,1-0.1,1.1,0c0,0,0.1,0.1,0.1,0.3c0,0.3-0.3,0.7-0.6,1.1c-0.2,0.2-0.3,0.5-0.5,0.7c-0.3,0.5-0.4,0.7-0.6,0.9
		c-0.2,0.2-0.3,0.5-0.6,1l-2.4,3.9c-0.3,0.6-0.4,0.9-0.5,1.2c-0.1,0.3-0.1,0.5-0.4,0.9c-0.3,0.5-0.4,0.8-0.6,1.1
		c-0.1,0.3-0.2,0.5-0.5,1c-0.3,0.5-0.4,0.7-0.6,0.9c-0.2,0.2-0.3,0.5-0.6,1c-0.3,0.4-0.4,0.6-0.6,0.8c-0.2,0.2-0.4,0.5-0.8,1
		c-0.3,0.4-0.4,0.6-0.6,0.8c-0.2,0.2-0.5,0.5-0.8,1c-0.3,0.5-0.4,0.7-0.6,0.9c-0.2,0.2-0.4,0.5-0.7,1c-0.3,0.6-0.4,1-0.5,1.3
		c0,0.3-0.1,0.5-0.3,0.9c-0.2,0.3-0.4,0.5-0.7,0.6c-0.4,0.3-1,0.7-0.6,1.7c0.5,1,1.2,0.8,1.7,0.6c0.2-0.1,0.5-0.2,0.8-0.2
		c0.6,0,0.9-0.1,1.2-0.2c0.3-0.1,0.5-0.1,0.9-0.1c0.3,0,0.6,0.1,0.8,0.3c0.4,0.3,1,0.6,1.8,0.1c0.8-0.5,0.9-1,1-1.5
		c0.1-0.3,0.1-0.5,0.3-0.9c0.3-0.6,0.4-0.9,0.5-1.3c0.1-0.3,0.1-0.5,0.3-0.9c0.2-0.4,0.4-0.5,0.7-0.7c0.3-0.2,0.6-0.4,1-1
		c0.3-0.5,0.4-0.8,0.5-1.1c0.1-0.3,0.2-0.5,0.5-1c0.4-0.6,0.4-1,0.4-1.3c0-0.3,0.1-0.5,0.3-0.9c0.2-0.4,0.4-0.5,0.7-0.6
		c0.3-0.2,0.7-0.4,1.1-0.9c0.2-0.3,0.4-0.6,0.6-0.8c0.3-0.4,0.5-0.7,0.8-1.1c0.3-0.4,0.5-0.9,0.6-1.3c0.1-0.4,0.2-0.7,0.4-0.9
		c0.2-0.3,0.6-0.4,0.9-0.6c0.4-0.2,0.8-0.4,1.1-0.7c0.3-0.4,0.5-0.8,0.7-1.3c0.1-0.4,0.3-0.7,0.5-0.9l0.5-0.5
		c0.4-0.4,0.8-0.8,1.2-1.2c0.3-0.3,0.7-0.6,1.1-0.8c0.3-0.2,0.5-0.4,0.8-0.6c0.5-0.4,1.1-0.8,1.6-1.1l0.3-0.2c0.8-0.5,1.5-0.8,2-0.9
		c0.4-0.1,0.7-0.1,0.8,0c0.1,0.1,0.1,0.3,0.1,0.5l0,0.2c0,0.5,0,1.2-0.4,1.9c-0.3,0.5-0.4,0.7-0.6,0.9c-0.2,0.2-0.3,0.5-0.6,1
		c-0.3,0.4-0.4,0.6-0.6,0.8c-0.2,0.2-0.5,0.4-0.8,1c-0.3,0.5-0.4,0.7-0.6,0.9c-0.2,0.2-0.3,0.5-0.6,1c-0.3,0.5-0.4,0.7-0.6,0.9
		c-0.2,0.2-0.3,0.5-0.6,1c-0.3,0.6-0.4,1-0.4,1.3c0,0.3-0.1,0.5-0.3,0.9c-0.3,0.5-0.4,0.8-0.6,1c-0.1,0.2-0.2,0.5-0.5,1
		c-0.3,0.4-0.4,0.6-0.6,0.8c-0.2,0.2-0.5,0.4-0.8,1c-0.4,0.6-0.5,1.3-0.6,1.8c0,0.2-0.1,0.4-0.1,0.6c-0.1,0.3-0.2,0.6-0.4,0.9
		c-0.3,0.6-0.5,1.1-0.4,1.7c0.1,0.9,0.6,1.9,1.2,2.6c0.7,0.8,1.8,1.2,2.4,1.5c0.5,0.2,1.1,0.1,1.6-0.1c0.6-0.1,1.1-0.2,1.8-0.1
		c0.5,0.1,1,0.2,1.6,0c0.2-0.1,0.5-0.1,0.8-0.1c0.5-0.1,1-0.1,1.5-0.4c0.4-0.2,0.8-0.5,1.2-0.8c0.2-0.2,0.5-0.4,0.8-0.5
		c0.2-0.1,0.5-0.3,0.8-0.4c0.4-0.2,0.9-0.4,1.3-0.7c0.4-0.3,0.6-0.7,0.8-1.1c0.2-0.3,0.3-0.6,0.5-0.8c0.2-0.2,0.5-0.4,0.8-0.6
		c0.2-0.1,0.4-0.3,0.6-0.4c0.1,0.7,0.5,1.3,0.8,1.8l0.2,0.3c0.1,0.1,0.1,0.3,0.2,0.4c0.3,0.6,0.6,1.1,1.2,1.6
		c0.6,0.5,1.2,0.9,2.1,1.2c0.8,0.3,1.6,0.5,2.3,0.6c0.5,0.1,1.1,0.1,1.6,0.1c0.5,0,1,0,1.6,0.1c0.3,0,0.6,0.1,1,0.1
		c0.2,0,0.4,0,0.5,0c0.8-0.1,1.6-0.3,2.3-0.5c0.5-0.1,0.9-0.4,1.4-0.6c0.3-0.1,0.5-0.3,0.8-0.4c0.2-0.1,0.4-0.2,0.7-0.3
		c0.5-0.2,1-0.4,1.5-0.6c0.7-0.4,1.4-0.8,2-1.2c0.4-0.3,0.8-0.6,1.1-0.9c0.2-0.2,0.5-0.4,0.7-0.6c0.2-0.2,0.5-0.3,0.7-0.5
		c0.4-0.3,0.8-0.6,1.2-0.9c0.5-0.4,1-0.9,1.5-1.3l0.2-0.2c0.2-0.2,0.5-0.4,0.8-0.6c0.3-0.3,0.7-0.5,1-0.9c0.3-0.3,0.7-0.7,1-1.1
		c0.2-0.2,0.4-0.5,0.6-0.7l0.2-0.3l-0.2-0.3C634.7,341.9,633.5,340.8,632.6,340.4z M617.5,338.2c0.2-0.2,0.4-0.4,0.7-0.8
		c0.5-0.6,0.6-1,0.8-1.3c0.1-0.3,0.2-0.5,0.5-1c0.3-0.6,0.5-0.9,0.7-1.2c0.1-0.3,0.3-0.6,0.6-1.1c0.3-0.5,0.7-0.8,1-1.2
		c0.1-0.1,0.3-0.3,0.4-0.4c0.5-0.5,1-0.9,1.7-1.3l0.1-0.1c0.7-0.4,1.3-0.7,1.8-0.8c0.6,0,1.1,0.3,1.4,0.8c0.3,0.5,0.3,1.1,0.1,1.8
		c-0.2,0.5-0.5,1.1-0.9,1.8l-0.1,0.1c-0.2,0.4-0.3,0.6-0.4,0.8c-0.1,0.2-0.2,0.4-0.4,0.7c-0.3,0.5-0.7,1-1.1,1.4l-0.5,0.5
		c-0.4,0.5-0.8,0.9-1.3,1.2c-0.6,0.4-1.2,0.6-1.9,0.8c-0.6,0.2-1.3,0.2-2.1,0.2c-0.6,0-1.2-0.1-1.6-0.2
		C617.1,338.6,617.2,338.5,617.5,338.2z M500,337.6l0.2-0.3c0.3-0.4,0.5-0.7,0.7-0.9c0.3-0.3,0.5-0.6,0.9-1.3
		c0.3-0.6,0.5-0.9,0.7-1.1c0.2-0.3,0.3-0.5,0.7-1.1l0.2-0.3c0.3-0.6,0.7-1.1,1-1.5c0.5-0.5,1-0.8,1.5-1.1l0.4-0.2
		c0.6-0.4,1.2-0.7,1.6-0.7c0.7,0,1.2,0.2,1.5,0.7c0.2,0.3,0.4,1,0.1,1.9c-0.1,0.4-0.4,0.9-0.7,1.4l-0.3,0.5
		c-0.2,0.4-0.3,0.5-0.5,0.7c-0.1,0.2-0.3,0.4-0.5,0.8c-0.4,0.6-0.8,1.2-1.3,1.7l-0.1,0.1c-0.5,0.5-0.9,1-1.4,1.3
		c-0.6,0.4-1.3,0.7-1.9,0.9c-0.6,0.2-1.3,0.2-2.1,0.2c-0.5,0-1-0.1-1.5-0.2C499.4,338.4,499.5,338.2,500,337.6z M439.7,332.2
		c-0.2,0.5-0.3,0.8-0.4,1.1c-0.1,0.3-0.2,0.5-0.4,1.1c-0.2,0.5-0.2,0.8-0.2,1.1c0,0.4,0,0.5-0.4,0.8c-0.5,0.3-0.7,0.3-1.2,0.2
		c-0.3,0-0.6-0.1-1-0.1c-0.5,0-0.8-0.1-1.1-0.2c-0.3-0.1-0.7-0.2-1.4-0.2c-0.5,0-0.9,0.1-1.2,0.1c-0.1,0-0.2,0.1-0.3,0.1
		c0.1-0.1,0.1-0.1,0.2-0.2c0.3-0.3,0.6-0.7,0.8-1c0.2-0.3,0.5-0.6,0.8-0.9c0.3-0.3,0.6-0.6,0.8-1c0.3-0.4,0.4-0.8,0.6-1.2
		c0.1-0.4,0.3-0.7,0.5-1c0.3-0.4,0.5-0.7,0.8-1c0.2-0.3,0.5-0.6,0.7-0.9c0.2-0.3,0.5-0.5,0.8-0.8c0.3-0.3,0.7-0.5,1-0.9
		c0.3-0.3,0.5-0.7,0.7-1c0.2-0.4,0.4-0.7,0.6-1c0.2-0.3,0.5-0.6,0.7-1c0.2-0.4,0.5-0.7,0.7-1c0.2-0.3,0.4-0.5,0.7-0.8
		c0.3-0.4,0.6-0.7,0.9-1c0.2-0.2,0.4-0.4,0.6-0.7c0,0.2-0.1,0.4-0.2,0.7c-0.2,0.5-0.3,0.7-0.4,1c-0.1,0.3-0.3,0.5-0.5,1.1
		c-0.2,0.6-0.3,0.9-0.3,1.2c-0.1,0.3-0.1,0.5-0.3,1c-0.2,0.5-0.3,0.7-0.5,0.9c-0.2,0.2-0.4,0.5-0.6,1.1c-0.2,0.6-0.2,0.9-0.3,1.3
		c0,0.3,0,0.5-0.2,1c-0.2,0.5-0.3,0.7-0.4,1C440,331.4,439.9,331.7,439.7,332.2z M524.5,335.4c0,0.3,0,0.6-0.1,1
		c-0.1,0.3-0.1,0.6-0.2,1c-0.1,0.4-0.2,0.8-0.3,1.2c-0.1,0.4-0.1,0.8-0.1,1.2c0,0.4,0,0.7-0.1,1.1c-0.1,0.4-0.2,0.9-0.3,1.3
		c-0.1,0.3-0.1,0.6-0.2,0.8l0,0.1c-0.1,0.7-0.3,1.4-0.5,2c-0.2,0.7-0.5,1.4-0.9,1.9c-0.4,0.6-0.8,1.1-1.3,1.5
		c-0.6,0.4-1.1,0.5-1.8,0.5c-0.5,0-1-0.2-1.5-0.5c-0.2-0.2-0.3-0.4-0.3-0.6c-0.1-0.4-0.2-1-1.2-1c-0.9,0-1.2,0.3-1.5,0.5
		c-0.2,0.1-0.4,0.3-0.7,0.4c-0.3,0.2-0.5,0.2-0.8,0.3c-0.1,0-0.1,0-0.2,0.1c0.3-0.2,0.5-0.5,0.8-0.7c0.2-0.2,0.4-0.5,0.7-0.7
		l0.3-0.2c0.5-0.4,1-0.9,1.4-1.4c0.3-0.3,0.6-0.7,0.9-1.1c0.2-0.2,0.4-0.5,0.6-0.7l0.2-0.3l0,0c0.2-0.3,0.5-0.6,0.7-0.8
		c0.2-0.2,0.4-0.5,0.6-0.7c0.2-0.3,0.5-0.5,0.7-0.8c0.3-0.3,0.6-0.7,0.9-1c0.2-0.3,0.5-0.5,0.7-0.8c0.3-0.3,0.6-0.6,0.8-1
		c0.3-0.3,0.5-0.7,0.8-1c0.2-0.3,0.4-0.6,0.6-0.9c0.2-0.3,0.5-0.6,0.7-0.9c0.2-0.2,0.3-0.4,0.5-0.6
		C524.6,334.9,524.6,335.1,524.5,335.4z M549.1,341.8c-0.3,0.2-0.6,0.4-0.9,0.9c-0.3,0.5-0.4,0.9-0.5,1.1c-0.1,0.3-0.2,0.5-0.5,1
		c-0.3,0.5-0.5,0.7-0.6,0.9c-0.2,0.2-0.4,0.5-0.8,1c-0.2,0.3-0.3,0.7-0.4,1.1c-0.1,0.3-0.2,0.7-0.3,0.8c-0.4,0.4-1,0.6-1.5,0.8
		l-0.3,0.1c-0.5,0.2-1,0.2-1.6,0.2l-0.3,0c-0.5,0-0.9-0.2-1.4-0.6c-0.5-0.4-0.7-0.7-0.7-1.1c0-0.6,0.4-1.2,1-2.1
		c0.1-0.2,0.3-0.4,0.4-0.6l0,0c0.3-0.5,0.4-0.8,0.5-1.1c0.1-0.2,0.1-0.4,0.3-0.8c0.2-0.4,0.3-0.7,0.3-0.9c0.1-0.3,0.2-0.5,0.4-0.9
		c0.2-0.3,0.3-0.4,0.6-0.5c0.3-0.1,0.7-0.3,1-0.9c0.2-0.4,0.3-0.7,0.4-0.9c0-0.1,0-0.2,0.1-0.3c0,0,0,0,0,0c0.3,0.4,0.6,0.7,1.1,1
		c0.4,0.3,1,0.3,1.4,0.4c0.3,0,0.7,0.1,0.9,0.2c0.2,0.1,0.5,0.3,0.7,0.5c0.2,0.2,0.5,0.4,0.8,0.5
		C549.4,341.6,549.3,341.7,549.1,341.8z M554.2,333.1c-0.1,0.4-0.4,0.8-0.7,1.2c-0.2,0.3-0.4,0.5-0.6,0.8c-0.4,0.6-0.4,1.2-0.4,1.6
		c0,0.4,0,0.6-0.2,0.8c-0.8-0.4-1.8-1.2-2.1-1.4c-0.5-0.4-0.7-0.9-1-1.6c-0.1-0.1-0.1-0.3-0.2-0.4l-0.1-0.3c-0.3-0.6-0.6-1.2-0.6-2
		c0-0.5,0.2-1,0.5-1.5l0.1-0.3c0.1-0.3,0.2-0.6,0.3-0.9c0.1-0.4,0.2-0.8,0.4-1c0.4-0.3,1.1-0.5,1.8-0.5c0,0,0.1,0,0.1,0
		c0.7,0,1.3,0.3,2,1c0.5,0.5,0.6,1.2,0.7,2c0,0.1,0,0.3,0.1,0.5C554.3,331.8,554.4,332.5,554.2,333.1z M577.2,329.2
		c-0.1,0.1-0.1,0.1-0.2,0.2c0.1-0.1,0.1-0.2,0.2-0.4c0.1-0.2,0.3-0.4,0.4-0.5C577.5,328.8,577.4,329,577.2,329.2z"/>
	<path class="st0" d="M650.5,355.6c0.1,0.1,0.1,0.3,0.2,0.4c0.2,0.6,0.5,1.2,1,1.7c0.6,0.6,1.3,0.9,2,1.3c0.6,0.3,1.2,0.4,1.8,0.5
		l0.4,0.1c0.7,0.1,1.3,0.1,2.2,0.1c0.8,0,1.6-0.1,2.5-0.2c0.3,0,0.6,0,0.9,0c0.5,0,1,0.1,1.5-0.1c0.5-0.2,0.9-0.5,1.3-0.8
		c0.2-0.2,0.5-0.4,0.7-0.5c0.2-0.1,0.3-0.2,0.5-0.3c0.5-0.3,1-0.6,1.5-1c0.4-0.4,0.8-0.9,1.2-1.4c0-0.1,0.1-0.1,0.1-0.2
		c0.3,0.2,0.7,0.3,1,0.5c0.3,0.1,0.5,0.3,0.8,0.4c0.3,0.1,0.5,0.3,0.8,0.5c0.4,0.2,0.8,0.5,1.2,0.7c0.4,0.2,0.9,0.3,1.3,0.4
		c0.3,0.1,0.6,0.1,0.9,0.2c0.2,0.1,0.4,0.2,0.7,0.2c0.5,0.2,1,0.4,1.5,0.5c0.5,0.1,1.1,0.2,1.6,0.2c0.2,0,0.5,0,0.7,0.1
		c0.3,0,0.6,0.1,0.9,0.2c0.4,0.1,0.9,0.3,1.4,0.3c0.5,0,1-0.1,1.5-0.2c0.3-0.1,0.6-0.1,0.9-0.2c0.3,0,0.6,0,0.9,0c0.5,0,1,0,1.5-0.1
		c0.5-0.1,1-0.3,1.4-0.5c0.3-0.1,0.5-0.3,0.8-0.4c0.3-0.1,0.5-0.2,0.8-0.3c0.5-0.1,1-0.3,1.4-0.5c0.8-0.4,1.5-0.8,2.1-1.1
		c0.6-0.4,1.2-0.8,1.9-1.4c0.4-0.3,0.8-0.7,1.1-1c0.2-0.2,0.4-0.4,0.6-0.6c0.4-0.4,0.8-0.8,1.1-1.2c0.2-0.2,0.3-0.3,0.5-0.5
		c0.2-0.2,0.4-0.4,0.6-0.6c0.3-0.3,0.7-0.7,1-1.1l0.3-0.4c0.4-0.5,0.8-1,1.1-1.5c0.1-0.2,0.3-0.4,0.4-0.6c0.3-0.5,0.6-0.9,0.9-1.4
		c0.2-0.4,0.4-0.9,0.6-1.4c0.1-0.3,0.2-0.5,0.3-0.8c0.2-0.5,0.4-1,0.6-1.5c0.1-0.2,0.2-0.5,0.2-0.7c0.2-0.5,0.3-1,0.4-1.5
		c0.1-0.3,0.1-0.6,0.2-0.8c0.1-0.3,0.2-0.6,0.4-0.9c0.2-0.4,0.4-0.8,0.5-1.3c0.1-0.8,0.2-1.5,0.3-2.4c0.1-0.5-0.1-1-0.2-1.4
		c-0.1-0.3-0.2-0.7-0.1-1c0-0.3,0.1-0.6,0.1-1c0.1-0.5,0.2-0.9,0.1-1.4c0-0.5-0.2-1-0.3-1.4c-0.1-0.3-0.2-0.6-0.2-0.9
		c-0.1-0.3-0.1-0.6-0.1-0.9c-0.1-0.5-0.1-1-0.3-1.5c-0.2-0.5-0.4-0.9-0.7-1.4c-0.1-0.3-0.3-0.5-0.4-0.8c-0.1-0.3-0.2-0.5-0.3-0.8
		c-0.2-0.5-0.3-0.9-0.6-1.4c-0.3-0.4-0.7-0.8-1-1.2c-0.2-0.2-0.4-0.4-0.6-0.6c-0.6-0.7-1.2-1.2-1.7-1.6c-0.5-0.4-1-0.8-1.6-1.1
		l-0.3-0.2c-0.2-0.1-0.4-0.4-0.7-0.6c-0.3-0.3-0.7-0.7-1.2-1c-0.4-0.2-0.9-0.3-1.4-0.3c-0.3,0-0.7-0.1-1-0.2
		c-0.3-0.1-0.5-0.2-0.8-0.4c-0.4-0.2-0.9-0.4-1.4-0.5c-0.5-0.1-0.9-0.1-1.4-0.1c-0.4,0-0.7,0-1,0c-0.3,0-0.6-0.1-0.9-0.2
		c-0.4-0.1-0.9-0.2-1.4-0.3c-0.3,0-0.5,0-0.8-0.1c-0.5,0-1-0.1-1.5-0.1c-0.7,0-1.6,0-2.4,0.1c-0.3,0-0.6,0-1,0c-0.5,0-1,0-1.5,0.1
		c-0.5,0.1-1,0.3-1.5,0.5c-0.3,0.1-0.5,0.2-0.8,0.3c-0.8,0.2-1.6,0.5-2.3,0.8c-0.5,0.2-1,0.5-1.5,0.8c-0.2,0.1-0.4,0.3-0.6,0.4
		c-0.7,0.4-1.4,0.8-2,1.3c-0.3,0.2-0.5,0.3-0.8,0.5c-0.4,0.2-0.9,0.5-1.2,0.8c-0.4,0.4-0.7,0.9-1,1.3c-0.2,0.2-0.3,0.4-0.5,0.6
		c-0.3,0.4-0.5,0.9-0.8,1.4c-0.1,0.3-0.2,0.5-0.4,0.8c-0.1,0.2-0.3,0.4-0.4,0.6c-0.3,0.5-0.6,1-0.8,1.5c-0.3,0.7-0.6,1.5-0.8,2.3
		c-0.2,0.7-0.3,1.6-0.4,2.4c0,0.3,0,0.5-0.1,0.8c-0.1,0.6-0.1,1.1-0.1,1.7c0.1,0.8,0.4,1.7,0.7,2.4c0.2,0.6,0.6,1,1,1.4
		c0.2,0.2,0.4,0.4,0.5,0.6c0.1,0.2,0.2,0.3,0.3,0.5c0.3,0.5,0.7,1.1,1.3,1.6l0.2,0.2l0.3-0.1c0.8-0.3,1.1-0.6,1.4-1
		c0.2-0.2,0.3-0.4,0.6-0.6l0.3-0.2c0.7-0.6,0.8-0.7,1.4-1.7l0.2-0.3l-0.2-0.3c-0.5-0.6-0.8-1-1.1-1.6c-0.2-0.6-0.4-1.2-0.5-2.1
		c-0.1-0.8-0.1-1.5,0-2.1c0.1-0.6,0.3-1.3,0.6-2c0.3-0.6,0.6-1.3,1-1.9c0.3-0.5,0.8-1,1.3-1.5l0.1-0.1c0.5-0.5,1.1-1,1.6-1.4
		l0.4-0.3c0.4-0.3,0.9-0.7,1.4-1c0.4-0.2,0.8-0.3,1.2-0.5c0.3-0.1,0.6-0.2,0.8-0.3c0.5-0.2,1-0.3,1.5-0.4l0.5-0.1
		c0.7-0.2,1.4-0.3,2.1-0.4c0.2,0,0.4-0.1,0.7-0.1c0.5-0.1,1.1-0.1,1.6-0.1c-0.2,0.4-0.3,0.6-0.7,1.3c-0.3,0.4-0.5,0.6-0.7,0.8
		c-0.2,0.2-0.5,0.5-0.9,1c-0.3,0.6-0.4,0.9-0.5,1.2c-0.1,0.3-0.2,0.5-0.4,1l-1.2,2c-0.3,0.4-0.5,0.6-0.7,0.8c-0.2,0.2-0.5,0.5-0.8,1
		c-0.3,0.6-0.4,0.9-0.5,1.2c-0.1,0.3-0.1,0.5-0.4,1c-0.3,0.5-0.5,0.7-0.6,1c-0.2,0.2-0.3,0.5-0.6,1l-1.2,2c-0.3,0.5-0.5,0.6-0.7,0.9
		c-0.2,0.2-0.4,0.5-0.8,1c-0.3,0.5-0.4,0.8-0.6,1.1c-0.1,0.3-0.2,0.5-0.5,1c-0.3,0.5-0.5,0.7-0.6,0.9c-0.2,0.2-0.4,0.5-0.7,1
		c-0.3,0.5-0.4,0.8-0.6,1.1c-0.1,0.3-0.2,0.5-0.5,1c-0.3,0.5-0.5,0.7-0.6,0.9c-0.2,0.2-0.4,0.5-0.7,1c-0.3,0.5-0.5,0.7-0.6,1
		c-0.2,0.2-0.3,0.5-0.6,1c-0.3,0.5-0.5,0.7-0.6,0.9c-0.2,0.2-0.4,0.5-0.7,1c-0.2,0.4-0.2,0.7-0.2,0.9c-0.6-0.3-1.2-0.5-1.9-0.8
		c-0.2-0.1-0.4-0.1-0.6-0.2c-0.6-0.2-1.2-0.4-1.9-0.6c-0.7-0.1-1.6-0.3-2.4-0.3c-0.9,0-1.8,0.1-2.6,0.2c-1,0.2-1.9,0.4-2.5,0.7
		c-0.6,0.3-1.1,0.8-1.5,1.2c-0.2,0.2-0.3,0.4-0.5,0.5c-0.6,0.6-1.3,1.2-1.7,2l-0.1,0.2c-0.4,0.8-0.7,1.5-0.7,2.4
		c0,0.7,0.3,1.3,0.6,1.8C650.3,355.3,650.4,355.4,650.5,355.6z M672,350c0.2-0.2,0.4-0.4,0.6-0.9c0.3-0.5,0.5-0.9,0.6-1.1
		c0.1-0.3,0.2-0.5,0.5-1c0.3-0.4,0.5-0.6,0.7-0.8c0.2-0.2,0.5-0.5,0.9-1c0.3-0.6,0.4-0.9,0.5-1.2c0.1-0.3,0.2-0.5,0.4-1l1.2-2
		c0.3-0.5,0.5-0.6,0.7-0.8c0.2-0.2,0.5-0.5,0.8-1c0.3-0.6,0.4-0.9,0.5-1.2c0.1-0.3,0.1-0.5,0.4-1c0.3-0.5,0.5-0.7,0.6-1
		c0.2-0.3,0.3-0.5,0.7-1l1.2-2c0.3-0.5,0.5-0.7,0.7-0.9c0.2-0.2,0.4-0.5,0.8-1c0.3-0.5,0.5-0.8,0.6-1.1c0.1-0.3,0.2-0.5,0.5-1
		c0.3-0.5,0.5-0.7,0.6-0.9c0.2-0.2,0.4-0.5,0.7-1c0.3-0.5,0.5-0.9,0.6-1.2c0.1-0.3,0.2-0.5,0.5-1c0.3-0.5,0.5-0.7,0.6-0.9
		c0.2-0.2,0.4-0.5,0.7-1c0.3-0.5,0.5-0.8,0.6-1c0.2-0.3,0.3-0.5,0.6-1c0.2-0.4,0.3-0.6,0.4-0.8c0.1-0.3,0.2-0.5,0.6-0.8
		c0.2,0.1,0.3,0.1,0.5,0.1c0.4,0.1,0.7,0.2,1.1,0.4c0.7,0.4,1.3,0.8,1.8,1.2c0.3,0.3,0.6,0.6,0.8,1c0.2,0.3,0.3,0.5,0.5,0.7
		c0.1,0.2,0.3,0.4,0.5,0.5c0.3,0.4,0.7,0.8,0.9,1.2c0.1,0.3,0.3,0.5,0.5,0.8c0.3,0.4,0.5,0.8,0.6,1.2c0.1,0.5,0.2,1,0.3,1.5
		c0,0.2,0.1,0.5,0.1,0.7c0.1,0.7,0.1,1.3,0.2,2.1l0,0.2c0,0.7,0,1.5-0.1,2.3c0,0.4-0.1,0.8-0.3,1.2c-0.1,0.3-0.2,0.7-0.3,1
		c0,0.2-0.1,0.4-0.1,0.7c-0.1,0.5-0.2,1-0.3,1.5c-0.1,0.4-0.1,0.8-0.2,1.1c0,0.4-0.1,0.8-0.2,1.1c-0.1,0.3-0.3,0.7-0.6,1
		c-0.2,0.3-0.4,0.6-0.6,1c-0.3,0.7-0.7,1.3-1.1,2c-0.2,0.3-0.3,0.7-0.5,1c-0.1,0.4-0.3,0.8-0.5,1c-0.4,0.6-0.9,1.1-1.3,1.7l-0.1,0.1
		c-0.5,0.6-1,1.1-1.6,1.6c-0.5,0.5-1.1,1-1.7,1.5c-0.6,0.5-1.4,0.9-1.9,1.2c-0.7,0.4-1.3,0.7-2,1c-0.6,0.2-1.4,0.4-2.1,0.5l-0.1,0
		c-1,0.2-2,0.2-2.8,0.2c-0.5,0-1,0-1.5,0c-0.4-0.1-0.8-0.2-1.2-0.3c-0.3-0.1-0.5-0.2-0.8-0.3c-0.5-0.1-0.9-0.3-1.4-0.5
		c-0.2-0.1-0.4-0.2-0.6-0.2c-0.7-0.3-1.3-0.5-1.9-0.8c-0.3-0.1-0.6-0.3-0.9-0.4c-0.2-0.1-0.4-0.2-0.7-0.3
		C671.7,350.3,671.8,350.2,672,350z M657.1,352.1c0.3-0.2,0.9-0.2,1.5-0.2c0.8,0,1.6,0.1,2.6,0.3c0.6,0.1,1.1,0.3,1.7,0.5
		c-0.4,0.6-0.7,1-1.3,1.2c-0.5,0.3-1.3,0.2-2.2,0.2l-0.5,0c-0.8,0-1.3,0-1.7-0.2c-0.5-0.2-0.6-0.5-0.6-0.9
		C656.6,352.5,656.7,352.3,657.1,352.1z"/>
	<path class="st0" d="M768.2,322c1.1,0,2.1-0.3,2.8-1c0.9-0.8,1.4-1.8,1.4-2.8c0-1.1-0.5-2.2-1.3-2.9c-0.7-0.7-1.7-1-3-1
		c-1.4,0-2.4,0.3-3,0.9c-0.7,0.6-1,1.7-1,3c0,1.1,0.4,2.1,1.2,2.8C766,321.7,767,322,768.2,322z"/>
	<path class="st0" d="M847.8,344.4c0.4-0.3,0.7-0.6,1-1l0.2-0.2l-0.1-0.3c-0.4-1.1-1.8-2.1-2.8-2.4l-0.1,0l-0.1,0
		c-0.5,0.1-0.6,0.5-0.7,0.7c-0.3,0.3-0.6,0.6-1,0.9c-0.3,0.2-0.6,0.5-0.8,0.7c-0.6,0.6-1.2,1.1-1.8,1.7c-0.3,0.2-0.5,0.5-0.8,0.7
		c-0.4,0.3-0.7,0.7-1.1,1c-0.3,0.2-0.6,0.4-0.9,0.6c0.1-0.2,0.1-0.4,0.2-0.7l0.1-0.2c0.1-0.4,0.2-0.9,0.2-1.4c0-0.3,0.1-0.6,0.1-0.9
		c0.1-0.3,0.2-0.6,0.3-1c0.1-0.4,0.3-0.8,0.4-1.3c0.1-0.4,0.1-0.8,0.1-1.2c0-0.4,0-0.7,0.1-1.1c0.1-0.4,0.1-0.8,0.2-1.2
		c0.1-0.4,0.2-0.7,0.2-1.1c0.1-0.3,0.1-0.6,0.1-0.9c0.1-0.4,0.1-0.9,0.2-1.3c0.1-0.4,0.2-0.8,0.3-1.2c0.1-0.3,0.2-0.7,0.3-1
		c0.1-0.3,0.1-0.5,0.2-0.8c0.1-0.5,0.2-0.9,0.4-1.4c0.1-0.3,0.2-0.6,0.2-0.9c0.1-0.5,0.2-0.9,0.4-1.3c0.2-0.4,0.4-0.9,0.7-1.3
		c0.1-0.3,0.3-0.5,0.4-0.8l0.2-0.3l-0.3-0.3c-0.7-0.6-1.1-0.8-1.6-0.9c-0.3-0.1-0.6-0.2-1-0.4c-0.3-0.2-0.5-0.3-0.7-0.4
		c-0.5-0.3-0.8-0.4-1.8-0.7l-0.3-0.1l-0.2,0.3c-0.2,0.2-0.3,0.4-0.5,0.7c-0.3,0.3-0.5,0.7-0.8,1c-0.2,0.3-0.4,0.5-0.6,0.8
		c-0.2,0.3-0.5,0.6-0.7,1c-0.2,0.3-0.4,0.6-0.7,0.9c-0.2,0.3-0.5,0.6-0.7,0.9c-0.2,0.3-0.4,0.5-0.6,0.8c-0.2,0.3-0.5,0.7-0.7,1
		c-0.2,0.3-0.4,0.6-0.6,0.9c-0.2,0.3-0.4,0.6-0.7,0.9c-0.2,0.3-0.5,0.6-0.7,0.8c-0.3,0.3-0.5,0.6-0.8,0.9c-0.3,0.3-0.5,0.7-0.6,1
		c-0.2,0.3-0.4,0.6-0.6,0.9l-0.5,0.7c-0.3,0.4-0.6,0.7-0.9,1.1c-0.3,0.3-0.5,0.6-0.8,0.9c-0.2,0.3-0.5,0.5-0.7,0.8l-0.5,0.6
		c-0.2,0.3-0.5,0.6-0.8,0.9c-0.4,0.1-0.6,0.2-0.8,0.5c-0.3,0.3-0.5,0.7-0.8,1c-0.2,0.3-0.5,0.7-0.7,1c-0.3,0.3-0.6,0.6-1,0.8
		c-0.3,0.2-0.7,0.5-0.9,0.8c-0.2,0.2-0.5,0.5-0.7,0.7c-0.3,0.4-0.7,0.7-1,1c-0.3,0.3-0.6,0.5-0.8,0.8c-0.3,0.3-0.7,0.7-1,0.9
		c-0.5,0.3-1,0.6-1.4,0.8c-0.3,0.1-0.5,0.2-0.7,0.3c-0.8,0.4-1.5,0.6-2.1,0.6c-0.4,0-0.7,0-0.8-0.1c-0.1-0.1-0.1-0.3-0.1-0.4
		c0-0.5,0.2-1,0.7-1.7c0.3-0.5,0.4-0.8,0.5-1.1c0.1-0.3,0.2-0.5,0.4-0.9c0.3-0.4,0.4-0.6,0.6-0.8c0.2-0.2,0.4-0.5,0.7-1
		c0.3-0.5,0.4-0.8,0.5-1c0.1-0.2,0.2-0.5,0.5-0.9c0.3-0.5,0.4-0.8,0.5-1c0.1-0.2,0.2-0.5,0.5-0.9c0.2-0.4,0.4-0.6,0.6-0.7
		c0.2-0.2,0.5-0.4,0.8-1c0.3-0.5,0.4-0.7,0.6-0.9c0.2-0.2,0.3-0.5,0.6-1c0.3-0.5,0.4-0.7,0.5-1c0.1-0.2,0.2-0.5,0.5-0.9
		c0.3-0.5,0.4-0.8,0.5-1c0.1-0.2,0.2-0.5,0.5-0.9c0.4-0.7,0.6-1.4,0.9-2.1c0.2-0.7,0.4-1.5,0.4-2.3c-0.1-0.8-0.4-1.6-0.9-2.2
		c-0.4-0.6-1.1-1.1-1.9-1.5c-0.6-0.3-1.4-0.6-2.3-0.6c-0.8,0-1.6,0.2-2.4,0.5l-0.5,0.2c-0.7,0.2-1.5,0.4-2.2,0.9
		c-0.2,0.1-0.4,0.2-0.6,0.3c0.1-0.2,0.1-0.5-0.1-0.9c-0.5-1-1.3-0.6-1.8-0.4c-0.3,0.1-0.6,0.3-0.9,0.3c-0.5,0-0.8,0-1,0
		c-0.3,0-0.5,0-1.1,0c-0.3,0-0.5-0.1-0.8-0.1c-0.4-0.1-0.9-0.3-1.6,0.2c-0.8,0.5-0.9,0.9-1,1.4c0,0.3-0.1,0.5-0.3,0.8
		c-0.3,0.5-0.4,0.7-0.6,1c-0.1,0.2-0.3,0.5-0.6,1c-0.3,0.5-0.4,0.7-0.6,0.9c-0.2,0.2-0.4,0.5-0.7,1c-0.3,0.5-0.4,0.7-0.6,0.9
		c-0.2,0.2-0.4,0.5-0.7,1c-0.3,0.5-0.4,0.7-0.6,0.9c-0.2,0.2-0.3,0.5-0.6,1c-0.3,0.5-0.4,0.8-0.5,1.1c-0.1,0.3-0.2,0.5-0.5,0.9
		c-0.3,0.4-0.4,0.6-0.6,0.8c-0.2,0.2-0.4,0.5-0.7,1c-0.3,0.5-0.4,0.9-0.5,1.2c-0.1,0.3-0.1,0.5-0.4,0.9c-0.2,0.3-0.3,0.4-0.4,0.6
		c-0.4,0.1-0.5,0.3-0.6,0.5c0,0.1,0,0.1-0.1,0.1c-0.2,0.3-0.5,0.5-0.7,0.8c-0.3,0.3-0.6,0.7-0.8,1c-0.3,0.4-0.7,0.7-1,1
		c-0.2,0.2-0.4,0.4-0.6,0.6c-0.4,0.4-0.8,0.7-1.2,1.1l-0.6,0.5c-0.4,0.3-0.7,0.6-1.1,0.9c-0.2,0.2-0.5,0.4-0.7,0.6
		c-0.6,0.5-1.2,1-1.8,1.4c-0.6,0.4-1.2,0.9-1.9,1.3c-0.7,0.4-1.3,0.8-2,1.1c-0.1,0.1-0.3,0.1-0.4,0.2c0.1-0.1,0.1-0.2,0.2-0.3
		c0.3-0.5,0.4-0.8,0.6-1.1c0.1-0.3,0.2-0.5,0.5-0.9l1.2-1.9c0.3-0.4,0.4-0.6,0.6-0.8c0.2-0.2,0.4-0.5,0.8-1l1.2-1.9
		c0.3-0.5,0.4-0.8,0.5-1.1c0.1-0.3,0.2-0.5,0.5-0.9c0.3-0.5,0.4-0.8,0.6-1.1c0.1-0.2,0.2-0.5,0.5-0.9c0.3-0.5,0.4-0.7,0.6-0.9
		c0.2-0.2,0.3-0.5,0.6-1c0.3-0.5,0.4-0.7,0.6-0.9c0.2-0.2,0.3-0.5,0.7-1c0.3-0.5,0.4-0.7,0.6-0.9c0.2-0.2,0.3-0.5,0.7-1
		c0.3-0.5,0.4-0.8,0.5-1.1c0.1-0.3,0.2-0.5,0.5-0.9c0.2-0.3,0.4-0.4,0.7-0.6c0.4-0.3,1.1-0.7,0.8-1.7c-0.1-0.3-0.3-0.5-0.5-0.6
		c-0.4-0.2-0.8,0-1.1,0.1c-0.2,0.1-0.5,0.2-0.8,0.2c-0.5,0-0.8,0.1-1,0.2c-0.2,0.1-0.3,0.1-0.4,0.1c-0.1-0.7-0.3-1.5-0.7-2.2
		c-0.4-0.7-0.9-1.4-1.6-1.9l-0.1-0.1c-0.6-0.5-1.2-1-2-1.3c-0.9-0.3-1.8-0.4-2.5-0.4c-0.8,0-1.6,0.1-2.3,0.3
		c-0.7,0.2-1.4,0.4-2.2,0.7c-0.5,0.2-0.8,0.5-1.2,0.8c-0.2,0.2-0.4,0.3-0.7,0.5c-0.2,0.2-0.5,0.3-0.7,0.4c-0.4,0.2-0.9,0.4-1.3,0.8
		c-0.5,0.5-1.1,1-1.6,1.6c-0.3,0.4-0.6,0.9-0.8,1.3c-0.1,0.2-0.2,0.5-0.4,0.7c-0.3,0.5-0.5,0.7-0.7,0.9c-0.2,0.2-0.4,0.5-0.8,1.1
		c-0.3,0.6-0.5,0.9-0.6,1.2c-0.1,0.3-0.2,0.5-0.5,1c-0.3,0.5-0.5,0.8-0.6,1c-0.2,0.3-0.3,0.5-0.7,1c-0.3,0.5-0.5,0.8-0.6,1.1
		c-0.1,0.3-0.3,0.5-0.6,1c-0.3,0.5-0.5,0.8-0.6,1.1c0,0.1-0.1,0.2-0.2,0.3c-0.3,0.1-0.5,0.2-0.6,0.4c0,0,0,0.1,0,0.1c0,0,0,0,0,0
		c-0.3,0.3-0.6,0.6-1,1c-0.3,0.3-0.6,0.5-0.8,0.8c-0.3,0.3-0.6,0.7-0.8,1c-0.3,0.3-0.5,0.7-0.8,0.9c-0.6,0.6-1.2,1.2-1.8,1.7
		l-0.5,0.5c-0.5,0.4-0.9,0.8-1.3,1.1c-0.4,0.3-0.9,0.5-1.4,0.7c-0.3,0.1-0.6,0.2-0.8,0.4c-0.2,0.1-0.4,0.2-0.6,0.3
		c-0.6,0.3-1.1,0.6-1.5,0.6c-0.4,0-0.7-0.1-0.9-0.3c-0.1-0.1-0.2-0.3-0.2-0.6c0-0.2,0.1-0.9,0.7-1.9c0.3-0.5,0.5-0.7,0.7-0.9
		c0.2-0.2,0.4-0.5,0.8-1c0.3-0.5,0.5-0.8,0.6-1.1c0.1-0.3,0.3-0.5,0.6-1c0.3-0.5,0.5-0.8,0.6-1.1c0.1-0.3,0.2-0.5,0.5-1
		c0.3-0.5,0.5-0.7,0.7-0.9c0.2-0.2,0.4-0.5,0.8-1c0.3-0.5,0.4-0.9,0.6-1.2c0.1-0.3,0.2-0.5,0.5-1c0.3-0.5,0.5-0.8,0.6-1.1
		c0.1-0.3,0.3-0.5,0.6-1c0.3-0.5,0.5-0.8,0.6-1.1c0.1-0.3,0.3-0.5,0.6-1c0.3-0.5,0.5-0.6,0.7-0.8c0.2-0.2,0.5-0.5,0.8-1
		c0.3-0.5,0.5-0.8,0.6-1c0.1-0.3,0.3-0.5,0.6-1c0.3-0.6,0.4-0.9,0.5-1.2c0.1-0.3,0.2-0.5,0.4-1c0.2-0.3,0.5-0.5,0.7-0.6
		c0.4-0.3,1.1-0.7,0.6-1.7c-0.1-0.3-0.3-0.6-0.6-0.7c-0.4-0.1-0.7,0-1.1,0.2c-0.3,0.1-0.5,0.2-0.8,0.2c-0.5,0-0.8,0-1.1,0
		c-0.3,0-0.5,0-1,0c-0.3,0-0.5-0.1-0.8-0.2c-0.4-0.2-0.9-0.3-1.6,0.1c-0.8,0.5-0.9,0.9-1.1,1.3c-0.1,0.2-0.2,0.4-0.3,0.7
		c-0.3,0.5-0.4,0.7-0.6,0.9c-0.2,0.2-0.3,0.5-0.6,1c-0.3,0.5-0.4,0.7-0.6,1c-0.1,0.2-0.3,0.5-0.6,0.9c-0.3,0.5-0.4,0.7-0.6,0.9
		c-0.1,0.2-0.3,0.5-0.6,0.9c-0.3,0.5-0.4,0.9-0.5,1.1c-0.1,0.3-0.1,0.5-0.4,0.9c-0.3,0.5-0.4,0.7-0.6,1c-0.1,0.2-0.3,0.5-0.6,0.9
		c-0.2,0.4-0.4,0.6-0.6,0.7c-0.2,0.2-0.5,0.4-0.8,1c-0.3,0.5-0.4,0.9-0.5,1.2c-0.1,0.3-0.1,0.5-0.4,0.9c-0.2,0.3-0.3,0.5-0.4,0.7
		l0,0c-0.5,0.1-0.6,0.4-0.7,0.6c0,0.1,0,0.1,0,0.1c-0.5,0.6-1.1,1.2-1.7,1.8c-0.3,0.3-0.7,0.6-1.1,0.9c-0.3,0.2-0.5,0.4-0.8,0.6
		c-0.3,0.3-0.6,0.5-0.8,0.8c-0.3,0.3-0.6,0.6-1,0.9c-0.2,0.2-0.5,0.4-0.8,0.6c0.1-0.3,0.2-0.6,0.3-0.8c0.1-0.5,0.2-1,0.3-1.5
		c0-0.2,0.1-0.5,0.1-0.7c0-0.3,0.1-0.5,0.2-0.8c0.1-0.5,0.2-0.9,0.3-1.4c0.1-0.4,0.1-0.8,0.1-1.1c0-0.4,0.1-0.8,0.1-1.1
		c0.1-0.4,0.1-0.8,0.1-1.1c0-0.4,0-0.8,0.1-1.1c0.1-0.4,0.2-0.7,0.3-1.1c0.1-0.4,0.2-0.7,0.3-1.1c0.1-0.3,0.1-0.6,0.2-0.9
		c0.1-0.5,0.2-0.9,0.3-1.3c0.1-0.5,0.3-0.9,0.4-1.3c0.1-0.3,0.2-0.5,0.3-0.8c0.1-0.3,0.2-0.7,0.2-1c0.1-0.4,0.2-0.8,0.3-1.2
		c0.2-0.4,0.4-0.8,0.6-1.2c0.1-0.3,0.3-0.5,0.4-0.8l0.2-0.3l-0.3-0.3c-0.7-0.7-1.1-0.8-1.5-1c-0.2-0.1-0.5-0.2-0.9-0.4
		c-0.4-0.2-0.7-0.4-0.9-0.5c-0.4-0.3-0.7-0.5-1.6-0.7l-0.3-0.1l-0.2,0.3c-0.2,0.2-0.4,0.4-0.6,0.7c-0.3,0.3-0.6,0.7-0.9,1
		c-0.2,0.3-0.4,0.6-0.6,0.9c-0.2,0.3-0.4,0.7-0.6,1c-0.2,0.3-0.4,0.5-0.7,0.8c-0.3,0.3-0.6,0.6-0.8,0.9c-0.2,0.3-0.5,0.6-0.7,0.9
		c-0.2,0.3-0.5,0.6-0.7,0.9c-0.2,0.3-0.4,0.6-0.6,0.9c-0.2,0.3-0.5,0.6-0.7,1c-0.2,0.3-0.4,0.7-0.6,1s-0.4,0.6-0.6,0.9
		c-0.2,0.3-0.5,0.5-0.8,0.7c-0.3,0.3-0.6,0.5-0.9,0.8c-0.2,0.3-0.4,0.6-0.6,0.8c-0.2,0.3-0.5,0.6-0.7,0.9c-0.2,0.3-0.5,0.6-0.7,0.9
		c-0.2,0.3-0.4,0.6-0.7,0.9c-0.3,0.3-0.6,0.7-0.9,1c-0.1,0.1-0.2,0.3-0.4,0.4l0,0c-0.4,0-0.6,0.3-0.7,0.7c-0.3,0.3-0.6,0.6-1,0.9
		c-0.2,0.2-0.4,0.4-0.6,0.6c-0.3,0.3-0.6,0.5-1,0.8c-0.2,0.2-0.5,0.4-0.7,0.6c-0.5,0.4-0.9,0.8-1.4,1.1l-0.3,0.2
		c-0.3,0.2-0.5,0.5-0.8,0.7c-0.3,0.3-0.5,0.5-0.8,0.7c-0.6,0.4-1.2,0.8-1.9,1.1c-0.5,0.3-1,0.5-1.5,0.7l-0.5,0.2
		c-0.7,0.3-1.3,0.6-2,0.7c-0.7,0.2-1.4,0.3-2.1,0.3c-0.5,0-1-0.2-1.5-0.3l-0.4-0.1c-0.7-0.2-1.1-0.5-1.5-0.9
		c-0.5-0.5-0.8-0.9-0.8-1.5c0-0.5,0.1-1.1,0.4-1.9c0.2-0.5,0.5-1,0.8-1.6l0.1-0.2c0.1-0.2,0.2-0.4,0.2-0.6c0-0.1,0-0.1,0-0.1
		c0.6,0.2,1.2,0.3,1.9,0.4l0.6,0.1c0.7,0.1,1.4,0.2,2.2,0.1c0.7,0,1.4-0.2,2-0.4l0.4-0.1c0.9-0.2,1.7-0.5,2.3-0.8
		c0.2-0.1,0.4-0.2,0.7-0.3c0.5-0.2,1.1-0.4,1.6-0.8c0.7-0.5,1.4-1,2-1.6c0.6-0.6,1.2-1.3,1.7-1.9c0.4-0.5,0.7-1,1-1.5
		c0.1-0.2,0.2-0.4,0.4-0.6c0.2-0.4,0.3-0.6,0.4-0.8c0.1-0.2,0.2-0.4,0.4-0.7c0.2-0.2,0.3-0.5,0.5-0.7c0.3-0.5,0.6-0.9,0.8-1.4
		c0.3-0.8,0.3-1.6,0.3-2.3l0-0.1c0-0.8-0.1-1.7-0.5-2.5c-0.4-0.8-1.2-1.4-1.7-1.9c-0.7-0.5-1.4-0.7-2.3-1c-0.2,0-0.4-0.1-0.5-0.2
		c-0.6-0.2-1.2-0.4-1.9-0.4c-0.9,0-1.7,0.1-2.5,0.2c-0.6,0.1-1.2,0.3-1.8,0.6c-0.2,0.1-0.4,0.2-0.6,0.2c-0.8,0.3-1.6,0.6-2.3,1
		c-0.7,0.4-1.4,0.8-2.1,1.4c-0.6,0.5-1.1,1.1-1.6,1.7l-0.1,0.1c-0.4,0.5-0.8,1.2-1.2,1.7l-0.2,0.3c-0.3,0.5-0.5,0.7-0.7,1
		c-0.2,0.3-0.4,0.5-0.8,1.1c-0.4,0.6-0.5,0.9-0.6,1.2c-0.1,0.3-0.2,0.6-0.5,1.1c-0.3,0.5-0.5,0.7-0.7,1c-0.2,0.3-0.4,0.5-0.8,1.1
		c-0.3,0.5-0.5,0.8-0.7,1.1c-0.2,0.3-0.3,0.5-0.7,1.1c-0.3,0.5-0.5,0.8-0.6,1.1c-0.2,0.3-0.3,0.5-0.7,1.1c-0.3,0.5-0.5,1.1-0.7,1.6
		c-0.1,0.2-0.1,0.4-0.2,0.6c-0.1,0.2-0.2,0.4-0.3,0.6c-0.2,0.5-0.5,1-0.5,1.6c-0.1,0.8,0,1.6,0.2,2.4c0.1,0.8,0.4,1.5,0.8,2.3
		c0.4,0.8,0.9,1.4,1.5,1.9c0.6,0.5,1.2,1,2,1.4c0.5,0.2,1.1,0.3,1.7,0.4c0.2,0,0.4,0.1,0.6,0.1c0.8,0.1,1.6,0.1,2.3,0.1
		c0.8,0,1.6-0.1,2.4-0.2c0.2,0,0.5-0.1,0.7-0.1c0.5-0.1,1.1-0.1,1.6-0.3c0.8-0.2,1.5-0.5,2.2-0.8c0.7-0.3,1.5-0.6,2.1-1l0.4-0.2
		c0.5-0.3,1.1-0.6,1.6-0.9c0.4-0.3,0.8-0.6,1.1-0.9c0.2-0.2,0.5-0.4,0.7-0.6l0.4-0.3c0.2-0.1,0.4-0.3,0.5-0.4
		c-0.2,0.3-0.3,0.6-0.3,0.8c0,0.4,0.4,0.7,0.7,1c0.2,0.2,0.5,0.4,0.7,0.8c0.4,0.6,1,1.1,1.8,1.6c0.7,0.5,1.4,0.8,2.2,1
		c0.1,0,0.3,0.1,0.4,0.1c0.6,0.2,1.2,0.4,1.9,0.4l0.5,0c0.2,0,0.3,0,0.5,0c0.3,0,0.5,0,0.8,0c0.2,0,0.3-0.1,0.4-0.2l0.4,0
		c0.6-0.1,1.2-0.1,1.8-0.3c0.5-0.1,1-0.4,1.4-0.6c0.3-0.1,0.5-0.2,0.8-0.3c0.2-0.1,0.5-0.2,0.8-0.3c0.5-0.2,1-0.3,1.5-0.6
		c0.6-0.3,1.2-0.7,1.8-1l0.3-0.2c0.4-0.3,0.8-0.6,1.1-0.9c0.2-0.1,0.3-0.3,0.5-0.4c0,0.2,0,0.3,0,0.5c0.1,1,0.8,1.6,1.4,2.3l0.1,0.1
		c0.5,0.6,1.1,1.2,2,1.6c0.7,0.2,1.6,0.5,2.6,0.5c0.8,0,1.6-0.2,2.4-0.4c0.5-0.1,0.9-0.4,1.3-0.6c0.2-0.1,0.5-0.3,0.8-0.4
		c0.2-0.1,0.5-0.2,0.8-0.3c0.4-0.1,0.9-0.2,1.4-0.5c0.4-0.2,0.7-0.6,1-0.9c0.2-0.2,0.5-0.5,0.7-0.7c0.4-0.3,0.8-0.6,1.2-0.9l0,0.1
		c0.1,0.8,0.3,1.9,0.9,2.6c0.6,0.7,1.6,1.1,2.4,1.4c0.8,0.3,1.7,0.4,2.6,0.4c0.5,0,1.1-0.2,1.6-0.3c0.2-0.1,0.4-0.1,0.6-0.2
		c0.7-0.2,1.3-0.4,2.1-0.8c0.2-0.1,0.4-0.2,0.7-0.3c0,0,0,0,0.1,0c-0.2,0.4-0.5,0.7-1,1.4c-0.3,0.1-0.6,0.1-0.9,0.2
		c-0.4,0.1-0.8,0.2-1.2,0.3c-0.8,0.3-1.5,0.5-2.2,0.8c-0.2,0.1-0.5,0.2-0.7,0.3c-0.5,0.2-1,0.4-1.5,0.6c-0.5,0.2-0.8,0.6-1.2,0.9
		c-0.2,0.2-0.5,0.4-0.7,0.6l-0.5,0.3c-0.5,0.3-1,0.6-1.5,0.9c-0.2,0.2-0.5,0.3-0.7,0.5c-0.4,0.3-0.9,0.6-1.2,1
		c-0.6,0.7-1,1.5-1.2,2.1c-0.3,0.8-0.5,1.5-0.5,2.4c0,0.7,0.1,1.7,0.5,2.5c0.4,0.8,1.2,1.3,1.9,1.7c0.7,0.5,1.5,0.8,2.3,0.9
		c0.6,0.1,1.1,0.1,1.6,0.1c0.3,0,0.6,0,0.9-0.1c0.6-0.1,1.1-0.3,1.7-0.6c0.2-0.1,0.4-0.2,0.6-0.3c0.2-0.1,0.5-0.2,0.7-0.2
		c0.5-0.1,1.1-0.3,1.5-0.6c0.5-0.3,0.9-0.8,1.3-1.3c0.1-0.2,0.3-0.3,0.4-0.5c0.5-0.6,1-1.2,1.4-1.9l1.2-2c0.3-0.5,0.4-0.8,0.6-1.1
		c0.1-0.2,0.2-0.5,0.5-1c0.3-0.5,0.4-0.7,0.6-0.9c0.2-0.2,0.4-0.5,0.7-1c0.3-0.4,0.4-0.7,0.5-1c0.1-0.3,0.2-0.5,0.5-0.9
		c0.2-0.1,0.5-0.1,0.8-0.1c0.4-0.1,0.9-0.1,1.3-0.3c0.7-0.3,1.4-0.5,2.1-0.9c0.5-0.2,1-0.5,1.6-0.8l0.5-0.2c0.4-0.2,0.7-0.5,1.1-0.8
		c0.3-0.2,0.5-0.4,0.8-0.6c0.3-0.2,0.5-0.3,0.9-0.4c0.1,0,0.1,0,0.2-0.1c0,0.2,0.1,0.4,0.2,0.6c0.2,0.3,0.4,0.5,0.6,0.6
		c0.4,0.1,0.7-0.1,1.1-0.2c0.3-0.1,0.5-0.3,0.8-0.3c0.5,0,0.8,0,1.1,0c0.3,0,0.5,0,1.1,0c0.3,0,0.5,0.1,0.8,0.2
		c0.4,0.2,0.9,0.4,1.6-0.1c0.8-0.5,0.9-1,1-1.4c0.1-0.3,0.1-0.5,0.3-0.8c0.3-0.5,0.5-0.7,0.6-1c0.2-0.2,0.3-0.5,0.6-1
		c0.3-0.5,0.4-0.6,0.6-0.8c0.2-0.2,0.4-0.5,0.8-1c0.3-0.5,0.4-0.8,0.6-1.1c0.1-0.3,0.2-0.5,0.5-1c0.3-0.5,0.4-0.8,0.6-1.1
		c0.1-0.3,0.2-0.5,0.5-1c0.3-0.5,0.5-0.7,0.6-1c0.2-0.2,0.3-0.5,0.6-1c0.3-0.5,0.5-0.7,0.6-1c0.2-0.2,0.3-0.5,0.6-1
		c0.4-0.6,0.5-0.8,0.7-1.1c0.1-0.2,0.3-0.4,0.5-0.8c0.3-0.3,0.5-0.6,0.7-1c0.2-0.3,0.4-0.6,0.7-0.9c0.3-0.3,0.6-0.5,0.9-0.7
		c0.3-0.2,0.6-0.4,0.9-0.7c0.3-0.3,0.5-0.7,0.8-1c0.2-0.3,0.4-0.6,0.7-0.8c0.4-0.3,0.7-0.6,1.1-0.9c0.2-0.2,0.5-0.3,0.7-0.5
		c0.3-0.2,0.5-0.4,0.7-0.6c0.4-0.3,0.7-0.6,1-0.8c0.6-0.3,1.1-0.4,1.6-0.5c0.2,0,0.3,0,0.4-0.1c0.6-0.1,0.8,0,0.9,0
		c0.1,0.1,0.1,0.3,0.1,0.4c0,0.3-0.2,0.9-0.8,1.9c-0.3,0.5-0.4,0.7-0.6,0.9c-0.2,0.2-0.4,0.5-0.7,1c-0.3,0.5-0.4,0.9-0.5,1.2
		c-0.1,0.3-0.1,0.5-0.4,0.9c-0.3,0.5-0.4,0.7-0.6,1c-0.2,0.2-0.3,0.5-0.6,1c-0.3,0.4-0.4,0.6-0.6,0.8c-0.2,0.2-0.5,0.5-0.8,1
		c-0.3,0.5-0.4,0.9-0.5,1.2c-0.1,0.3-0.1,0.5-0.4,0.9c-0.3,0.4-0.4,0.6-0.6,0.8c-0.2,0.2-0.4,0.5-0.8,1c-0.3,0.5-0.4,0.9-0.5,1.1
		c-0.1,0.3-0.2,0.5-0.4,0.9c-0.1,0.2-0.3,0.5-0.5,0.7c-0.3,0.5-0.7,1-0.8,1.6c-0.3,0.9-0.3,1.9-0.2,2.7c0.2,1,0.6,1.9,1.1,2.5
		c0.5,0.6,1.2,1,2.4,1.4c0.9,0.3,1.8,0.5,2.6,0.5c0.6,0,1.2-0.2,1.8-0.3c0.2-0.1,0.4-0.1,0.6-0.2c0.2,0,0.4-0.1,0.6-0.1
		c0.6-0.1,1.1-0.3,1.7-0.5c0.6-0.3,1.3-0.7,2.1-1.1c0.7-0.4,1.3-0.9,1.9-1.3l0.5-0.4c0.5-0.3,0.9-0.7,1.4-1c0.1-0.1,0.1-0.1,0.2-0.2
		c0,0.1,0,0.1,0,0.2c0,0.4,0.4,0.7,0.7,0.9c0.2,0.2,0.5,0.4,0.8,0.7c0.4,0.6,1,1.2,1.7,1.7c0.1,0.1,0.3,0.2,0.4,0.3
		c0.5,0.4,1,0.8,1.7,0.9c0.3,0.1,0.6,0.1,0.9,0.1c0.2,0,0.5,0,0.7,0c0.4,0,0.9,0,1.4,0c0.4,0,0.8,0,1.1,0c0.2,0,0.3-0.1,0.4-0.2
		c0.7-0.1,1.4-0.3,2.2-0.5c0.3-0.1,0.6-0.1,0.9-0.2c0.5-0.1,1-0.1,1.5-0.3c0.5-0.2,0.9-0.5,1.2-0.7c0.3-0.2,0.5-0.4,0.8-0.5
		c0.3-0.1,0.6-0.3,0.8-0.4c0.4-0.2,0.9-0.4,1.3-0.6c0.4-0.3,0.8-0.6,1.1-0.9c0.2-0.2,0.5-0.4,0.8-0.6c0.3-0.2,0.5-0.4,0.8-0.5
		c0.4-0.2,0.8-0.5,1.2-0.8c0.5-0.4,0.9-0.8,1.3-1.2l0.4-0.4c0.5-0.5,1-0.9,1.5-1.4l0.2-0.2C847.3,344.8,847.5,344.6,847.8,344.4z
		 M715.2,337.8l0.4-0.5c0.7-1,0.8-1.1,1.3-1.9l0.2-0.3c0.3-0.5,0.5-0.8,0.7-1.1c0.2-0.3,0.4-0.5,0.7-1.1c0.4-0.7,0.9-1.3,1.3-1.7
		c0.2-0.2,0.3-0.4,0.5-0.6c0.3-0.4,0.7-0.8,1-1c0.7-0.4,1.4-0.6,2-0.7c0.7,0,1.2,0.2,1.5,0.8c0.3,0.5,0.3,1.1,0.1,1.9
		c-0.2,0.6-0.5,1.3-0.9,2c-0.2,0.3-0.3,0.5-0.5,0.6c-0.2,0.2-0.3,0.4-0.6,0.8c-0.4,0.6-0.8,1.2-1.3,1.7c-0.2,0.2-0.4,0.4-0.5,0.6
		c-0.3,0.4-0.6,0.7-0.9,0.9c-0.7,0.4-1.4,0.7-1.9,0.8c-0.7,0.2-1.4,0.2-2.1,0.1c-0.5,0-1-0.1-1.5-0.2
		C714.7,338.5,714.8,338.3,715.2,337.8z M740.2,334.1c-0.1,0.3-0.2,0.6-0.3,0.9c-0.2,0.4-0.3,0.8-0.4,1.3l0,0.2
		c-0.1,0.7-0.2,1.4-0.4,2c-0.1,0.4-0.1,0.7-0.1,1.1c0,0.4-0.1,0.7-0.1,1.1c-0.1,0.5-0.2,0.9-0.3,1.4c-0.1,0.3-0.1,0.5-0.2,0.8
		c-0.1,0.3-0.1,0.6-0.1,0.9c-0.1,0.5-0.1,0.9-0.2,1.3c-0.2,0.7-0.4,1.4-0.8,2c-0.3,0.6-0.8,1.1-1.3,1.4c-0.5,0.3-1.1,0.5-1.8,0.5
		c-0.7,0-1.2-0.1-1.6-0.4c-0.2-0.2-0.2-0.4-0.3-0.6c-0.1-0.3-0.2-1-1.1-1c-0.8,0-1.1,0.2-1.6,0.5c-0.2,0.1-0.4,0.2-0.7,0.4
		c-0.3,0.2-0.6,0.2-0.8,0.3c-0.1,0-0.3,0.1-0.4,0.1l0.4-0.4c0.4-0.3,0.9-0.7,1.3-1.1c0.3-0.3,0.6-0.7,0.9-1c0.2-0.3,0.4-0.5,0.6-0.7
		c0.2-0.2,0.5-0.4,0.7-0.7c0.2-0.2,0.5-0.4,0.7-0.7l0,0l0.1-0.1c0.1-0.1,0.2-0.1,0.2-0.2l0.2-0.3l0,0c0.2-0.3,0.5-0.5,0.7-0.8
		c0.2-0.2,0.4-0.5,0.6-0.7c0.3-0.4,0.6-0.8,1-1.2l0.5-0.7c0.2-0.3,0.5-0.5,0.8-0.8c0.3-0.3,0.6-0.6,0.9-0.9c0.3-0.4,0.5-0.7,0.7-1.1
		c0.2-0.3,0.4-0.6,0.6-0.9c0.3-0.4,0.6-0.7,0.8-1.1L740.2,334.1C740.1,334.2,740.1,334.1,740.2,334.1L740.2,334.1z M769.1,360.1
		c-0.2,0.2-0.5,0.5-0.8,1.1l-1.4,2.4c-0.4,0.7-1,1.2-1.5,1.3c-0.2,0-0.4,0.1-0.6-0.1c-0.2-0.1-0.2-0.4-0.2-0.7c0-0.5,0-1,0.5-1.5
		c0.4-0.4,0.9-0.8,1.5-1.2c0.2-0.1,0.4-0.3,0.6-0.4c0.4-0.3,0.7-0.5,1.2-0.7c0.3-0.1,0.6-0.2,1-0.3
		C769.2,359.9,769.1,360,769.1,360.1z M780.5,340.3c-0.2,0.3-0.3,0.5-0.7,1.1c-0.2,0.3-0.4,0.7-0.6,1c-0.2,0.4-0.3,0.7-0.5,1
		c-0.2,0.3-0.6,0.6-0.9,0.9c-0.3,0.2-0.5,0.5-0.7,0.7c-0.2,0.3-0.4,0.5-0.6,0.8c-0.3,0.4-0.5,0.7-0.8,1c-0.5,0.5-1.1,1-1.7,1.4
		c-0.2,0.2-0.4,0.3-0.6,0.5c-0.4,0.3-0.8,0.6-1.2,0.8c-1.3,0.6-2.4,0.7-2.9,0.3c-0.1-0.1-0.2-0.3-0.2-0.6c0-0.3,0.1-0.9,0.7-1.8l0,0
		c0.3-0.5,0.5-0.8,0.6-1.1c0.1-0.3,0.3-0.5,0.6-1c0.3-0.5,0.5-0.7,0.7-1c0.2-0.2,0.4-0.5,0.7-1.1c0.3-0.5,0.5-0.8,0.6-1.1
		c0.1-0.3,0.3-0.5,0.6-1c0.3-0.5,0.5-0.8,0.6-1c0.2-0.3,0.3-0.5,0.6-1c0.3-0.5,0.5-0.8,0.6-1c0.2-0.3,0.3-0.5,0.7-1
		c0.3-0.6,0.5-0.9,0.6-1.2c0.1-0.3,0.2-0.5,0.5-1c0.3-0.5,0.5-0.6,0.7-0.9c0.2-0.2,0.5-0.5,0.8-1.1c0.4-0.7,0.9-1.2,1.3-1.6l0.3-0.3
		c0.4-0.4,0.8-0.8,1.2-1c0.6-0.3,1.1-0.3,1.7-0.3l0.2,0c0.1,0,0.2,0,0.3,0c0.6,0,1.1,0,1.4,0.3c0.4,0.4,0.5,1,0.4,1.7
		c-0.1,0.4-0.2,1.1-0.7,1.9c-0.3,0.5-0.4,0.8-0.6,1c-0.1,0.3-0.2,0.5-0.5,1l-1.2,2c-0.3,0.4-0.4,0.6-0.7,0.8c-0.3,0.2-0.5,0.4-0.9,1
		C780.8,339.9,780.6,340.1,780.5,340.3z M834.5,335.4c0,0.3-0.1,0.6-0.1,0.9c-0.1,0.6-0.2,1.2-0.3,1.8l-0.1,0.4
		c-0.1,0.4-0.1,0.7-0.2,1.1c-0.1,0.4-0.1,0.7-0.2,1.1c-0.1,0.4-0.2,0.8-0.3,1.2c-0.1,0.3-0.2,0.6-0.2,0.9c-0.1,0.7-0.3,1.4-0.5,2.1
		c-0.1,0.3-0.1,0.5-0.2,0.8c-0.1,0.5-0.2,0.9-0.4,1.3c-0.3,0.6-0.8,0.9-1.4,1.3c-0.5,0.3-1,0.5-1.7,0.5c-0.7,0-1.2-0.1-1.5-0.4
		c-0.2-0.2-0.3-0.4-0.3-0.6c-0.1-0.3-0.2-1-1.2-1c-0.8,0-1.1,0.3-1.5,0.6c-0.2,0.2-0.3,0.3-0.7,0.5c-0.3,0.2-0.6,0.2-0.8,0.2
		c0,0-0.1,0-0.1,0c0.3-0.3,0.5-0.5,0.8-0.8c0.2-0.2,0.4-0.5,0.7-0.7c0.2-0.2,0.5-0.4,0.8-0.7c0.3-0.3,0.7-0.5,1-0.8
		c0.3-0.3,0.5-0.7,0.7-1c0.1-0.2,0.2-0.4,0.4-0.6l0,0l0.3-0.3c0.2-0.3,0.5-0.5,0.7-0.7c0.3-0.3,0.6-0.6,0.9-1
		c0.2-0.3,0.4-0.5,0.7-0.8c0.3-0.3,0.6-0.7,0.9-1c0.3-0.3,0.6-0.7,0.8-1.1c0.2-0.3,0.4-0.6,0.6-0.8c0.3-0.3,0.5-0.7,0.7-1.1
		c0.2-0.3,0.4-0.6,0.6-0.9c0.2-0.3,0.5-0.6,0.7-0.9c0.2-0.2,0.4-0.4,0.5-0.7C834.6,334.8,834.6,335.1,834.5,335.4z"/>
	<path class="st0" d="M853.8,348.1c-0.8-0.7-1.8-1.1-2.8-1.1c-1,0-2,0.4-2.8,1.1c-0.8,0.7-1.2,1.7-1.2,2.7c0,1.1,0.4,2,1.2,2.7
		c0.7,0.7,1.7,1,2.8,1c1,0,2-0.4,2.8-1.1c0.8-0.7,1.2-1.7,1.2-2.7C855,349.8,854.6,348.8,853.8,348.1z"/>
	<path class="st0" d="M530.5,385.4c-0.4-0.2-0.9,0-1.3,0.1c-0.3,0.1-0.7,0.3-1.1,0.3c-0.6,0-0.9,0-1.2,0c-0.3,0-0.6,0-1.2,0l-2.4,0
		c-0.6,0-1,0-1.3,0.1c-0.3,0-0.6,0.1-1.2,0.1l-2.4,0c-0.4,0-0.6-0.1-0.9-0.2c-0.5-0.2-1-0.4-1.8,0.2l-0.3,0.2c-1,0.6-1.9,1.3-2,2.1
		c0,0.4,0.2,0.9,0.6,1.3c0.4,0.4,0.8,0.5,1.1,0.5c0.3,0,0.5-0.1,0.8-0.2c0.3-0.1,0.5-0.2,0.9-0.2c0.6,0,0.9,0,1.3-0.1
		c0.3,0,0.6-0.1,1.2-0.1c0.6,0,0.9,0,1.2,0c0.3,0,0.6,0,1.2,0l4.9,0c0.4,0,0.7,0.1,0.9,0.2c0.5,0.2,1,0.3,1.8-0.2l0.3-0.2
		c1.1-0.7,2-1.3,1.5-3.1C530.9,385.8,530.8,385.5,530.5,385.4z"/>
	<path class="st0" d="M565.9,387.1c0.1-0.9,0.1-1.6,0.1-2.3c0-0.4,0-0.8,0-1.2c0-0.3,0-0.7,0-1c0-0.4-0.1-0.9-0.2-1.3
		c-0.1-0.3-0.2-0.7-0.1-1c0-0.5,0.1-0.9,0.1-1.3c0-0.3,0.1-0.5,0.1-0.8c0.3-0.3,0.4-0.4,0.7-0.5c0.2-0.1,0.6-0.3,1-0.7
		c0.4-0.4,0.6-0.6,0.8-0.8c0.2-0.2,0.4-0.4,0.7-0.8c0.4-0.4,0.6-0.6,0.8-0.8c0.2-0.2,0.4-0.4,0.8-0.8l0.3-0.3c0.5-0.5,1-0.9,1.4-1.4
		c0.5-0.7,0.7-1.4,0.9-2l0-0.2c0.3-0.9,0.3-1.7,0.1-2.4c-0.3-0.9-0.8-1.6-1.6-2c-0.6-0.4-1.4-0.4-2.3-0.4c-0.3,0-0.6,0-0.8,0
		c-0.6,0-1.2-0.1-1.8,0.1c-0.8,0.3-1.4,0.8-2.1,1.4c-0.6,0.6-1.1,1.3-1.5,2c-0.4,0.7-0.7,1.4-0.9,2.2c-0.2,0.5-0.3,1.1-0.4,1.7
		c0,0.2-0.1,0.4-0.1,0.7c0,0.3-0.1,0.5-0.2,0.8c-0.1,0.5-0.2,1-0.3,1.5c-0.1,0.5-0.1,1.1-0.1,1.7l0,0.6c-0.2,0.3-0.4,0.3-0.6,0.4
		c-0.3,0.1-0.6,0.2-1,0.6l-1.5,1.4c-0.4,0.4-0.6,0.5-0.8,0.7c-0.2,0.2-0.4,0.4-0.7,0.7c-0.4,0.4-0.5,0.7-0.7,0.9
		c-0.1,0.2-0.1,0.3-0.3,0.4c0,0-0.1-0.1-0.1-0.1c-0.4-0.4-0.8-0.8-1.3-1.1c-0.6-0.3-1.3-0.6-2.1-0.8c-0.6-0.1-1.4-0.3-2.2-0.3
		c-0.7,0-1.5,0.1-2.3,0.2c-0.9,0.2-1.6,0.4-2.3,0.6c-0.6,0.2-1.1,0.6-1.5,1c-0.2,0.1-0.3,0.2-0.5,0.3c-0.6,0.4-1.2,1-1.7,1.6
		c-0.6,0.6-1,1.3-1.3,1.9c-0.4,0.7-0.7,1.5-0.9,2.2c-0.2,0.8-0.3,1.6-0.3,2.3c0,0.7-0.1,1.5,0.1,2.3c0.1,0.6,0.2,1.1,0.4,1.6
		c-0.3,0-0.7,0-1,0l-0.3,0c-0.7,0-1.3-0.1-1.9-0.3c-0.5-0.2-1.3-0.4-1.9-0.8l-0.3-0.2l-0.5,0.3c-0.7,0.4-1.2,0.8-1,1.9l0,0.2
		l0.1,0.1c0.6,0.6,1.2,0.9,1.9,1.2c0.2,0.1,0.4,0.2,0.6,0.3c0.5,0.3,1,0.6,1.6,0.7c0.6,0.1,1.1,0,1.6,0c0.3,0,0.5-0.1,0.8-0.1
		c0.6,0,1.3-0.1,2.1-0.3c0.1,0.1,0.1,0.2,0.2,0.3c0.3,0.5,0.6,1,1.1,1.4c0.4,0.3,0.9,0.6,1.4,0.8c0.2,0.1,0.5,0.2,0.7,0.3
		c0.2,0.1,0.4,0.2,0.6,0.4c0.4,0.3,0.9,0.6,1.5,0.7l0.4,0.1c0.6,0.2,1.2,0.4,1.9,0.5c0.5,0.1,1.1,0.1,1.7,0.1c0.1,0,0.2,0,0.3,0
		l0.3,0c0.5,0,1-0.1,1.5-0.3c0.3-0.1,0.5-0.1,0.8-0.2c0.3,0,0.6,0,0.9,0c0.5,0,1,0,1.5-0.2c0.5-0.2,0.9-0.5,1.4-0.8
		c0.2-0.2,0.4-0.3,0.6-0.4c0.7-0.4,1.3-0.8,1.9-1.3c0.6-0.5,1-1,1.5-1.6l0.1-0.1c0.4-0.5,0.9-1.2,1.3-1.9c0.1-0.2,0.2-0.4,0.4-0.6
		c0.3-0.4,0.6-0.9,0.8-1.4c0.3-0.8,0.6-1.5,0.8-2.2c0.1-0.5,0.2-1,0.3-1.5c0-0.3,0.1-0.5,0.1-0.8c0-0.3,0.1-0.6,0.2-0.8
		C565.7,388,565.8,387.6,565.9,387.1z M566.7,372.2l0-0.1c0.2-0.7,0.4-1.3,0.8-1.9c0.5-0.8,0.9-0.9,1.2-0.9c0.2,0,0.3,0.1,0.3,0.1
		c0,0.1,0,0.3-0.3,1c-0.3,0.5-0.8,1.1-1.6,1.8c-0.3,0.2-0.4,0.4-0.6,0.6C566.6,372.5,566.7,372.3,566.7,372.2z M544.1,393.2
		c-0.1-0.3-0.1-0.7-0.1-1l0-0.4c-0.1-0.8,0-1.4,0.1-2.1c0.1-0.7,0.4-1.3,0.8-1.9l0.2-0.3c0.3-0.5,0.6-1,1-1.4c0.6-0.5,1.2-0.8,1.9-1
		c0.6-0.2,1.3-0.3,2.1-0.3c0.6,0,1.1,0.1,1.7,0.3c0.4,0.1,0.9,0.3,1.2,0.5c-0.2,0.2-0.3,0.3-0.5,0.4c-0.2,0.1-0.5,0.3-0.9,0.7
		c-0.4,0.4-0.7,0.6-0.9,0.8c-0.2,0.2-0.5,0.4-0.9,0.8c-0.4,0.4-0.7,0.6-0.9,0.8c-0.2,0.2-0.5,0.4-0.9,0.8l-0.8,0.7
		c-0.3,0.3-0.5,0.5-1,0.9C545.4,392.3,544.8,392.8,544.1,393.2z M561.2,383.1c-0.2,0.4-0.5,0.9-0.5,1.7c0,0.9-0.1,1.7-0.1,2.3
		c0,0.3,0,0.7,0,1c0,0.5,0,0.9-0.1,1.3c-0.2,0.8-0.4,1.6-0.6,2.2c-0.2,0.7-0.5,1.4-0.9,2.1c-0.4,0.7-0.8,1.3-1.3,1.8
		c-0.5,0.5-1,1.1-1.7,1.5c-0.6,0.3-1.2,0.6-2.1,0.8c-0.6,0.2-1.3,0.2-2.2,0.2c-0.8,0-1.6-0.2-2.3-0.3c-0.8-0.2-1.5-0.4-2.1-0.7
		c-0.5-0.3-0.9-0.5-1.2-0.8c0.4-0.2,0.8-0.5,1.2-0.8l0.1-0.1c0.4-0.3,0.7-0.6,1-1c0.2-0.2,0.4-0.4,0.6-0.6c0.4-0.3,0.6-0.4,0.8-0.6
		c0.3-0.1,0.6-0.3,1-0.7c0.4-0.4,0.6-0.6,0.8-0.9c0.2-0.2,0.3-0.4,0.7-0.8c0.4-0.4,0.6-0.6,0.8-0.8c0.2-0.2,0.4-0.4,0.8-0.8
		c0.3-0.3,0.5-0.6,0.7-0.7c0.1-0.2,0.2-0.3,0.4-0.4c0.2,0.4,0.3,0.8,0.3,1.2c0,0.5-0.3,1.1-0.6,1.6c-0.3,0.5-0.6,0.9-1.1,1.3
		l-0.3,0.3l0.2,0.3c0.1,0.2,0.2,0.4,0.3,0.6c0.3,0.7,0.5,1,1.5,1.5l0.3,0.1l0.2-0.2c0.9-0.7,1.6-1.4,2-2c0.5-0.9,0.8-1.8,0.9-2.5
		c0.1-0.7,0-1.5-0.2-2.1l-0.2-0.9c-0.1-0.5-0.2-1.1-0.4-1.7c0.3-0.5,0.5-0.6,0.8-0.8c0.2-0.2,0.5-0.4,1-0.8c0.5-0.5,0.7-1,0.9-1.5
		c0.1-0.2,0.2-0.4,0.2-0.4c0,0,0.1,0,0.3,0.1c0.3,0.1,0.3,0.2,0.3,0.2C561.5,382.7,561.3,383,561.2,383.1z"/>
	<path class="st0" d="M580.1,376.9c0.7,0,1.4-0.3,2-0.8c0.6-0.5,0.9-1.2,0.9-2c0-0.7-0.1-1.6-0.7-2.2c-0.6-0.5-1.4-0.8-2.2-0.8
		c-0.8,0-1.6,0.3-2.1,0.9c-0.5,0.5-0.8,1.2-0.8,2.1c0,0.8,0.3,1.5,0.9,2C578.6,376.6,579.3,376.9,580.1,376.9z"/>
	<path class="st0" d="M631,389l-0.1,0l-0.1,0c-0.2,0-0.5,0.1-0.5,0.5c-0.4,0.5-0.9,0.9-1.3,1.3l-0.4,0.4c-0.6,0.5-1.1,1-1.7,1.5
		c-0.5,0.4-1.2,0.8-1.9,1.3c-0.7,0.4-1.4,0.7-2.1,0.9c-0.7,0.3-1.4,0.4-2.2,0.4c-0.9,0-1.5-0.1-2-0.4c-0.4-0.3-0.8-0.8-0.7-1.6
		c0.1-0.6,0.4-1.2,0.8-2c0.1-0.1,0.1-0.3,0.2-0.4c0.5,0.2,1.2,0.3,2,0.3l0.3,0c0.6,0,1.3,0.1,2,0c0.6-0.1,1.3-0.4,1.8-0.7l0.5-0.2
		c0.6-0.3,1.2-0.5,1.8-1c0.5-0.4,1.1-0.9,1.6-1.6c0.4-0.5,0.9-1.1,1.3-1.8c0.1-0.2,0.2-0.3,0.3-0.4c0.1-0.1,0.2-0.3,0.4-0.5
		c0.4-0.7,0.7-1.5,0.9-2.4c0.2-0.9,0-1.8-0.4-2.6c-0.5-0.9-1.1-1.5-1.8-1.9c-0.7-0.3-1.6-0.5-2.5-0.5c-0.9,0-1.7,0.2-2.5,0.4
		c-0.8,0.2-1.6,0.5-2.3,1c-0.7,0.4-1.3,0.9-2,1.6c-0.6,0.6-1,1.3-1.5,2c-0.3,0.4-0.4,0.6-0.6,0.8c-0.2,0.2-0.4,0.4-0.7,0.9
		c-0.3,0.5-0.4,0.7-0.5,1c-0.1,0.2-0.2,0.5-0.5,0.9c-0.3,0.4-0.4,0.7-0.6,0.9c-0.2,0.2-0.3,0.4-0.6,0.9c-0.3,0.5-0.4,0.7-0.5,0.9
		c0,0.1-0.1,0.2-0.2,0.3c-0.1,0.1-0.2,0.2-0.3,0.3l-0.4,0.4c-0.4,0.4-0.8,0.9-1.2,1.3c-0.6,0.5-1.2,1.1-1.8,1.5
		c-0.4,0.3-0.8,0.5-1.3,0.7c-0.3,0.1-0.5,0.3-0.8,0.4c-0.2,0.1-0.5,0.3-0.7,0.4c-0.5,0.3-0.9,0.6-1.3,0.7c-0.6,0.2-1.4,0.3-2.2,0.3
		c-0.9,0-1.6-0.2-2-0.4c-0.5-0.4-0.8-0.9-0.7-1.6c0.1-0.4,0.4-1,0.8-1.6l0.2-0.3c0,0,0,0,0,0c0.3-0.5,0.4-0.8,0.6-1
		c0.1-0.2,0.2-0.4,0.4-0.9c0.3-0.4,0.4-0.6,0.6-0.8c0.2-0.2,0.3-0.4,0.6-0.9c0.3-0.5,0.4-0.7,0.5-0.9c0.1-0.2,0.2-0.5,0.5-0.9
		c0.3-0.5,0.4-0.7,0.5-1c0.1-0.2,0.2-0.5,0.5-0.9c0.4-0.6,0.9-1.2,1.4-1.6c0.6-0.5,1.3-0.8,1.8-0.8c0.2,0,0.5,0,0.7,0.2
		c0.2,0.2,0.2,0.5,0.2,0.7c0,0.6-0.2,1.3-0.6,1.9c-0.1,0.1-0.3,0.3-0.4,0.4c-0.3,0.2-0.6,0.5-0.5,0.8c0,0.2,0.1,0.4,0.5,0.5
		c1.5,0.5,1.9,0.4,2.9,0.1c0.2-0.1,0.5-0.1,0.8-0.2c0.7-0.2,0.8-0.6,0.8-0.8c0-0.1,0-0.2,0.1-0.3c0.6-0.9,0.8-1.8,0.9-2.4
		c0.1-0.8,0.2-1.8-0.2-2.6c-0.4-0.7-1-1.3-2-1.8c-0.7-0.4-1.6-0.5-2.5-0.5c-0.8,0-1.7,0-2.5,0.2c-0.7,0.2-1.3,0.6-1.9,0.9l-0.4,0.2
		c-0.7,0.4-1.4,1-2,1.6l-0.3,0.3c-0.5,0.5-1,1-1.4,1.6c-0.3,0.5-0.4,0.8-0.5,1c-0.1,0.2-0.2,0.5-0.5,0.9c-0.3,0.4-0.4,0.6-0.6,0.8
		c-0.2,0.2-0.4,0.4-0.7,0.9c-0.3,0.5-0.4,0.7-0.5,1c-0.1,0.2-0.2,0.5-0.5,0.9c-0.3,0.4-0.4,0.6-0.6,0.8c-0.1,0.1-0.2,0.2-0.3,0.4
		c-0.1,0.1-0.1,0.2-0.2,0.2c-0.3,0.4-0.7,0.7-1,1c-0.3,0.2-0.5,0.5-0.8,0.7c-0.2,0.2-0.4,0.5-0.7,0.7c-0.4,0.4-0.7,0.8-1.1,1.1
		c-0.7,0.6-1.3,1.1-1.9,1.5c-0.7,0.4-1.5,0.9-2,0.9c-0.1,0-0.4,0-0.5-0.2c-0.1-0.2-0.1-0.6,0.4-1.4c0.3-0.5,0.5-0.7,0.6-1
		c0.2-0.3,0.3-0.5,0.7-1l1.2-2c0.3-0.5,0.5-0.7,0.6-0.9c0.2-0.2,0.4-0.5,0.7-1c0.3-0.5,0.4-0.8,0.6-1.1c0.1-0.3,0.2-0.5,0.5-1
		c0.3-0.5,0.5-0.7,0.6-0.9c0.2-0.2,0.4-0.5,0.7-1c0.6-1,0.8-1.9,0.8-2.6c0-0.9-0.3-1.8-1.1-2.5c-0.8-0.7-1.6-1.1-2.5-1.1
		c-0.8,0-1.6,0.2-2.4,0.5c-0.5,0.2-0.9,0.4-1.4,0.7c0-0.1,0-0.2,0-0.3c0-0.1-0.1-0.6-0.5-0.8c-0.4-0.2-0.8-0.1-1.2,0.1
		c-0.3,0.1-0.6,0.2-0.9,0.2c-0.3,0-0.5-0.1-0.8-0.1c-0.5-0.1-0.9-0.2-1.6,0.2c-0.8,0.5-0.9,0.9-1,1.4c-0.1,0.2-0.1,0.5-0.3,0.8
		c-0.3,0.4-0.4,0.6-0.6,0.8c-0.2,0.2-0.4,0.5-0.7,1c-0.3,0.5-0.4,0.7-0.6,0.9c-0.2,0.2-0.3,0.5-0.6,1c-0.3,0.5-0.4,0.7-0.6,1
		c-0.1,0.2-0.3,0.5-0.6,1c-0.3,0.5-0.4,0.8-0.6,1c-0.1,0.2-0.3,0.5-0.5,1c-0.3,0.4-0.4,0.7-0.5,0.9c-0.3,0.1-0.4,0.3-0.5,0.5
		c0,0,0,0.1,0,0.1c-0.5,0.6-1.1,1.2-1.6,1.7l-0.1,0.1c-0.2,0.2-0.4,0.4-0.6,0.6c-0.4,0.4-0.8,0.8-1.2,1.2l-0.4,0.4
		c-0.5,0.5-1,0.9-1.5,1.2c-0.8,0.5-1.6,0.8-2.1,0.8c-0.2,0-0.4-0.1-0.4-0.1c0,0-0.2-0.4,0.4-1.3l1.1-1.9c0.3-0.5,0.4-0.8,0.5-1
		c0.1-0.2,0.2-0.5,0.5-0.9c0.3-0.5,0.4-0.7,0.6-1c0.1-0.2,0.2-0.5,0.5-0.9c0.3-0.5,0.4-0.7,0.6-0.9c0.2-0.2,0.3-0.5,0.6-0.9
		c0.3-0.5,0.4-0.7,0.6-0.9c0.2-0.2,0.3-0.5,0.6-0.9c0.3-0.5,0.4-0.7,0.6-0.9c0.2-0.2,0.3-0.5,0.6-0.9c0.3-0.5,0.4-0.8,0.5-1
		c0.1-0.2,0.2-0.5,0.5-0.9c0.2-0.3,0.4-0.5,0.7-0.6c0.4-0.3,1.1-0.8,0.6-1.7c-0.5-1-1.3-0.7-1.8-0.5c-0.3,0.1-0.5,0.2-0.8,0.2
		c-0.3,0-0.5,0-0.8-0.1c-0.5-0.1-0.9-0.2-1.6,0.3c-0.7,0.4-0.9,0.8-1,1.3c-0.1,0.2-0.1,0.5-0.3,0.8c-0.3,0.5-0.5,0.8-0.6,1
		c-0.2,0.3-0.3,0.5-0.6,1c-0.3,0.5-0.5,0.7-0.6,0.9c-0.2,0.2-0.4,0.5-0.7,1c-0.3,0.5-0.5,0.8-0.6,1c-0.1,0.3-0.3,0.5-0.6,1
		c-0.3,0.5-0.5,0.7-0.6,1c-0.2,0.3-0.3,0.5-0.6,1c-0.3,0.5-0.5,0.7-0.6,1c-0.2,0.2-0.3,0.5-0.6,1c-0.3,0.5-0.5,0.8-0.6,1.1
		c-0.1,0.3-0.2,0.5-0.5,1l-0.2,0.3c-0.3,0.6-0.7,1.1-0.8,1.7c-0.2,0.9-0.1,1.7,0.2,2.4c0.3,0.7,0.9,1.2,1.8,1.6
		c0.6,0.3,1.3,0.6,2.2,0.6c0.7,0,1.4-0.3,2.1-0.5l0.3-0.1c0.4-0.2,0.8-0.3,1.3-0.5c0,0.1,0.1,0.3,0.1,0.4c0.3,0.5,0.6,0.7,1,0.7
		c0.3,0,0.6-0.1,0.8-0.2c0.3-0.1,0.6-0.2,0.9-0.2c0.3,0,0.6,0.1,0.8,0.2c0.4,0.1,0.9,0.3,1.7-0.2c0.8-0.5,1-1,1.1-1.5
		c0.1-0.3,0.2-0.5,0.4-0.9c0.3-0.5,0.5-0.8,0.6-1.1c0.2-0.3,0.3-0.5,0.6-1.1c0.3-0.6,0.5-0.9,0.6-1.2c0.1-0.3,0.3-0.5,0.6-1.1
		c0.3-0.5,0.5-0.7,0.7-0.9c0.2-0.3,0.4-0.5,0.8-1.1c0.3-0.5,0.5-0.9,0.6-1.1c0.1-0.3,0.2-0.6,0.5-1c0.4-0.5,0.8-0.9,1.2-1.3l0.5-0.5
		c0.6-0.6,1.1-1.1,1.6-1.6l0.6-0.5c0.5-0.5,1-0.9,1.4-1.2c1.1-0.7,1.7-0.8,2-0.7c0.1,0.2,0,0.8-0.5,1.5c-0.3,0.4-0.4,0.6-0.6,0.9
		c-0.2,0.2-0.3,0.5-0.6,0.9c-0.3,0.5-0.4,0.7-0.6,0.9c-0.1,0.2-0.3,0.5-0.6,0.9c-0.3,0.5-0.4,0.7-0.5,1c-0.1,0.2-0.2,0.5-0.5,0.9
		c-0.3,0.4-0.4,0.6-0.6,0.8c-0.2,0.2-0.4,0.4-0.6,0.9c-0.3,0.5-0.4,0.8-0.5,1.1c-0.1,0.2-0.2,0.5-0.4,0.9c-0.4,0.7-0.8,1.3-0.9,2
		c-0.2,0.9,0.1,1.7,0.4,2.3c0.3,0.6,0.6,1.4,1.5,1.8c0.6,0.3,1.3,0.3,2,0.3l0.3,0c0.8,0,1.6-0.1,2.4-0.5c0.7-0.2,1.4-0.5,2.1-0.9
		c0.6-0.3,1.1-0.8,1.7-1.2l0.2-0.2c0.4-0.3,0.8-0.7,1.1-1c0.2,0.8,0.7,1.5,1.3,2.2c0.6,0.6,1.4,1.1,2.3,1.4c0.7,0.2,1.6,0.3,2.6,0.3
		c0.8,0,1.6,0,2.3-0.2c0.7-0.2,1.4-0.4,2.2-0.7c0.6-0.3,1.3-0.6,2.1-1c0.6-0.3,1.3-0.7,1.9-1.2c0.4-0.3,0.7-0.6,1.2-0.9
		c0.2,0.8,0.6,1.5,1.4,2.2c0.6,0.5,1.3,1.2,2.2,1.5c0.7,0.2,1.6,0.4,2.6,0.4c0.7,0,1.3-0.1,1.9-0.3l0.3-0.1c0.7-0.1,1.5-0.3,2.2-0.6
		c0.6-0.2,1.3-0.5,2.1-1c0.6-0.3,1.3-0.7,1.9-1.2c0.6-0.4,1.1-0.9,1.8-1.4c0.4-0.4,0.8-0.7,1.2-1.1l0.4-0.4c0.2-0.2,0.3-0.3,0.5-0.5
		c0.4-0.4,0.8-0.7,1.1-1.1l0.2-0.3l-0.2-0.3C632.6,389.9,631.7,389.3,631,389z M621.2,386.9c0.1-0.2,0.3-0.4,0.5-0.6
		c0.6-0.7,0.7-1,1-1.5c0.1-0.2,0.3-0.4,0.5-0.8c0.4-0.7,0.9-1.3,1.4-1.7c0.6-0.5,1.3-0.8,1.8-0.8c0.2,0,0.5,0,0.7,0.2
		c0.2,0.2,0.2,0.5,0.2,0.7c0,0.5-0.3,1.1-0.7,1.9c-0.2,0.3-0.2,0.4-0.3,0.6c-0.1,0.1-0.1,0.2-0.3,0.5c-0.4,0.7-0.9,1.4-1.5,1.8
		c-0.8,0.6-1.6,0.8-2.1,0.9c-0.5,0.1-1.1,0-1.8-0.2C620.7,387.5,620.9,387.3,621.2,386.9z"/>
	<path class="st0" d="M661.2,384.2c0.2-0.8,0.4-1.6,0.3-2.4c-0.2-0.8-0.6-1.6-1.2-2.3c-0.5-0.6-1.2-1-2.1-1.4
		c-0.7-0.3-1.5-0.6-2.4-0.6c-0.8,0-1.6,0.2-2.4,0.4c-0.8,0.2-1.5,0.6-2.2,1.1l-0.2,0.1c-0.6,0.4-1.2,0.7-1.7,1.3
		c-0.5,0.5-1.1,1.2-1.5,1.9c-0.3,0.4-0.5,0.7-0.8,0.9c-0.5,0.4-1,0.9-0.7,2.1c0,0.1,0.1,0.6,0.5,0.8c0.4,0.2,0.8,0,1.1-0.2
		c0.3-0.1,0.6-0.3,0.9-0.3c0.3,0,0.6,0.1,0.8,0.2c0.4,0.1,0.8,0.3,1.6-0.1c0.8-0.4,0.9-0.8,1-1.3c0.1-0.2,0.1-0.4,0.3-0.7
		c0.5-0.8,1-1.4,1.4-1.8c0.7-0.5,1.4-0.8,1.9-0.7c0.6,0.1,0.9,0.6,0.9,1.3c0,0.6-0.2,1.3-0.7,2l0,0c-0.3,0.4-0.6,0.8-0.9,1.2
		c-0.2,0.2-0.4,0.4-0.5,0.7c-0.2,0.2-0.4,0.5-0.5,0.7c-0.3,0.4-0.6,0.8-0.9,1.2c-0.6,0.6-1.1,1.2-1.7,1.6c-0.6,0.5-1.3,1-1.9,1.4
		c-0.5,0.4-1.1,0.6-1.7,0.9l-0.3,0.2c-0.6,0.3-1.3,0.6-2.2,0.9c-0.3,0.1-0.6,0.2-0.8,0.3c-0.5,0.2-0.9,0.4-1.4,0.5
		c-0.4,0.1-0.8,0.2-1.3,0.2c-0.4,0.1-0.7,0.1-1.1,0.2l-0.2,0l-0.1,0.1c-0.3,0.3-0.6,0.5-0.8,0.8c-0.7,0.5-1.3,1.1-0.9,2.4
		c0.1,0.4,0.3,0.6,0.6,0.8c0.1,0.1,0.3,0.1,0.4,0.1c0.3,0,0.6-0.1,0.9-0.3c0.4-0.1,0.7-0.3,1.1-0.3c0.6,0,0.9,0,1.3,0
		c0.3,0,0.6,0,1.2,0c0.6,0,0.9,0,1.3,0c0.3,0,0.6,0,1.2,0c0.6,0,0.9,0,1.2,0c0.3,0,0.6,0.1,1.3,0.1c0.6,0,0.9,0,1.3,0
		c0.3,0,0.6,0,1.2,0c0.4,0,0.7,0.1,0.9,0.2c0.5,0.2,1,0.3,1.8-0.2l0.3-0.2c1.1-0.7,2.1-1.3,1.5-3c-0.1-0.4-0.3-0.6-0.6-0.8
		c-0.4-0.2-0.9,0-1.3,0.2c-0.3,0.1-0.7,0.3-1.1,0.3c-0.6,0-1,0-1.3,0c-0.3,0-0.6,0-1.1,0c0.7-0.3,1.4-0.7,2.1-1.1
		c0.7-0.4,1.3-0.9,2-1.5c0.6-0.5,1.1-1,1.7-1.6l0.2-0.2c0.6-0.6,1.1-1.2,1.6-1.9c0.5-0.6,0.9-1.3,1.4-2.1c0.4-0.7,0.7-1.4,0.9-2.2
		L661.2,384.2z"/>
	<path class="st0" d="M676.2,390.9c0.2-0.2,0.3-0.4,0.6-0.9c0.3-0.4,0.4-0.7,0.5-0.9c0.1-0.2,0.3-0.4,0.5-0.9
		c0.3-0.5,0.4-0.7,0.5-0.9c0.1-0.2,0.2-0.4,0.5-0.9c0.5-0.8,0.7-1.5,0.9-2.2c0.2-0.9,0.4-1.7,0.3-2.4c-0.1-0.9-0.7-1.6-1.1-2.2
		c-0.4-0.5-1-1.2-1.9-1.6c-0.7-0.3-1.5-0.5-2.4-0.5c-1.1,0-1.9,0.1-2.7,0.3c-0.9,0.2-1.7,0.6-2.5,1.2c-0.5,0.4-1.3,0.9-2,1.8
		c-0.5,0.6-1,1.4-1.5,2.2c-0.3,0.5-0.4,0.7-0.5,0.9c-0.1,0.2-0.2,0.4-0.5,0.8c-0.3,0.4-0.4,0.6-0.5,0.8c-0.2,0.2-0.3,0.4-0.6,0.9
		c-0.2,0.4-0.3,0.6-0.4,0.8c-0.1,0.2-0.2,0.4-0.4,0.7c-0.2,0.3-0.3,0.5-0.5,0.6c-0.2,0.2-0.3,0.4-0.6,0.8c-0.5,0.8-0.8,1.5-1.1,2.1
		c-0.3,0.8-0.5,1.6-0.5,2.3c-0.1,0.9,0.2,1.7,0.6,2.4c0.4,0.7,0.8,1.5,1.5,2c0.7,0.5,1.6,0.6,2.3,0.7c0.5,0.1,0.9,0.1,1.4,0.1
		c0.3,0,0.6,0,1-0.1c0.8-0.1,1.5-0.4,2.2-0.8c0.7-0.3,1.4-0.7,2-1.2c0.6-0.4,1.1-1,1.7-1.6l0.2-0.2c0.4-0.5,0.9-1,1.3-1.6
		c0.3-0.5,0.4-0.7,0.5-1c0.1-0.2,0.2-0.4,0.5-0.9C675.9,391.3,676,391.1,676.2,390.9z M674.9,384.4c-0.3,0.5-0.5,0.8-0.7,1
		c-0.2,0.3-0.4,0.5-0.8,1.1c-0.3,0.6-0.5,0.8-0.7,1.1c-0.2,0.3-0.3,0.6-0.7,1.1c-0.3,0.5-0.5,0.8-0.7,1.1c-0.2,0.3-0.4,0.6-0.7,1.1
		c-0.3,0.6-0.5,0.8-0.7,1.1c-0.2,0.3-0.3,0.6-0.7,1.1c-0.3,0.5-0.8,1-1.4,1.3c-0.6,0.4-1.3,0.5-1.8,0.5c-0.2,0-1-0.2-1-1
		c0-0.4,0.2-1,0.7-1.8l1.1-1.8c0.3-0.4,0.4-0.6,0.5-0.8c0.2-0.2,0.3-0.4,0.6-0.9c0.3-0.5,0.4-0.7,0.5-1c0.1-0.2,0.2-0.4,0.5-0.9
		c0.2-0.4,0.4-0.6,0.5-0.7c0.2-0.2,0.3-0.4,0.6-0.8c0.3-0.4,0.4-0.6,0.5-0.8c0.1-0.2,0.2-0.4,0.5-0.8c0.5-0.9,1-1.4,1.5-1.8
		c0.7-0.6,1.4-0.9,1.9-0.9c0.8,0.1,0.9,0.9,0.9,1.3C675.4,383,675.3,383.7,674.9,384.4z"/>
	<path class="st0" d="M693.1,382.9c0.3-0.3,0.7-0.6,0.8-1.5c0.1-0.8-0.3-1.2-0.6-1.4c-0.2-0.2-0.3-0.3-0.4-0.6
		c-0.1-0.3-0.2-0.5-0.2-0.7c0-0.4-0.1-0.8-0.7-1.3l-0.3-0.3l-0.3,0.2c-0.6,0.4-1.2,0.9-1.9,1.3c-0.7,0.4-1.3,0.7-2,1
		c-0.4,0.2-0.9,0.3-1.4,0.5c-0.2,0.1-0.5,0.2-0.7,0.2l-0.7,0.2c-0.5,0.2-1,0.4-1.5,0.5l-0.4,0.1l0,0.4c0,0.3,0,0.5,0,0.8
		c0,0.8,0,1.5,1.1,2.2l0.2,0.1l0.2-0.1c0.7-0.2,1.5-0.4,2.4-0.7c0.3-0.1,0.7-0.2,1-0.4c0,0.1-0.1,0.1-0.1,0.2
		c-0.1,0.2-0.2,0.4-0.4,0.7c-0.3,0.5-0.5,0.8-0.7,1c-0.2,0.3-0.4,0.5-0.7,1.1c-0.3,0.5-0.5,0.7-0.7,1c-0.2,0.3-0.4,0.5-0.7,1.1
		c-0.3,0.6-0.5,0.9-0.6,1.2c-0.1,0.3-0.2,0.5-0.5,1l-0.6,1c-0.2,0.3-0.3,0.5-0.6,1.1c-0.2,0.4-0.4,0.7-0.5,0.9
		c-0.2,0.4-0.2,0.6-0.8,0.9c-0.2,0.2-0.3,0.2-0.5,0.1c-0.2-0.1-0.5-0.1-0.9-0.1c-0.3,0-0.4-0.1-0.6-0.1c-0.4-0.1-0.8-0.2-1.4,0.3
		c-0.2,0.2-0.4,0.3-0.6,0.4c-0.9,0.6-1.6,1.2-1.2,2.8c0.1,0.4,0.2,0.7,0.5,0.8c0.1,0.1,0.3,0.1,0.4,0.1c0.3,0,0.5-0.1,0.8-0.2
		c0.3-0.1,0.6-0.2,0.9-0.2c0.6,0,0.9,0,1.2-0.1c0.3,0,0.5-0.1,1-0.1c0.5,0,0.8,0,1.1,0c0.3,0,0.6,0,1.1,0c0.6,0,0.8,0,1.1,0
		c0.3,0,0.5,0,1.1,0c0.3,0,0.6,0.1,0.8,0.2c0.5,0.2,1,0.3,1.7-0.2l0.1-0.1c1.2-0.9,1.9-1.4,1.8-3.2c0-0.4-0.2-0.6-0.4-0.7
		c-0.4-0.2-0.8-0.1-1.2,0.1c-0.3,0.1-0.6,0.2-0.8,0.2c-0.4,0-0.8,0.1-1.1,0.3c-0.1,0.1-0.3,0.1-0.3,0.2c0,0,0,0,0-0.1
		c-0.1-0.3-0.1-0.3,0.3-0.6c0.3-0.2,0.7-0.5,0.9-0.9c0.3-0.5,0.5-0.7,0.6-1c0.2-0.2,0.3-0.5,0.6-1c0.3-0.5,0.4-0.8,0.6-1
		c0.1-0.2,0.3-0.5,0.6-1l2.4-4c0.3-0.5,0.5-0.7,0.6-1c0.2-0.2,0.3-0.5,0.6-1C692.7,383.2,692.9,383.1,693.1,382.9z"/>
	<path class="st0" d="M710.8,379.4c-0.5-0.6-1.2-1.1-2-1.5c-0.7-0.3-1.5-0.4-2.4-0.4c-1,0-1.9,0.1-2.7,0.3c-1,0.3-1.8,0.6-2.5,1.1
		c-0.6,0.4-1.3,1-2,1.9c-0.5,0.6-1,1.3-1.5,2.2c-0.3,0.5-0.4,0.7-0.5,0.9c-0.1,0.2-0.2,0.4-0.4,0.8c-0.3,0.4-0.4,0.6-0.5,0.8
		c-0.1,0.2-0.3,0.4-0.5,0.9c-0.2,0.3-0.3,0.5-0.4,0.6c-0.1,0.2-0.2,0.4-0.5,0.9c-0.2,0.3-0.3,0.5-0.5,0.7c-0.1,0.2-0.3,0.4-0.5,0.8
		c-0.4,0.7-0.8,1.4-1,2.1c-0.3,0.7-0.6,1.5-0.6,2.3c0,0.8,0.1,1.6,0.5,2.4c0.4,0.8,0.9,1.5,1.6,1.9c0.7,0.4,1.5,0.7,2.3,0.8
		c0.3,0,0.6,0.1,0.9,0.1c0.5,0,1,0,1.5-0.1c0.8-0.1,1.5-0.5,2.2-0.8l0.2-0.1c0.6-0.3,1.2-0.6,1.8-1c0.6-0.4,1.1-1,1.7-1.7
		c0.5-0.5,1-1.1,1.4-1.8c0.3-0.4,0.4-0.7,0.5-0.9c0.1-0.2,0.3-0.4,0.5-0.9c0.3-0.4,0.4-0.7,0.5-0.9c0.1-0.2,0.2-0.4,0.5-0.9l1.1-1.8
		c0.3-0.4,0.4-0.7,0.5-0.9c0.1-0.2,0.3-0.4,0.5-0.9c0.4-0.7,0.6-1.4,0.8-2l0.1-0.3c0.2-0.8,0.4-1.6,0.3-2.3
		C711.6,380.9,711.3,380.1,710.8,379.4z M706.4,384.3c-0.3,0.6-0.5,0.9-0.7,1.1c-0.2,0.3-0.3,0.6-0.6,1.1c-0.3,0.6-0.5,0.9-0.7,1.1
		c-0.2,0.3-0.3,0.6-0.6,1.1c-0.3,0.6-0.5,0.8-0.7,1.1c-0.2,0.3-0.3,0.6-0.7,1.1c-0.3,0.5-0.5,0.8-0.7,1.1c-0.2,0.3-0.4,0.5-0.7,1.1
		c-0.4,0.6-0.8,1.1-1.4,1.4c-0.6,0.4-1.3,0.5-1.8,0.4c-0.3,0-1-0.2-1-1c0-0.3,0.1-0.9,0.7-1.8c0.3-0.5,0.4-0.7,0.6-0.9
		c0.1-0.2,0.3-0.4,0.5-0.8c0.2-0.4,0.4-0.6,0.5-0.8c0.2-0.2,0.3-0.5,0.6-0.9c0.3-0.4,0.4-0.6,0.5-0.9c0.1-0.2,0.3-0.5,0.6-0.9
		c0.2-0.4,0.4-0.6,0.5-0.8c0.1-0.2,0.2-0.4,0.5-0.8l1-1.6c0.4-0.7,0.9-1.3,1.5-1.8c1-0.8,1.6-1,1.9-0.9c0.8,0.1,0.9,1,0.9,1.3
		C707.2,382.9,706.9,383.6,706.4,384.3z"/>
	<path class="st0" d="M729.8,385.4c-0.4-0.2-0.9,0-1.3,0.1c-0.3,0.1-0.7,0.3-1,0.3c-0.6,0-0.9,0-1.2,0c-0.3,0-0.6,0-1.2,0
		c-0.6,0-0.9,0-1.2,0c-0.3,0-0.6,0-1.2,0l-2.4,0c-0.6,0-0.9,0-1.2,0c-0.3,0-0.6,0-1.2,0c-0.4,0-0.6-0.1-0.9-0.1
		c-0.5-0.1-1-0.3-1.8,0.3c-0.2,0.1-0.3,0.2-0.5,0.3c-0.9,0.6-1.7,1.1-1.8,1.9c0,0.4,0.2,0.8,0.6,1.2c0.4,0.4,0.8,0.5,1.1,0.5
		c0.3,0,0.5-0.1,0.7-0.2c0.3-0.1,0.5-0.2,0.9-0.2c0.6,0,0.9,0,1.2,0c0.3,0,0.6,0,1.2,0l2.4,0c0.6,0,0.9,0,1.2,0c0.3,0,0.6,0,1.2,0
		c0.6,0,0.9,0,1.2,0c0.3,0,0.6,0,1.2,0c0.4,0,0.6,0.1,0.9,0.1c0.5,0.1,1,0.2,1.8-0.3c0.2-0.1,0.3-0.2,0.5-0.3c1-0.7,1.9-1.2,1.4-2.9
		C730.2,385.8,730,385.5,729.8,385.4z"/>
</g>
</svg>
