<?xml version="1.0" encoding="utf-8"?>
<!-- Generator: Adobe Illustrator 19.2.1, SVG Export Plug-In . SVG Version: 6.00 Build 0)  -->
<svg version="1.1" id="Layer_1" xmlns="http://www.w3.org/2000/svg" xmlns:xlink="http://www.w3.org/1999/xlink" x="0px" y="0px"
	 width="180.9px" height="75px" viewBox="0 0 180.9 75" enable-background="new 0 0 180.9 75" xml:space="preserve">
<g>
	<path fill="#103742" d="M9.8,25.5c-0.7-0.6-1.4-1.2-2.3-2c-0.8-0.7-1.5-1.4-2-2.2c-0.5-0.7-0.8-1.4-0.8-2.1c0-0.6,0.3-1.2,1-1.8
		c0.3-0.3,0.8-0.5,1.3-0.6c0.6-0.2,1.2-0.3,1.9-0.3c1.1,0,1.9,0.2,2.4,0.6c0.6,0.5,0.9,1,1.2,1.6l0,0c0.3,0.7,0.4,1.5,0.3,2.6
		l-0.1,1.1l1.1-0.1c0.5,0,1.1-0.1,1.6-0.1l0.9-0.1v-8.7l-1,0.1c-0.5,0-1.1,0.1-1.6,0.1l-0.8,0l-0.1,0.8c0,0-0.1,0-0.2-0.1
		c-0.4-0.2-1-0.3-1.5-0.6c-0.7-0.3-1.5-0.4-2.4-0.3c-2.4,0.1-4.2,0.5-5.4,1.3C2,15.6,1,16.7,0.5,18.2l0,0.1C0.2,19.1,0,20.1,0,21.1
		c0,1,0.2,2.1,0.6,3.2c0.4,1.1,1,2.1,1.9,3.2c0.8,1.1,2,2.2,3.4,3.3c0.7,0.6,1.6,1.4,2.5,2.1c0.9,0.8,1.8,1.6,2.4,2.5
		c0.6,0.8,1,1.6,1.1,2.4c0.1,0.7-0.2,1.3-0.9,2c-0.3,0.3-0.8,0.6-1.4,0.8c-0.6,0.2-1.1,0.3-1.5,0.3c0,0,0,0-0.1,0
		c-0.7,0-1.3-0.1-1.8-0.2c-0.5-0.2-0.8-0.3-1.1-0.6c-0.3-0.2-0.5-0.5-0.7-0.7C4.3,39,4.2,38.7,4,38.3c-0.1-0.4-0.2-0.8-0.3-1.2
		c0-0.4,0-0.8,0.1-1.3l0.2-1.2l-1.2,0c-0.5,0-1,0-1.5,0l-1,0v8.8l1,0c0.5,0,1,0,1.5,0l0.9,0l0.1-0.8c0.1,0,0.2,0.1,0.4,0.1l1.7,0.5
		c0.6,0.2,1.3,0.3,2,0.3c0.2,0,0.3,0,0.5,0c1.3-0.1,2.4-0.3,3.3-0.6c0.9-0.3,1.8-0.8,2.4-1.3c0.7-0.5,1.2-1.1,1.6-1.8
		c0.4-0.6,0.7-1.3,1-1.9l0-0.1c0.6-2.1,0.2-4.2-1.1-6.3C14.4,29.7,12.5,27.7,9.8,25.5z"/>
	<path fill="#103742" d="M28.1,42v-3.3l-1.3,0.5c0,0-0.1,0-0.1,0c0,0,0,0,0,0V30c0.7-0.1,1.4-0.1,2-0.2c1.5-0.1,2.9-0.5,4-0.9
		c1.2-0.5,2.2-1,3-1.7c0.8-0.7,1.5-1.5,1.9-2.3c0.4-0.8,0.6-1.7,0.7-2.5c0-0.6,0.1-1.3,0.1-2.1c0-0.8,0-1.5-0.1-2.1
		c0-0.9-0.2-1.7-0.7-2.5c-0.4-0.8-1.1-1.4-2-1.9c-0.8-0.5-1.9-0.9-3.1-1.1c-1.2-0.2-2.5-0.2-4-0.1c-2.9,0.3-5.7,0.5-8.4,0.7
		l-0.9,0.1v3.1l1.2-0.3c0.2,0,0.2,0,0.3,0l0,0c0,0,0,0,0.1,0c0,0,0,0.1,0,0.1v23.3c0,0.1,0,0.1,0,0.1c0,0-0.1,0.1-0.1,0.1l-0.2,0
		l-0.1,0c0,0-0.1,0-0.1,0l-1.2-0.2v3.2l1.1-0.1c2.3-0.2,4.6-0.4,7-0.6L28.1,42z M29.9,15.5c0.4,0.1,0.8,0.2,1.2,0.4
		c0.3,0.2,0.6,0.4,0.8,0.7c0.2,0.3,0.3,0.6,0.3,1.1v5.8c0,0.5-0.1,0.9-0.3,1.2c-0.3,0.4-0.6,0.8-1,1.1c-0.4,0.3-0.7,0.5-1.1,0.7
		c-0.4,0.1-0.7,0.2-1,0.3c-0.7,0.1-1.5,0.1-2.2,0.2V15.6c0.8-0.1,1.6-0.2,2.4-0.2C29.2,15.4,29.5,15.4,29.9,15.5z"/>
	<path fill="#103742" d="M58,35.6c0.6-0.7,1-1.4,1.3-2.2c0.3-0.7,0.5-1.6,0.6-2.6c0.1-1,0.1-2.1,0.1-3.3v-4.3c0-2.2,0-4.1-0.1-5.6
		c-0.1-1.5-0.2-2.8-0.5-3.8c-0.2-1-0.7-1.9-1.5-2.5c-0.7-0.6-1.6-1.1-2.6-1.3c-0.7-0.2-1.5-0.3-2.3-0.4c-0.8,0-1.6,0-2.4,0.1
		c-1.6,0.2-3.2,0.8-4.7,1.6c-1,0.6-1.8,1.2-2.5,2c-0.7,0.8-1.2,1.7-1.4,2.7c-0.3,1.1-0.5,2.4-0.5,3.9c0,1.5-0.1,3.3-0.1,5.6V30
		c0,1.3,0.1,2.4,0.1,3.3c0.1,1,0.3,1.8,0.6,2.5c0.3,0.7,0.8,1.4,1.4,1.9c0.9,0.8,2.1,1.3,3.4,1.6c0.7,0.1,1.5,0.2,2.2,0.2
		c0.6,0,1.2,0,1.7-0.1c1.3-0.2,2.6-0.6,3.9-1.2C56.1,37.4,57.2,36.6,58,35.6z M54.2,23.8c0,1.6-0.1,3.2-0.1,4.7v3.9
		c0,1.4-0.3,2.3-0.8,2.9c-0.6,0.6-1.4,1-2.7,1.2c-1.2,0.2-2,0.1-2.6-0.3c-0.6-0.5-0.7-1.6-0.7-2.5v-17c0-1.3,0.3-2.3,0.9-2.8
		c0.7-0.6,1.6-1,2.6-1.2c0.3,0,0.6-0.1,0.8-0.1c0.6,0,1.2,0.1,1.6,0.4c0.5,0.3,0.8,1.1,0.8,2.3v3.9C54.1,20.6,54.2,22.2,54.2,23.8z"
		/>
	<path fill="#103742" d="M79.5,31.8c0.6-0.7,1-1.4,1.3-2.2c0.3-0.7,0.5-1.6,0.6-2.6c0.1-1,0.1-2.1,0.1-3.3v-4.3c0-2.2,0-4.1-0.1-5.6
		c-0.1-1.5-0.2-2.8-0.5-3.7c-0.2-1-0.7-1.9-1.5-2.5c-0.7-0.6-1.6-1-2.7-1.3C76,6.1,75.2,6,74.4,5.9c-0.8,0-1.6,0-2.4,0.2
		c-1.6,0.3-3.2,0.9-4.7,1.8c-1,0.6-1.8,1.3-2.5,2.1c-0.7,0.8-1.2,1.8-1.4,2.8c-0.3,1.1-0.5,2.4-0.5,4c0,1.5-0.1,3.3-0.1,5.6v4.3
		c0,1.3,0.1,2.4,0.1,3.3c0.1,1,0.3,1.8,0.6,2.5c0.3,0.7,0.8,1.4,1.4,1.8c0.9,0.7,2.1,1.2,3.4,1.4c0.6,0.1,1.2,0.1,1.8,0.1
		c0.7,0,1.4-0.1,2.1-0.2c1.3-0.2,2.6-0.7,3.9-1.3C77.5,33.7,78.6,32.8,79.5,31.8z M74.7,31.6c-0.6,0.6-1.5,1.1-2.7,1.3
		c-1.2,0.2-2,0.1-2.6-0.3c-0.5-0.3-0.7-1.2-0.7-2.4v-17c0-1.3,0.3-2.3,1-2.9c0.7-0.7,1.6-1.1,2.6-1.3C72.7,9,73,8.9,73.2,8.9
		c0.6,0,1.1,0.1,1.5,0.4c0.6,0.4,0.8,1.4,0.8,2.3v3.9c0,1.5,0,3.1,0.1,4.6c0,1.6-0.1,3.2-0.1,4.7v3.9C75.5,30,75.3,31,74.7,31.6z"/>
	<path fill="#103742" d="M102.9,29.8l0.8-0.1V3.6c0-0.1,0-0.2,0-0.2c0.1-0.1,0.1-0.1,0.2-0.2c0.1,0,0.2-0.1,0.5-0.1l1,0V0l-1.2,0.2
		c-1.7,0.3-3.4,0.6-5.1,0.9l-0.8,0.1v3.2L99.7,4c0.2-0.1,0.3-0.1,0.4-0.1v16.8c-2.8-5.8-5.5-11.7-8.3-17.5l-0.3-0.7l-0.7,0.1
		c-2,0.4-3.9,0.7-5.9,1.1L84,4v3.2l1.3-0.5c0.2-0.1,0.3-0.1,0.4-0.1v23.2c0,0.1,0,0.1,0,0.1c-0.1,0.1-0.2,0.2-0.3,0.2
		c-0.1,0-0.3,0.1-0.4,0.1l-1,0v3.1l1.2-0.2c1.7-0.3,3.4-0.6,5.1-0.9L91,32v-3.2l-1.3,0.4c-0.2,0.1-0.3,0.1-0.4,0.1V13.9
		c2.6,5.4,5.1,10.8,7.7,16.3l0.3,0.7l0.7-0.1C99.7,30.4,101.3,30.1,102.9,29.8z"/>
	<path fill="#103742" d="M125.8,20.1c0.9-0.1,1.9-0.3,2.8-0.4l-0.7,2c-0.4,1.2-0.4,2.1,0,2.6c0.3,0.4,0.8,0.5,1.4,0.4
		c0.3-0.1,0.7-0.2,1.1-0.4c0.7-0.1,1.5-0.2,2.2-0.3l0.1,0l0-0.1c1.2-2,2.4-4.1,3.6-6.1c2.5-3.1,3.9-3.7,4.1-3.6
		c0.1,0.1,0.1,0.3-0.2,0.9c-1,1.7-2,3.4-3,5.1c-0.5,0.9-0.6,1.8-0.2,2.4c0.4,0.5,1.1,0.8,2,0.7c0.8-0.1,1.8-0.6,2.8-1.4
		c0,0,0,0.1,0,0.1c0.3,0.5,0.8,0.7,1.6,0.7c0.1,0,0.3,0,0.4,0c0.9-0.1,2-0.7,3.1-1.6c0.2,0.7,1,1.1,2.1,1c1.6-0.2,3.7-1.7,6.2-4.5
		l0.1-0.1l-0.1-0.1c-0.2-0.3-0.6-0.6-1-0.7l-0.1,0l-0.2,0.3c-2,2.3-3.4,3.4-4.3,3.5c-0.2,0-0.3,0-0.3-0.1c0,0-0.1-0.2,0.2-0.8
		c2.7-4.5,5.4-8.8,7.9-13.1l0.2-0.3l-0.3,0c-0.8,0.1-1.6,0.1-2.3,0.2l-0.1,0l0,0.1c-1.1,1.8-2.2,3.6-3.3,5.5
		c-0.4-0.5-1.2-0.9-2.1-0.7c-1.3,0.1-3.1,1.2-4.1,3c-1.1,1.8-2.2,3.7-3.3,5.5c-0.1,0.2-0.2,0.3-0.2,0.5c-1,0.9-1.7,1.4-2.2,1.5
		c-0.2,0-0.3,0-0.3-0.1c0,0-0.1-0.2,0.2-0.8c1.1-1.9,2.3-3.8,3.4-5.7c0.7-1.2,0.4-1.9,0.2-2.2c-0.3-0.5-0.9-0.7-1.6-0.6
		c-0.8,0.1-1.6,0.5-2.5,1.2l0.4-0.8l-0.3,0c-0.8,0.1-1.6,0.2-2.3,0.3l-0.1,0l0,0.1c-1.7,2.9-3.4,5.7-5.1,8.6
		c-0.7,0.7-1.3,1.1-1.4,1.2c-0.1,0-0.1,0-0.1,0c0,0,0-0.2,0.2-0.8c1.5-4.3,3.1-8.5,4.6-12.8l0.1-0.2l-0.2,0
		c-2.7-0.4-5.6,3.4-8.6,7.4c-2.8,3.7-5.7,7.5-8.5,8c-1.4,0.2-2.5-0.1-3-0.9c-0.7-1-0.5-2.7,0.5-4.3c1.1-1.9,2.9-3.1,4.5-3.1
		c0.9,0,1.5,0.5,1.9,1.2l0.1,0.1l0.1-0.1c0.6-0.3,1.2-0.6,1.9-1l0.1-0.1l-0.1-0.1c-0.7-1.3-2-2-3.6-2.1c-2.6-0.1-5.5,1.7-7,4.3
		c-1.4,2.4-1.6,4.8-0.5,6.4c0.8,1.1,2.2,1.8,3.8,1.8c0.4,0,0.8,0,1.3-0.1C121,26,123.7,23,125.8,20.1z M126.9,18.6
		c0.3-0.5,0.7-1,1-1.4c1.1-1.6,2.1-3.1,3.2-4.3c-0.7,1.8-1.3,3.6-2,5.4C128.4,18.4,127.6,18.5,126.9,18.6z M147.5,14.7
		c0.6-1,1.4-1.4,2-1.4c0.2,0,0.3,0,0.4,0.1c0.3,0.2,0.3,0.7,0,1.3l-0.1,0.2c-0.6,0.9-1.1,1.8-1.7,2.7c-1.5,2.4-2.9,3.3-3.7,3.4
		c-0.2,0-0.3,0-0.3-0.1c0,0-0.1-0.2,0.2-0.8l0,0C145.4,18.3,146.4,16.5,147.5,14.7z"/>
	<path fill="#103742" d="M153.7,20.3c0,0.3,0.1,0.6,0.4,0.9c0.2,0.2,0.6,0.3,0.9,0.3c0.1,0,0.1,0,0.2,0c0.8-0.1,1.5-0.7,1.5-1.4
		c0-0.3-0.1-0.6-0.4-0.9c-0.3-0.3-0.7-0.4-1.1-0.3C154.3,18.9,153.7,19.6,153.7,20.3z"/>
	<path fill="#103742" d="M36.8,45.9c-0.7-0.5-1.6-0.8-2.7-1c-1.1-0.2-2.3-0.2-3.7-0.1c-3,0.3-6,0.6-8.8,0.8l-0.9,0.1v3.2l1.2-0.3
		c0.1,0,0.2,0,0.2,0c0,0,0,0,0,0.1v23.2c0,0.1,0,0.2,0,0.2c0,0-0.1,0-0.1,0.1l-0.1,0c0,0,0,0-0.1,0l-1.2-0.2V75l1-0.1
		c1.6-0.1,3.3-0.2,4.8-0.4c1.8-0.2,3.6-0.4,5.5-0.6c0.8-0.1,1.6-0.4,2.5-0.8c0.8-0.4,1.5-0.9,2.2-1.6c0.7-0.6,1.3-1.3,1.7-2.1
		c0.5-0.8,0.7-1.7,0.7-2.5v-3.3c0-1.1-0.2-2-0.6-2.7c-0.4-0.7-0.9-1.3-1.5-1.8c-0.2-0.1-0.4-0.3-0.6-0.4c0.3-0.2,0.5-0.4,0.7-0.7
		c0.5-0.6,1-1.2,1.4-2c0.4-0.8,0.6-1.7,0.6-2.7v-3.6c0-0.8-0.2-1.5-0.5-2.2C38.1,47,37.5,46.4,36.8,45.9z M33.2,48.6
		c0.2,0.2,0.3,0.6,0.3,1v4.3c0,0.3,0,0.6-0.1,0.9c0,0.2-0.1,0.5-0.1,0.7c0,0.1-0.1,0.2-0.1,0.3c-0.1,0.2-0.1,0.4-0.2,0.5
		c0,0,0,0,0,0.1c-0.3,0.6-0.7,1-1.3,1.2c-0.6,0.3-1.3,0.5-2.1,0.5c-0.6,0.1-1.2,0.1-1.7,0.2V47.9c0.7-0.1,1.5-0.1,2.2-0.2
		c0.5,0,1,0,1.4,0c0.3,0,0.7,0.1,0.9,0.2C32.7,48.1,33,48.3,33.2,48.6z M28,71.5V61.2c0.6-0.1,1.3-0.1,1.9-0.2
		c0.7-0.1,1.3,0,1.9,0.2c0.5,0.2,1,0.5,1.3,1.1l0,0c0,0,0,0.1,0.1,0.1c0,0.1,0.1,0.2,0.1,0.3c0,0.1,0.1,0.2,0.1,0.3
		c0,0.1,0,0.2,0.1,0.3c0.1,0.3,0.1,0.5,0.1,0.8v3.5c0,0.2,0,0.4,0,0.6c0,0.2-0.1,0.4-0.1,0.6c-0.2,0.8-0.7,1.3-1.4,1.7
		c-0.8,0.4-1.7,0.7-2.6,0.8C28.9,71.4,28.4,71.5,28,71.5z"/>
	<path fill="#103742" d="M42,43.4l-0.9,0.1v3.1l1.3-0.4c0.1,0,0.2,0,0.2-0.1c0,0,0,0,0,0.1v23.3c0,0.1,0,0.2,0,0.2
		c0,0.1-0.1,0.1-0.1,0.1l0,0c-0.1,0-0.2,0-0.3,0l-1.1-0.1v3.2l1.1-0.1c2.2-0.3,4.6-0.6,7-1l0.8-0.1v-3.3l-1.3,0.5
		c-0.1,0-0.1,0-0.1,0V45.7c0-0.1,0-0.2,0-0.2c0.1-0.1,0.1-0.1,0.1-0.1c0,0,0.1,0,0.3,0l1,0v-3.1L49,42.4
		C46.6,42.7,44.3,43.1,42,43.4z"/>
	<path fill="#103742" d="M70,65.6L70,65.6c-0.1,0-0.2,0-0.2,0c-0.1-0.3-0.1-0.7-0.1-1.2v-6.1c0-0.9-0.3-2.3-1.8-3.1
		c0.8-0.6,1.4-1.2,1.9-1.9c0.9-1.2,1.3-2.5,1.3-3.7v-4.2c0-0.9-0.2-1.7-0.7-2.5c-0.5-0.8-1.1-1.4-2-1.8c-0.8-0.4-1.9-0.7-3.1-0.9
		c-1.2-0.1-2.5-0.1-4,0.2c-2.9,0.5-5.6,0.9-8.2,1.3l-0.8,0.1v3l1.2-0.3c0.1,0,0.2,0,0.3-0.1c0,0,0,0,0,0v23.3c0,0.1,0,0.2,0,0.2
		c-0.1,0.1-0.1,0.1-0.1,0.1l-0.1,0l-0.1,0.1c0,0,0,0-0.1,0l-1.1-0.1v3.3l1.1-0.2c2.2-0.3,4.5-0.7,6.9-1.1l0.8-0.1v-3.4l-1.4,0.6
		c0,0,0,0,0,0V58c0.5-0.1,1-0.2,1.5-0.2c0.3,0,0.7,0,1-0.1c0.3,0,0.6,0,0.9,0.1c0.2,0.1,0.3,0.1,0.4,0.3c0,0.1,0.1,0.2,0.1,0.7v6.3
		l0,0.1c0,0.8,0.3,1.6,0.7,2.1c0.4,0.5,0.9,0.9,1.4,1.2c0.5,0.3,1.1,0.4,1.7,0.5c0.6,0,1.2,0,1.7-0.1c0.7-0.1,1.2-0.3,1.7-0.5
		c0.4-0.2,0.7-0.4,1-0.6l0.4-0.3v-3l-1.9,1C70.4,65.5,70.3,65.5,70,65.6z M62.9,43.3c0.4,0.1,0.7,0.2,1.1,0.4
		c0.3,0.2,0.6,0.4,0.8,0.7c0.2,0.2,0.3,0.6,0.3,1v5.8c0,0.5-0.1,0.9-0.3,1.3c-0.3,0.4-0.6,0.8-0.9,1.1c-0.4,0.3-0.8,0.6-1.2,0.7
		c-0.5,0.2-0.8,0.3-1,0.3c-0.7,0.1-1.3,0.2-2,0.3V43.6c0.8-0.1,1.5-0.3,2.3-0.4C62.2,43.2,62.5,43.2,62.9,43.3z"/>
	<path fill="#103742" d="M92,36.9c-0.8-0.4-1.9-0.7-3.1-0.9c-1.2-0.1-2.6,0-4.1,0.2c-2.9,0.5-5.9,1.1-8.8,1.6l-0.8,0.1v3.2l1.3-0.5
		c0.1,0,0.1,0,0.2-0.1v23.2c0,0.1,0,0.2,0,0.2c0,0-0.1,0.1-0.1,0.1c-0.1,0-0.2,0.1-0.3,0.1l-1,0v3.2l1.2-0.2
		c1.4-0.3,2.8-0.5,4.3-0.8l1.6-0.3c0.5-0.1,1-0.2,1.4-0.3c0.4-0.1,0.8-0.2,1-0.2l0.5-0.1c1.5-0.3,2.9-0.7,4.1-1.3
		c1.2-0.6,2.2-1.2,3-1.9c0.8-0.7,1.4-1.5,1.9-2.4c0.4-0.9,0.6-1.7,0.6-2.6V41.2c0-0.9-0.2-1.7-0.7-2.4C93.6,38,92.9,37.4,92,36.9z
		 M82.6,39.7l1.1-0.2c0.4-0.1,0.9-0.2,1.5-0.2c0.5-0.1,1-0.1,1.5,0c0.5,0,0.9,0.2,1.3,0.3c0.3,0.1,0.5,0.3,0.7,0.6
		c0.1,0.3,0.2,0.5,0.2,0.8v17.9c0,0.8-0.3,1.4-0.7,2c-0.4,0.4-0.9,0.8-1.5,1c-0.6,0.3-1.2,0.5-1.8,0.7c-0.7,0.1-1.5,0.3-2.2,0.4
		V39.7z"/>
	<path fill="#103742" d="M107.5,32c-0.3,0-0.8,0.1-1.1,0.2c-0.3,0.1-1,0.3-1.3,0.4c-1,0.3-2,0.8-3,1.4c-1,0.6-1.8,1.3-2.5,2.1
		c-0.7,0.9-1.2,1.8-1.4,2.8c-0.3,1.1-0.4,2.4-0.5,3.9c0,1.5-0.1,3.3-0.1,5.6v4.3c0,1.3,0.1,2.4,0.1,3.3c0.1,1,0.3,1.8,0.6,2.5
		c0.3,0.7,0.8,1.4,1.4,1.8c0.9,0.7,2.1,1.2,3.4,1.4c0.6,0.1,1.2,0.1,1.8,0.1c0.7,0,1.4-0.1,2.1-0.2c2.7-0.5,4.8-1.3,6.3-2.6
		c1.6-1.3,2.4-3,2.4-5V51l-3.3,0.6v1.9c0,0.9-0.1,1.6-0.4,2.2c-0.3,0.6-0.6,1.1-1.1,1.5c-0.5,0.4-1.1,0.8-1.8,1.1
		c-0.7,0.3-1.6,0.5-2.5,0.7c-1,0.2-1.8,0.1-2.4-0.3c-0.6-0.4-0.8-1.5-0.8-2.4c0-1.1,0-2.3,0-3.9c0-1.4,0-3,0-4.7c0-1.6,0-3.2,0-4.6
		c0-1.6,0-2.8,0-3.9c0-0.7,0.1-1.2,0.3-1.7c0.2-0.5,0.4-0.8,0.7-1.1c0.3-0.3,0.7-0.6,1.1-0.8c0.5-0.2,1-0.4,1.5-0.6l0,0
		c0.7-0.2,1.4-0.3,1.9-0.2c0.6,0,1,0.1,1.4,0.3c0.4,0.2,0.6,0.3,0.7,0.4c0.3,0.3,0.4,0.3,0.4,0.3c0.2,0.3,0.4,0.5,0.5,0.8
		c0.1,0.4,0.2,0.7,0.3,1c0.1,0.4,0.1,0.8,0.2,1.1l0.1,1.1l3.1-0.5v-8.7l-2.2,0.4c-0.1,0-0.2,0-0.4,0l-0.8,0.1v0.8
		c0,0.1,0,0.1-0.2,0.2c-0.1,0-0.1,0-0.2,0c0,0-1-0.2-1.3-0.2c-0.6-0.1-1.4-0.2-2.3-0.1C108.2,31.9,107.8,32,107.5,32z"/>
	<path fill="#103742" d="M138.7,53.5c-0.1,0-0.3,0-0.4-0.1c0,0,0,0,0,0c0-0.1-0.1-0.4-0.3-1.2c-0.2-0.7-0.4-1.6-0.7-2.8
		c-0.3-1.1-0.6-2.5-0.9-3.9c-0.3-1.4-0.7-2.9-1.1-4.5c-0.9-3.6-1.9-7.6-3-12.1l-0.2-0.9l-0.9,0.1c-1,0.1-2,0.3-2.9,0.4l-0.6,0.1
		l-0.2,0.6c-1.2,4.4-2.3,8.7-3.5,13.1c-0.4,1.7-0.9,3.3-1.3,4.8c-0.4,1.6-0.8,3-1.1,4.2c-0.3,1.2-0.6,2.3-0.8,3
		c-0.2,0.7-0.3,1-0.3,1.2c-0.1,0.2-0.1,0.3-0.2,0.3c-0.2,0.1-0.3,0.2-0.5,0.3c-0.3,0.1-0.5,0.1-0.8,0.1l-1,0v3.1l1.1-0.2
		c1.8-0.3,3.7-0.6,5.5-0.9l0.8-0.1v-3.1l-1.3,0.4c-0.1,0-0.1,0-0.1,0c0-0.2,0.1-0.5,0.3-1.1c0.2-0.7,0.4-1.7,0.7-2.9
		c2-0.3,3.9-0.6,5.8-0.9c0.2,1,0.4,1.8,0.6,2.4c0.2,0.8,0.3,1.1,0.3,1.2l0,0.1c0,0,0,0,0,0c0,0,0,0,0,0c-0.2,0-0.3,0.1-0.6,0.1l-1,0
		v3.1l1.1-0.2c2.9-0.4,5.7-0.8,8.4-1.2l0.9-0.1v-3.1l-1.2,0.3C139.1,53.5,138.9,53.5,138.7,53.5z M126.4,46.5
		c0.3-1.2,0.6-2.5,0.9-3.8l0.9-3.4c0.2,0.9,0.5,1.9,0.7,2.9c0.3,1.2,0.6,2.3,0.9,3.5c0.2,0.8,0.4,1.5,0.5,2.2
		c-1.4,0.2-2.9,0.4-4.5,0.7L126.4,46.5z"/>
	<path fill="#103742" d="M151.7,25.3c-0.6,0-1.9,0.3-2.5,0.4c-0.5,0.1-1.4,0.4-1.9,0.5c-0.5,0.2-0.9,0.4-1.4,0.6c0,0,0,0,0,0
		c-1,0.5-1.8,1.2-2.5,2c-0.8,0.8-1.3,1.7-1.5,2.8c-0.3,1.1-0.5,2.4-0.5,4c0,1.5-0.1,3.4-0.1,5.7v4.4c0,1.3,0.1,2.4,0.2,3.3
		c0.1,1,0.3,1.8,0.6,2.5c0.3,0.8,0.8,1.4,1.4,1.9c0.9,0.8,2,1.3,3.4,1.6c0.9,0.2,1.8,0.3,2.7,0.3c0.4,0,0.9,0,1.3-0.1
		c1.8-0.2,3.4-0.6,4.8-1.2c0.5-0.2,0.8-0.2,1-0.3v0.6l1.1-0.1c0.5,0,0.9-0.1,1.4-0.1l0.9-0.1V41.6c0,0,0-0.1,0-0.1c0,0,0.1,0,0.1,0
		l1.1,0.1v-3.2l-1.1,0.1c-2.9,0.2-5.9,0.5-8.9,0.8l-0.9,0.1v3l1.1-0.1c0.7-0.1,1.5-0.1,2.2-0.2c0.4,0,0.5,0,0.5,0c0,0,0,0,0,0
		c0,0,0,0,0,0v6c0,0.7,0,1.3-0.1,1.9c0,0.4-0.1,0.8-0.2,1.1c-0.1,0.3-0.3,0.5-0.5,0.6c-0.3,0.2-0.7,0.4-1.2,0.6
		c-0.5,0.1-1,0.2-1.6,0.3c-1,0.1-1.8-0.1-2.5-0.5c-0.6-0.4-0.9-1.2-0.9-2.5V32.2c0-0.7,0.1-1.3,0.3-1.7c0.2-0.4,0.4-0.8,0.7-1.1
		c0.3-0.3,0.7-0.5,1.1-0.7c0.5-0.2,1-0.3,1.6-0.4c0.7-0.1,1.4-0.2,1.9-0.1c0.6,0.1,1,0.2,1.4,0.4c0.4,0.2,0.7,0.4,0.8,0.5
		c0.3,0.3,0.4,0.4,0.4,0.4c0.2,0.3,0.4,0.7,0.5,1c0.1,0.4,0.2,0.8,0.3,1.1l0,0c0.1,0.3,0.1,0.7,0.1,1v1.1l1.1-0.1
		c0.4,0,0.9-0.1,1.3-0.1l0.9-0.1v-8.6l-1.1,0.1c-0.5,0-1,0.1-1.4,0.1l-0.9,0.1v0.8c0,0-0.1,0-0.1,0.1c-0.1,0-0.1,0-0.2,0
		c0,0-0.1,0-0.1,0c-0.3-0.1-0.8-0.2-1.3-0.3c-0.6-0.2-1.4-0.3-2.3-0.3C152.2,25.3,151.9,25.3,151.7,25.3z"/>
	<path fill="#103742" d="M175.3,26.8c0.5,0,0.9,0.1,1.2,0.3c0.3,0.2,0.5,0.5,0.7,0.7c0.1,0.3,0.2,0.8,0.3,1.2l0.1,0.9l0.9,0
		c0.5,0,1,0,1.5,0l1,0v-6l-1,0c-5.2,0-10.6,0.2-16.1,0.6l-0.9,0.1v3.1l1.2-0.3c0.1,0,0.2,0,0.3,0l0,0c0,0,0,0,0,0c0,0,0,0.1,0,0.1
		v23.3c0,0.1,0,0.1,0,0.1c0,0,0,0,0,0l-0.1,0l0,0c0,0-0.1,0-0.1,0l-1.2-0.2V54l1-0.1c5.5-0.3,10.9-0.5,16-0.6l1,0v-6l-1,0
		c-0.5,0-1,0-1.5,0l-0.9,0l-0.1,0.9c0,0.5-0.1,0.9-0.3,1.2c-0.1,0.2-0.3,0.5-0.6,0.7c-0.3,0.2-0.7,0.3-1.3,0.3c-1.6,0-3.3,0.1-5,0.2
		V40.4c1,0,2.1-0.1,3.1-0.1c0.4,0,0.5,0.1,0.6,0.1c0.1,0.1,0.2,0.2,0.2,0.3l0.1,0.1c0.1,0.1,0.1,0.2,0.1,0.4v1l1,0
		c0.4,0,0.9,0,1.3,0l1,0v-6.7l-1,0c-0.4,0-0.9,0-1.3,0l-1,0v1c0,0.2,0,0.4-0.1,0.5l0,0c0,0.1-0.1,0.2-0.3,0.3c0,0-0.2,0.1-0.6,0.1
		c-1,0-2,0.1-3,0.1V27C172,26.9,173.7,26.9,175.3,26.8z"/>
</g>
</svg>
